<?xml version="1.0" encoding="utf-8" standalone="no"?>
<!DOCTYPE svg PUBLIC "-//W3C//DTD SVG 1.1//EN"
  "http://www.w3.org/Graphics/SVG/1.1/DTD/svg11.dtd">
<svg xmlns:xlink="http://www.w3.org/1999/xlink" width="432pt" height="288pt" viewBox="0 0 432 288" xmlns="http://www.w3.org/2000/svg" version="1.1">
 <metadata>
  <rdf:RDF xmlns:dc="http://purl.org/dc/elements/1.1/" xmlns:cc="http://creativecommons.org/ns#" xmlns:rdf="http://www.w3.org/1999/02/22-rdf-syntax-ns#">
   <cc:Work>
    <dc:type rdf:resource="http://purl.org/dc/dcmitype/StillImage"/>
    <dc:date>2026-05-04T17:53:39.309103</dc:date>
    <dc:format>image/svg+xml</dc:format>
    <dc:creator>
     <cc:Agent>
      <dc:title>Matplotlib v3.10.9, https://matplotlib.org/</dc:title>
     </cc:Agent>
    </dc:creator>
   </cc:Work>
  </rdf:RDF>
 </metadata>
 <defs>
  <style type="text/css">*{stroke-linejoin: round; stroke-linecap: butt}</style>
 </defs>
 <g id="figure_1">
  <g id="patch_1">
   <path d="M 0 288 
L 432 288 
L 432 0 
L 0 0 
z
" style="fill: #ffffff"/>
  </g>
  <g id="axes_1">
   <g id="patch_2">
    <path d="M 48.08 245.08 
L 421.2 245.08 
L 421.2 25.92 
L 48.08 25.92 
z
" style="fill: #ffffff"/>
   </g>
   <g id="PathCollection_1">
    <defs>
     <path id="m73f9e3e424" d="M 0 2.12132 
C 0.562581 2.12132 1.102195 1.897805 1.5 1.5 
C 1.897805 1.102195 2.12132 0.562581 2.12132 0 
C 2.12132 -0.562581 1.897805 -1.102195 1.5 -1.5 
C 1.102195 -1.897805 0.562581 -2.12132 0 -2.12132 
C -0.562581 -2.12132 -1.102195 -1.897805 -1.5 -1.5 
C -1.897805 -1.102195 -2.12132 -0.562581 -2.12132 0 
C -2.12132 0.562581 -1.897805 1.102195 -1.5 1.5 
C -1.102195 1.897805 -0.562581 2.12132 0 2.12132 
z
" style="stroke: #2ca02c; stroke-opacity: 0.78"/>
    </defs>
    <g clip-path="url(#p67b4bfb09d)">
     <use xlink:href="#m73f9e3e424" x="196.290547" y="169.677063" style="fill: #2ca02c; fill-opacity: 0.78; stroke: #2ca02c; stroke-opacity: 0.78"/>
     <use xlink:href="#m73f9e3e424" x="254.390226" y="74.020127" style="fill: #2ca02c; fill-opacity: 0.78; stroke: #2ca02c; stroke-opacity: 0.78"/>
     <use xlink:href="#m73f9e3e424" x="189.878306" y="123.623794" style="fill: #2ca02c; fill-opacity: 0.78; stroke: #2ca02c; stroke-opacity: 0.78"/>
     <use xlink:href="#m73f9e3e424" x="210.359722" y="135.373365" style="fill: #2ca02c; fill-opacity: 0.78; stroke: #2ca02c; stroke-opacity: 0.78"/>
     <use xlink:href="#m73f9e3e424" x="322.231641" y="134.207911" style="fill: #2ca02c; fill-opacity: 0.78; stroke: #2ca02c; stroke-opacity: 0.78"/>
     <use xlink:href="#m73f9e3e424" x="270.871427" y="107.357465" style="fill: #2ca02c; fill-opacity: 0.78; stroke: #2ca02c; stroke-opacity: 0.78"/>
     <use xlink:href="#m73f9e3e424" x="130.838391" y="165.5024" style="fill: #2ca02c; fill-opacity: 0.78; stroke: #2ca02c; stroke-opacity: 0.78"/>
     <use xlink:href="#m73f9e3e424" x="397.921639" y="35.881818" style="fill: #2ca02c; fill-opacity: 0.78; stroke: #2ca02c; stroke-opacity: 0.78"/>
     <use xlink:href="#m73f9e3e424" x="142.944202" y="185.902826" style="fill: #2ca02c; fill-opacity: 0.78; stroke: #2ca02c; stroke-opacity: 0.78"/>
     <use xlink:href="#m73f9e3e424" x="267.689605" y="70.948861" style="fill: #2ca02c; fill-opacity: 0.78; stroke: #2ca02c; stroke-opacity: 0.78"/>
     <use xlink:href="#m73f9e3e424" x="244.331205" y="107.597199" style="fill: #2ca02c; fill-opacity: 0.78; stroke: #2ca02c; stroke-opacity: 0.78"/>
     <use xlink:href="#m73f9e3e424" x="205.457244" y="145.928873" style="fill: #2ca02c; fill-opacity: 0.78; stroke: #2ca02c; stroke-opacity: 0.78"/>
     <use xlink:href="#m73f9e3e424" x="224.605457" y="90.558459" style="fill: #2ca02c; fill-opacity: 0.78; stroke: #2ca02c; stroke-opacity: 0.78"/>
     <use xlink:href="#m73f9e3e424" x="200.160986" y="136.603379" style="fill: #2ca02c; fill-opacity: 0.78; stroke: #2ca02c; stroke-opacity: 0.78"/>
     <use xlink:href="#m73f9e3e424" x="266.95238" y="107.003842" style="fill: #2ca02c; fill-opacity: 0.78; stroke: #2ca02c; stroke-opacity: 0.78"/>
     <use xlink:href="#m73f9e3e424" x="163.548652" y="155.512195" style="fill: #2ca02c; fill-opacity: 0.78; stroke: #2ca02c; stroke-opacity: 0.78"/>
     <use xlink:href="#m73f9e3e424" x="132.737051" y="155.393373" style="fill: #2ca02c; fill-opacity: 0.78; stroke: #2ca02c; stroke-opacity: 0.78"/>
     <use xlink:href="#m73f9e3e424" x="242.8087" y="116.404586" style="fill: #2ca02c; fill-opacity: 0.78; stroke: #2ca02c; stroke-opacity: 0.78"/>
     <use xlink:href="#m73f9e3e424" x="327.035014" y="75.114309" style="fill: #2ca02c; fill-opacity: 0.78; stroke: #2ca02c; stroke-opacity: 0.78"/>
     <use xlink:href="#m73f9e3e424" x="201.973613" y="138.475643" style="fill: #2ca02c; fill-opacity: 0.78; stroke: #2ca02c; stroke-opacity: 0.78"/>
     <use xlink:href="#m73f9e3e424" x="324.760861" y="44.032699" style="fill: #2ca02c; fill-opacity: 0.78; stroke: #2ca02c; stroke-opacity: 0.78"/>
     <use xlink:href="#m73f9e3e424" x="205.20521" y="140.13711" style="fill: #2ca02c; fill-opacity: 0.78; stroke: #2ca02c; stroke-opacity: 0.78"/>
     <use xlink:href="#m73f9e3e424" x="315.012773" y="111.440262" style="fill: #2ca02c; fill-opacity: 0.78; stroke: #2ca02c; stroke-opacity: 0.78"/>
     <use xlink:href="#m73f9e3e424" x="275.384186" y="120.551118" style="fill: #2ca02c; fill-opacity: 0.78; stroke: #2ca02c; stroke-opacity: 0.78"/>
     <use xlink:href="#m73f9e3e424" x="245.975759" y="130.21498" style="fill: #2ca02c; fill-opacity: 0.78; stroke: #2ca02c; stroke-opacity: 0.78"/>
     <use xlink:href="#m73f9e3e424" x="273.631795" y="85.921178" style="fill: #2ca02c; fill-opacity: 0.78; stroke: #2ca02c; stroke-opacity: 0.78"/>
     <use xlink:href="#m73f9e3e424" x="155.24234" y="144.652499" style="fill: #2ca02c; fill-opacity: 0.78; stroke: #2ca02c; stroke-opacity: 0.78"/>
     <use xlink:href="#m73f9e3e424" x="217.636781" y="141.712729" style="fill: #2ca02c; fill-opacity: 0.78; stroke: #2ca02c; stroke-opacity: 0.78"/>
     <use xlink:href="#m73f9e3e424" x="106.283603" y="192.23134" style="fill: #2ca02c; fill-opacity: 0.78; stroke: #2ca02c; stroke-opacity: 0.78"/>
     <use xlink:href="#m73f9e3e424" x="92.314618" y="205.048138" style="fill: #2ca02c; fill-opacity: 0.78; stroke: #2ca02c; stroke-opacity: 0.78"/>
     <use xlink:href="#m73f9e3e424" x="272.409629" y="134.820081" style="fill: #2ca02c; fill-opacity: 0.78; stroke: #2ca02c; stroke-opacity: 0.78"/>
     <use xlink:href="#m73f9e3e424" x="201.144506" y="164.866403" style="fill: #2ca02c; fill-opacity: 0.78; stroke: #2ca02c; stroke-opacity: 0.78"/>
     <use xlink:href="#m73f9e3e424" x="278.202119" y="129.488693" style="fill: #2ca02c; fill-opacity: 0.78; stroke: #2ca02c; stroke-opacity: 0.78"/>
     <use xlink:href="#m73f9e3e424" x="219.835641" y="128.926559" style="fill: #2ca02c; fill-opacity: 0.78; stroke: #2ca02c; stroke-opacity: 0.78"/>
     <use xlink:href="#m73f9e3e424" x="159.504097" y="149.685243" style="fill: #2ca02c; fill-opacity: 0.78; stroke: #2ca02c; stroke-opacity: 0.78"/>
     <use xlink:href="#m73f9e3e424" x="404.24" y="42.650455" style="fill: #2ca02c; fill-opacity: 0.78; stroke: #2ca02c; stroke-opacity: 0.78"/>
     <use xlink:href="#m73f9e3e424" x="302.989794" y="100.949738" style="fill: #2ca02c; fill-opacity: 0.78; stroke: #2ca02c; stroke-opacity: 0.78"/>
     <use xlink:href="#m73f9e3e424" x="222.534212" y="119.579628" style="fill: #2ca02c; fill-opacity: 0.78; stroke: #2ca02c; stroke-opacity: 0.78"/>
     <use xlink:href="#m73f9e3e424" x="212.576646" y="155.766837" style="fill: #2ca02c; fill-opacity: 0.78; stroke: #2ca02c; stroke-opacity: 0.78"/>
     <use xlink:href="#m73f9e3e424" x="321.382075" y="120.430532" style="fill: #2ca02c; fill-opacity: 0.78; stroke: #2ca02c; stroke-opacity: 0.78"/>
     <use xlink:href="#m73f9e3e424" x="189.612439" y="151.036902" style="fill: #2ca02c; fill-opacity: 0.78; stroke: #2ca02c; stroke-opacity: 0.78"/>
     <use xlink:href="#m73f9e3e424" x="312.832082" y="80.389292" style="fill: #2ca02c; fill-opacity: 0.78; stroke: #2ca02c; stroke-opacity: 0.78"/>
     <use xlink:href="#m73f9e3e424" x="254.776536" y="137.117801" style="fill: #2ca02c; fill-opacity: 0.78; stroke: #2ca02c; stroke-opacity: 0.78"/>
     <use xlink:href="#m73f9e3e424" x="122.882085" y="211.288646" style="fill: #2ca02c; fill-opacity: 0.78; stroke: #2ca02c; stroke-opacity: 0.78"/>
     <use xlink:href="#m73f9e3e424" x="260.691808" y="126.730871" style="fill: #2ca02c; fill-opacity: 0.78; stroke: #2ca02c; stroke-opacity: 0.78"/>
     <use xlink:href="#m73f9e3e424" x="285.659222" y="127.405192" style="fill: #2ca02c; fill-opacity: 0.78; stroke: #2ca02c; stroke-opacity: 0.78"/>
     <use xlink:href="#m73f9e3e424" x="247.559567" y="125.910296" style="fill: #2ca02c; fill-opacity: 0.78; stroke: #2ca02c; stroke-opacity: 0.78"/>
     <use xlink:href="#m73f9e3e424" x="275.427107" y="111.211753" style="fill: #2ca02c; fill-opacity: 0.78; stroke: #2ca02c; stroke-opacity: 0.78"/>
     <use xlink:href="#m73f9e3e424" x="302.836321" y="89.022911" style="fill: #2ca02c; fill-opacity: 0.78; stroke: #2ca02c; stroke-opacity: 0.78"/>
     <use xlink:href="#m73f9e3e424" x="178.307249" y="138.266073" style="fill: #2ca02c; fill-opacity: 0.78; stroke: #2ca02c; stroke-opacity: 0.78"/>
     <use xlink:href="#m73f9e3e424" x="361.504983" y="62.267936" style="fill: #2ca02c; fill-opacity: 0.78; stroke: #2ca02c; stroke-opacity: 0.78"/>
     <use xlink:href="#m73f9e3e424" x="221.877444" y="122.437359" style="fill: #2ca02c; fill-opacity: 0.78; stroke: #2ca02c; stroke-opacity: 0.78"/>
     <use xlink:href="#m73f9e3e424" x="266.733433" y="101.781057" style="fill: #2ca02c; fill-opacity: 0.78; stroke: #2ca02c; stroke-opacity: 0.78"/>
     <use xlink:href="#m73f9e3e424" x="105.64589" y="223.701004" style="fill: #2ca02c; fill-opacity: 0.78; stroke: #2ca02c; stroke-opacity: 0.78"/>
     <use xlink:href="#m73f9e3e424" x="278.532372" y="108.83885" style="fill: #2ca02c; fill-opacity: 0.78; stroke: #2ca02c; stroke-opacity: 0.78"/>
     <use xlink:href="#m73f9e3e424" x="259.265209" y="134.952587" style="fill: #2ca02c; fill-opacity: 0.78; stroke: #2ca02c; stroke-opacity: 0.78"/>
     <use xlink:href="#m73f9e3e424" x="172.144453" y="181.239457" style="fill: #2ca02c; fill-opacity: 0.78; stroke: #2ca02c; stroke-opacity: 0.78"/>
     <use xlink:href="#m73f9e3e424" x="256.661097" y="114.229592" style="fill: #2ca02c; fill-opacity: 0.78; stroke: #2ca02c; stroke-opacity: 0.78"/>
     <use xlink:href="#m73f9e3e424" x="244.817237" y="101.285242" style="fill: #2ca02c; fill-opacity: 0.78; stroke: #2ca02c; stroke-opacity: 0.78"/>
     <use xlink:href="#m73f9e3e424" x="277.92326" y="92.534095" style="fill: #2ca02c; fill-opacity: 0.78; stroke: #2ca02c; stroke-opacity: 0.78"/>
     <use xlink:href="#m73f9e3e424" x="258.860018" y="105.958128" style="fill: #2ca02c; fill-opacity: 0.78; stroke: #2ca02c; stroke-opacity: 0.78"/>
     <use xlink:href="#m73f9e3e424" x="174.097575" y="130.414788" style="fill: #2ca02c; fill-opacity: 0.78; stroke: #2ca02c; stroke-opacity: 0.78"/>
     <use xlink:href="#m73f9e3e424" x="214.754715" y="137.886871" style="fill: #2ca02c; fill-opacity: 0.78; stroke: #2ca02c; stroke-opacity: 0.78"/>
     <use xlink:href="#m73f9e3e424" x="97.735455" y="209.852678" style="fill: #2ca02c; fill-opacity: 0.78; stroke: #2ca02c; stroke-opacity: 0.78"/>
     <use xlink:href="#m73f9e3e424" x="212.524644" y="146.7978" style="fill: #2ca02c; fill-opacity: 0.78; stroke: #2ca02c; stroke-opacity: 0.78"/>
     <use xlink:href="#m73f9e3e424" x="176.676711" y="166.832447" style="fill: #2ca02c; fill-opacity: 0.78; stroke: #2ca02c; stroke-opacity: 0.78"/>
     <use xlink:href="#m73f9e3e424" x="282.41987" y="139.078409" style="fill: #2ca02c; fill-opacity: 0.78; stroke: #2ca02c; stroke-opacity: 0.78"/>
     <use xlink:href="#m73f9e3e424" x="300.687193" y="69.612657" style="fill: #2ca02c; fill-opacity: 0.78; stroke: #2ca02c; stroke-opacity: 0.78"/>
     <use xlink:href="#m73f9e3e424" x="253.889259" y="120.093729" style="fill: #2ca02c; fill-opacity: 0.78; stroke: #2ca02c; stroke-opacity: 0.78"/>
     <use xlink:href="#m73f9e3e424" x="87.508665" y="204.161809" style="fill: #2ca02c; fill-opacity: 0.78; stroke: #2ca02c; stroke-opacity: 0.78"/>
     <use xlink:href="#m73f9e3e424" x="245.858007" y="129.978227" style="fill: #2ca02c; fill-opacity: 0.78; stroke: #2ca02c; stroke-opacity: 0.78"/>
     <use xlink:href="#m73f9e3e424" x="137.357266" y="175.886457" style="fill: #2ca02c; fill-opacity: 0.78; stroke: #2ca02c; stroke-opacity: 0.78"/>
     <use xlink:href="#m73f9e3e424" x="240.312484" y="134.785625" style="fill: #2ca02c; fill-opacity: 0.78; stroke: #2ca02c; stroke-opacity: 0.78"/>
     <use xlink:href="#m73f9e3e424" x="221.654004" y="115.513349" style="fill: #2ca02c; fill-opacity: 0.78; stroke: #2ca02c; stroke-opacity: 0.78"/>
     <use xlink:href="#m73f9e3e424" x="138.315185" y="207.130235" style="fill: #2ca02c; fill-opacity: 0.78; stroke: #2ca02c; stroke-opacity: 0.78"/>
     <use xlink:href="#m73f9e3e424" x="123.022898" y="170.864926" style="fill: #2ca02c; fill-opacity: 0.78; stroke: #2ca02c; stroke-opacity: 0.78"/>
     <use xlink:href="#m73f9e3e424" x="267.058603" y="108.534158" style="fill: #2ca02c; fill-opacity: 0.78; stroke: #2ca02c; stroke-opacity: 0.78"/>
     <use xlink:href="#m73f9e3e424" x="352.551892" y="44.374671" style="fill: #2ca02c; fill-opacity: 0.78; stroke: #2ca02c; stroke-opacity: 0.78"/>
     <use xlink:href="#m73f9e3e424" x="207.784192" y="113.733152" style="fill: #2ca02c; fill-opacity: 0.78; stroke: #2ca02c; stroke-opacity: 0.78"/>
     <use xlink:href="#m73f9e3e424" x="232.827343" y="101.370333" style="fill: #2ca02c; fill-opacity: 0.78; stroke: #2ca02c; stroke-opacity: 0.78"/>
     <use xlink:href="#m73f9e3e424" x="174.500729" y="157.420243" style="fill: #2ca02c; fill-opacity: 0.78; stroke: #2ca02c; stroke-opacity: 0.78"/>
     <use xlink:href="#m73f9e3e424" x="193.052967" y="164.744604" style="fill: #2ca02c; fill-opacity: 0.78; stroke: #2ca02c; stroke-opacity: 0.78"/>
     <use xlink:href="#m73f9e3e424" x="99.459955" y="167.917746" style="fill: #2ca02c; fill-opacity: 0.78; stroke: #2ca02c; stroke-opacity: 0.78"/>
     <use xlink:href="#m73f9e3e424" x="216.620009" y="155.998806" style="fill: #2ca02c; fill-opacity: 0.78; stroke: #2ca02c; stroke-opacity: 0.78"/>
     <use xlink:href="#m73f9e3e424" x="223.784594" y="126.793762" style="fill: #2ca02c; fill-opacity: 0.78; stroke: #2ca02c; stroke-opacity: 0.78"/>
     <use xlink:href="#m73f9e3e424" x="190.524558" y="158.704356" style="fill: #2ca02c; fill-opacity: 0.78; stroke: #2ca02c; stroke-opacity: 0.78"/>
     <use xlink:href="#m73f9e3e424" x="218.238736" y="131.553744" style="fill: #2ca02c; fill-opacity: 0.78; stroke: #2ca02c; stroke-opacity: 0.78"/>
     <use xlink:href="#m73f9e3e424" x="187.26976" y="113.67721" style="fill: #2ca02c; fill-opacity: 0.78; stroke: #2ca02c; stroke-opacity: 0.78"/>
     <use xlink:href="#m73f9e3e424" x="300.350369" y="80.819228" style="fill: #2ca02c; fill-opacity: 0.78; stroke: #2ca02c; stroke-opacity: 0.78"/>
     <use xlink:href="#m73f9e3e424" x="206.006037" y="134.256064" style="fill: #2ca02c; fill-opacity: 0.78; stroke: #2ca02c; stroke-opacity: 0.78"/>
     <use xlink:href="#m73f9e3e424" x="228.668192" y="130.654427" style="fill: #2ca02c; fill-opacity: 0.78; stroke: #2ca02c; stroke-opacity: 0.78"/>
     <use xlink:href="#m73f9e3e424" x="275.219235" y="98.243898" style="fill: #2ca02c; fill-opacity: 0.78; stroke: #2ca02c; stroke-opacity: 0.78"/>
     <use xlink:href="#m73f9e3e424" x="223.783843" y="116.081911" style="fill: #2ca02c; fill-opacity: 0.78; stroke: #2ca02c; stroke-opacity: 0.78"/>
     <use xlink:href="#m73f9e3e424" x="238.057677" y="113.40308" style="fill: #2ca02c; fill-opacity: 0.78; stroke: #2ca02c; stroke-opacity: 0.78"/>
     <use xlink:href="#m73f9e3e424" x="89.27902" y="217.964375" style="fill: #2ca02c; fill-opacity: 0.78; stroke: #2ca02c; stroke-opacity: 0.78"/>
     <use xlink:href="#m73f9e3e424" x="194.48214" y="159.336476" style="fill: #2ca02c; fill-opacity: 0.78; stroke: #2ca02c; stroke-opacity: 0.78"/>
     <use xlink:href="#m73f9e3e424" x="338.853721" y="72.45376" style="fill: #2ca02c; fill-opacity: 0.78; stroke: #2ca02c; stroke-opacity: 0.78"/>
     <use xlink:href="#m73f9e3e424" x="237.159062" y="110.531952" style="fill: #2ca02c; fill-opacity: 0.78; stroke: #2ca02c; stroke-opacity: 0.78"/>
     <use xlink:href="#m73f9e3e424" x="279.42365" y="95.295036" style="fill: #2ca02c; fill-opacity: 0.78; stroke: #2ca02c; stroke-opacity: 0.78"/>
     <use xlink:href="#m73f9e3e424" x="237.325326" y="128.269149" style="fill: #2ca02c; fill-opacity: 0.78; stroke: #2ca02c; stroke-opacity: 0.78"/>
     <use xlink:href="#m73f9e3e424" x="336.680217" y="110.26658" style="fill: #2ca02c; fill-opacity: 0.78; stroke: #2ca02c; stroke-opacity: 0.78"/>
     <use xlink:href="#m73f9e3e424" x="161.1583" y="187.47174" style="fill: #2ca02c; fill-opacity: 0.78; stroke: #2ca02c; stroke-opacity: 0.78"/>
     <use xlink:href="#m73f9e3e424" x="157.236289" y="138.629122" style="fill: #2ca02c; fill-opacity: 0.78; stroke: #2ca02c; stroke-opacity: 0.78"/>
     <use xlink:href="#m73f9e3e424" x="254.961402" y="125.397438" style="fill: #2ca02c; fill-opacity: 0.78; stroke: #2ca02c; stroke-opacity: 0.78"/>
     <use xlink:href="#m73f9e3e424" x="263.562413" y="87.425211" style="fill: #2ca02c; fill-opacity: 0.78; stroke: #2ca02c; stroke-opacity: 0.78"/>
     <use xlink:href="#m73f9e3e424" x="232.26554" y="122.397115" style="fill: #2ca02c; fill-opacity: 0.78; stroke: #2ca02c; stroke-opacity: 0.78"/>
     <use xlink:href="#m73f9e3e424" x="230.851349" y="139.875148" style="fill: #2ca02c; fill-opacity: 0.78; stroke: #2ca02c; stroke-opacity: 0.78"/>
     <use xlink:href="#m73f9e3e424" x="166.671088" y="193.972388" style="fill: #2ca02c; fill-opacity: 0.78; stroke: #2ca02c; stroke-opacity: 0.78"/>
     <use xlink:href="#m73f9e3e424" x="280.1872" y="109.206643" style="fill: #2ca02c; fill-opacity: 0.78; stroke: #2ca02c; stroke-opacity: 0.78"/>
     <use xlink:href="#m73f9e3e424" x="213.521615" y="149.896608" style="fill: #2ca02c; fill-opacity: 0.78; stroke: #2ca02c; stroke-opacity: 0.78"/>
     <use xlink:href="#m73f9e3e424" x="244.361949" y="144.364689" style="fill: #2ca02c; fill-opacity: 0.78; stroke: #2ca02c; stroke-opacity: 0.78"/>
     <use xlink:href="#m73f9e3e424" x="179.1943" y="161.759546" style="fill: #2ca02c; fill-opacity: 0.78; stroke: #2ca02c; stroke-opacity: 0.78"/>
     <use xlink:href="#m73f9e3e424" x="347.945883" y="42.385921" style="fill: #2ca02c; fill-opacity: 0.78; stroke: #2ca02c; stroke-opacity: 0.78"/>
     <use xlink:href="#m73f9e3e424" x="181.06578" y="121.353117" style="fill: #2ca02c; fill-opacity: 0.78; stroke: #2ca02c; stroke-opacity: 0.78"/>
     <use xlink:href="#m73f9e3e424" x="222.219546" y="169.034149" style="fill: #2ca02c; fill-opacity: 0.78; stroke: #2ca02c; stroke-opacity: 0.78"/>
     <use xlink:href="#m73f9e3e424" x="137.507008" y="181.755273" style="fill: #2ca02c; fill-opacity: 0.78; stroke: #2ca02c; stroke-opacity: 0.78"/>
     <use xlink:href="#m73f9e3e424" x="156.905765" y="173.254431" style="fill: #2ca02c; fill-opacity: 0.78; stroke: #2ca02c; stroke-opacity: 0.78"/>
     <use xlink:href="#m73f9e3e424" x="208.042395" y="133.965103" style="fill: #2ca02c; fill-opacity: 0.78; stroke: #2ca02c; stroke-opacity: 0.78"/>
     <use xlink:href="#m73f9e3e424" x="156.200338" y="152.211479" style="fill: #2ca02c; fill-opacity: 0.78; stroke: #2ca02c; stroke-opacity: 0.78"/>
     <use xlink:href="#m73f9e3e424" x="219.499241" y="127.385324" style="fill: #2ca02c; fill-opacity: 0.78; stroke: #2ca02c; stroke-opacity: 0.78"/>
     <use xlink:href="#m73f9e3e424" x="155.055538" y="166.273432" style="fill: #2ca02c; fill-opacity: 0.78; stroke: #2ca02c; stroke-opacity: 0.78"/>
     <use xlink:href="#m73f9e3e424" x="219.221388" y="163.825388" style="fill: #2ca02c; fill-opacity: 0.78; stroke: #2ca02c; stroke-opacity: 0.78"/>
     <use xlink:href="#m73f9e3e424" x="212.957538" y="155.586239" style="fill: #2ca02c; fill-opacity: 0.78; stroke: #2ca02c; stroke-opacity: 0.78"/>
     <use xlink:href="#m73f9e3e424" x="293.294638" y="104.692358" style="fill: #2ca02c; fill-opacity: 0.78; stroke: #2ca02c; stroke-opacity: 0.78"/>
     <use xlink:href="#m73f9e3e424" x="177.403195" y="167.948282" style="fill: #2ca02c; fill-opacity: 0.78; stroke: #2ca02c; stroke-opacity: 0.78"/>
     <use xlink:href="#m73f9e3e424" x="137.675907" y="206.554754" style="fill: #2ca02c; fill-opacity: 0.78; stroke: #2ca02c; stroke-opacity: 0.78"/>
     <use xlink:href="#m73f9e3e424" x="157.564394" y="190.086166" style="fill: #2ca02c; fill-opacity: 0.78; stroke: #2ca02c; stroke-opacity: 0.78"/>
     <use xlink:href="#m73f9e3e424" x="66.696557" y="198.777099" style="fill: #2ca02c; fill-opacity: 0.78; stroke: #2ca02c; stroke-opacity: 0.78"/>
     <use xlink:href="#m73f9e3e424" x="65.04" y="235.118182" style="fill: #2ca02c; fill-opacity: 0.78; stroke: #2ca02c; stroke-opacity: 0.78"/>
     <use xlink:href="#m73f9e3e424" x="278.232421" y="113.061983" style="fill: #2ca02c; fill-opacity: 0.78; stroke: #2ca02c; stroke-opacity: 0.78"/>
     <use xlink:href="#m73f9e3e424" x="352.928096" y="78.417202" style="fill: #2ca02c; fill-opacity: 0.78; stroke: #2ca02c; stroke-opacity: 0.78"/>
     <use xlink:href="#m73f9e3e424" x="185.538669" y="145.294665" style="fill: #2ca02c; fill-opacity: 0.78; stroke: #2ca02c; stroke-opacity: 0.78"/>
     <use xlink:href="#m73f9e3e424" x="217.259762" y="146.131685" style="fill: #2ca02c; fill-opacity: 0.78; stroke: #2ca02c; stroke-opacity: 0.78"/>
     <use xlink:href="#m73f9e3e424" x="180.927803" y="175.809505" style="fill: #2ca02c; fill-opacity: 0.78; stroke: #2ca02c; stroke-opacity: 0.78"/>
     <use xlink:href="#m73f9e3e424" x="274.610425" y="116.929594" style="fill: #2ca02c; fill-opacity: 0.78; stroke: #2ca02c; stroke-opacity: 0.78"/>
     <use xlink:href="#m73f9e3e424" x="199.53482" y="126.027836" style="fill: #2ca02c; fill-opacity: 0.78; stroke: #2ca02c; stroke-opacity: 0.78"/>
     <use xlink:href="#m73f9e3e424" x="202.809597" y="113.967379" style="fill: #2ca02c; fill-opacity: 0.78; stroke: #2ca02c; stroke-opacity: 0.78"/>
     <use xlink:href="#m73f9e3e424" x="200.858521" y="131.045925" style="fill: #2ca02c; fill-opacity: 0.78; stroke: #2ca02c; stroke-opacity: 0.78"/>
     <use xlink:href="#m73f9e3e424" x="103.067873" y="188.06198" style="fill: #2ca02c; fill-opacity: 0.78; stroke: #2ca02c; stroke-opacity: 0.78"/>
     <use xlink:href="#m73f9e3e424" x="266.313837" y="120.269355" style="fill: #2ca02c; fill-opacity: 0.78; stroke: #2ca02c; stroke-opacity: 0.78"/>
    </g>
   </g>
   <g id="matplotlib.axis_1">
    <g id="xtick_1">
     <g id="line2d_1">
      <path d="M 77.625069 245.08 
L 77.625069 25.92 
" clip-path="url(#p67b4bfb09d)" style="fill: none; stroke: #b0b0b0; stroke-opacity: 0.25; stroke-width: 0.8; stroke-linecap: square"/>
     </g>
     <g id="line2d_2">
      <defs>
       <path id="m24d3db4b10" d="M 0 0 
L 0 3.5 
" style="stroke: #000000; stroke-width: 0.8"/>
      </defs>
      <g>
       <use xlink:href="#m24d3db4b10" x="77.625069" y="245.08" style="stroke: #000000; stroke-width: 0.8"/>
      </g>
     </g>
     <g id="text_1">
      <!-- −2 -->
      <g transform="translate(70.253975 259.678438) scale(0.1 -0.1)">
       <defs>
        <path id="DejaVuSans-2212" d="M 678 2272 
L 4684 2272 
L 4684 1741 
L 678 1741 
L 678 2272 
z
" transform="scale(0.015625)"/>
        <path id="DejaVuSans-32" d="M 1228 531 
L 3431 531 
L 3431 0 
L 469 0 
L 469 531 
Q 828 903 1448 1529 
Q 2069 2156 2228 2338 
Q 2531 2678 2651 2914 
Q 2772 3150 2772 3378 
Q 2772 3750 2511 3984 
Q 2250 4219 1831 4219 
Q 1534 4219 1204 4116 
Q 875 4013 500 3803 
L 500 4441 
Q 881 4594 1212 4672 
Q 1544 4750 1819 4750 
Q 2544 4750 2975 4387 
Q 3406 4025 3406 3419 
Q 3406 3131 3298 2873 
Q 3191 2616 2906 2266 
Q 2828 2175 2409 1742 
Q 1991 1309 1228 531 
z
" transform="scale(0.015625)"/>
       </defs>
       <use xlink:href="#DejaVuSans-2212"/>
       <use xlink:href="#DejaVuSans-32" transform="translate(83.789062 0)"/>
      </g>
     </g>
    </g>
    <g id="xtick_2">
     <g id="line2d_3">
      <path d="M 144.358705 245.08 
L 144.358705 25.92 
" clip-path="url(#p67b4bfb09d)" style="fill: none; stroke: #b0b0b0; stroke-opacity: 0.25; stroke-width: 0.8; stroke-linecap: square"/>
     </g>
     <g id="line2d_4">
      <g>
       <use xlink:href="#m24d3db4b10" x="144.358705" y="245.08" style="stroke: #000000; stroke-width: 0.8"/>
      </g>
     </g>
     <g id="text_2">
      <!-- −1 -->
      <g transform="translate(136.987611 259.678438) scale(0.1 -0.1)">
       <defs>
        <path id="DejaVuSans-31" d="M 794 531 
L 1825 531 
L 1825 4091 
L 703 3866 
L 703 4441 
L 1819 4666 
L 2450 4666 
L 2450 531 
L 3481 531 
L 3481 0 
L 794 0 
L 794 531 
z
" transform="scale(0.015625)"/>
       </defs>
       <use xlink:href="#DejaVuSans-2212"/>
       <use xlink:href="#DejaVuSans-31" transform="translate(83.789062 0)"/>
      </g>
     </g>
    </g>
    <g id="xtick_3">
     <g id="line2d_5">
      <path d="M 211.092341 245.08 
L 211.092341 25.92 
" clip-path="url(#p67b4bfb09d)" style="fill: none; stroke: #b0b0b0; stroke-opacity: 0.25; stroke-width: 0.8; stroke-linecap: square"/>
     </g>
     <g id="line2d_6">
      <g>
       <use xlink:href="#m24d3db4b10" x="211.092341" y="245.08" style="stroke: #000000; stroke-width: 0.8"/>
      </g>
     </g>
     <g id="text_3">
      <!-- 0 -->
      <g transform="translate(207.911091 259.678438) scale(0.1 -0.1)">
       <defs>
        <path id="DejaVuSans-30" d="M 2034 4250 
Q 1547 4250 1301 3770 
Q 1056 3291 1056 2328 
Q 1056 1369 1301 889 
Q 1547 409 2034 409 
Q 2525 409 2770 889 
Q 3016 1369 3016 2328 
Q 3016 3291 2770 3770 
Q 2525 4250 2034 4250 
z
M 2034 4750 
Q 2819 4750 3233 4129 
Q 3647 3509 3647 2328 
Q 3647 1150 3233 529 
Q 2819 -91 2034 -91 
Q 1250 -91 836 529 
Q 422 1150 422 2328 
Q 422 3509 836 4129 
Q 1250 4750 2034 4750 
z
" transform="scale(0.015625)"/>
       </defs>
       <use xlink:href="#DejaVuSans-30"/>
      </g>
     </g>
    </g>
    <g id="xtick_4">
     <g id="line2d_7">
      <path d="M 277.825978 245.08 
L 277.825978 25.92 
" clip-path="url(#p67b4bfb09d)" style="fill: none; stroke: #b0b0b0; stroke-opacity: 0.25; stroke-width: 0.8; stroke-linecap: square"/>
     </g>
     <g id="line2d_8">
      <g>
       <use xlink:href="#m24d3db4b10" x="277.825978" y="245.08" style="stroke: #000000; stroke-width: 0.8"/>
      </g>
     </g>
     <g id="text_4">
      <!-- 1 -->
      <g transform="translate(274.644728 259.678438) scale(0.1 -0.1)">
       <use xlink:href="#DejaVuSans-31"/>
      </g>
     </g>
    </g>
    <g id="xtick_5">
     <g id="line2d_9">
      <path d="M 344.559614 245.08 
L 344.559614 25.92 
" clip-path="url(#p67b4bfb09d)" style="fill: none; stroke: #b0b0b0; stroke-opacity: 0.25; stroke-width: 0.8; stroke-linecap: square"/>
     </g>
     <g id="line2d_10">
      <g>
       <use xlink:href="#m24d3db4b10" x="344.559614" y="245.08" style="stroke: #000000; stroke-width: 0.8"/>
      </g>
     </g>
     <g id="text_5">
      <!-- 2 -->
      <g transform="translate(341.378364 259.678438) scale(0.1 -0.1)">
       <use xlink:href="#DejaVuSans-32"/>
      </g>
     </g>
    </g>
    <g id="xtick_6">
     <g id="line2d_11">
      <path d="M 411.29325 245.08 
L 411.29325 25.92 
" clip-path="url(#p67b4bfb09d)" style="fill: none; stroke: #b0b0b0; stroke-opacity: 0.25; stroke-width: 0.8; stroke-linecap: square"/>
     </g>
     <g id="line2d_12">
      <g>
       <use xlink:href="#m24d3db4b10" x="411.29325" y="245.08" style="stroke: #000000; stroke-width: 0.8"/>
      </g>
     </g>
     <g id="text_6">
      <!-- 3 -->
      <g transform="translate(408.112 259.678438) scale(0.1 -0.1)">
       <defs>
        <path id="DejaVuSans-33" d="M 2597 2516 
Q 3050 2419 3304 2112 
Q 3559 1806 3559 1356 
Q 3559 666 3084 287 
Q 2609 -91 1734 -91 
Q 1441 -91 1130 -33 
Q 819 25 488 141 
L 488 750 
Q 750 597 1062 519 
Q 1375 441 1716 441 
Q 2309 441 2620 675 
Q 2931 909 2931 1356 
Q 2931 1769 2642 2001 
Q 2353 2234 1838 2234 
L 1294 2234 
L 1294 2753 
L 1863 2753 
Q 2328 2753 2575 2939 
Q 2822 3125 2822 3475 
Q 2822 3834 2567 4026 
Q 2313 4219 1838 4219 
Q 1578 4219 1281 4162 
Q 984 4106 628 3988 
L 628 4550 
Q 988 4650 1302 4700 
Q 1616 4750 1894 4750 
Q 2613 4750 3031 4423 
Q 3450 4097 3450 3541 
Q 3450 3153 3228 2886 
Q 3006 2619 2597 2516 
z
" transform="scale(0.015625)"/>
       </defs>
       <use xlink:href="#DejaVuSans-33"/>
      </g>
     </g>
    </g>
    <g id="text_7">
     <!-- Signal x ($\mu\mathrm{m}$) -->
     <g transform="translate(201.19 273.358125) scale(0.1 -0.1)">
      <defs>
       <path id="DejaVuSans-53" d="M 3425 4513 
L 3425 3897 
Q 3066 4069 2747 4153 
Q 2428 4238 2131 4238 
Q 1616 4238 1336 4038 
Q 1056 3838 1056 3469 
Q 1056 3159 1242 3001 
Q 1428 2844 1947 2747 
L 2328 2669 
Q 3034 2534 3370 2195 
Q 3706 1856 3706 1288 
Q 3706 609 3251 259 
Q 2797 -91 1919 -91 
Q 1588 -91 1214 -16 
Q 841 59 441 206 
L 441 856 
Q 825 641 1194 531 
Q 1563 422 1919 422 
Q 2459 422 2753 634 
Q 3047 847 3047 1241 
Q 3047 1584 2836 1778 
Q 2625 1972 2144 2069 
L 1759 2144 
Q 1053 2284 737 2584 
Q 422 2884 422 3419 
Q 422 4038 858 4394 
Q 1294 4750 2059 4750 
Q 2388 4750 2728 4690 
Q 3069 4631 3425 4513 
z
" transform="scale(0.015625)"/>
       <path id="DejaVuSans-69" d="M 603 3500 
L 1178 3500 
L 1178 0 
L 603 0 
L 603 3500 
z
M 603 4863 
L 1178 4863 
L 1178 4134 
L 603 4134 
L 603 4863 
z
" transform="scale(0.015625)"/>
       <path id="DejaVuSans-67" d="M 2906 1791 
Q 2906 2416 2648 2759 
Q 2391 3103 1925 3103 
Q 1463 3103 1205 2759 
Q 947 2416 947 1791 
Q 947 1169 1205 825 
Q 1463 481 1925 481 
Q 2391 481 2648 825 
Q 2906 1169 2906 1791 
z
M 3481 434 
Q 3481 -459 3084 -895 
Q 2688 -1331 1869 -1331 
Q 1566 -1331 1297 -1286 
Q 1028 -1241 775 -1147 
L 775 -588 
Q 1028 -725 1275 -790 
Q 1522 -856 1778 -856 
Q 2344 -856 2625 -561 
Q 2906 -266 2906 331 
L 2906 616 
Q 2728 306 2450 153 
Q 2172 0 1784 0 
Q 1141 0 747 490 
Q 353 981 353 1791 
Q 353 2603 747 3093 
Q 1141 3584 1784 3584 
Q 2172 3584 2450 3431 
Q 2728 3278 2906 2969 
L 2906 3500 
L 3481 3500 
L 3481 434 
z
" transform="scale(0.015625)"/>
       <path id="DejaVuSans-6e" d="M 3513 2113 
L 3513 0 
L 2938 0 
L 2938 2094 
Q 2938 2591 2744 2837 
Q 2550 3084 2163 3084 
Q 1697 3084 1428 2787 
Q 1159 2491 1159 1978 
L 1159 0 
L 581 0 
L 581 3500 
L 1159 3500 
L 1159 2956 
Q 1366 3272 1645 3428 
Q 1925 3584 2291 3584 
Q 2894 3584 3203 3211 
Q 3513 2838 3513 2113 
z
" transform="scale(0.015625)"/>
       <path id="DejaVuSans-61" d="M 2194 1759 
Q 1497 1759 1228 1600 
Q 959 1441 959 1056 
Q 959 750 1161 570 
Q 1363 391 1709 391 
Q 2188 391 2477 730 
Q 2766 1069 2766 1631 
L 2766 1759 
L 2194 1759 
z
M 3341 1997 
L 3341 0 
L 2766 0 
L 2766 531 
Q 2569 213 2275 61 
Q 1981 -91 1556 -91 
Q 1019 -91 701 211 
Q 384 513 384 1019 
Q 384 1609 779 1909 
Q 1175 2209 1959 2209 
L 2766 2209 
L 2766 2266 
Q 2766 2663 2505 2880 
Q 2244 3097 1772 3097 
Q 1472 3097 1187 3025 
Q 903 2953 641 2809 
L 641 3341 
Q 956 3463 1253 3523 
Q 1550 3584 1831 3584 
Q 2591 3584 2966 3190 
Q 3341 2797 3341 1997 
z
" transform="scale(0.015625)"/>
       <path id="DejaVuSans-6c" d="M 603 4863 
L 1178 4863 
L 1178 0 
L 603 0 
L 603 4863 
z
" transform="scale(0.015625)"/>
       <path id="DejaVuSans-20" transform="scale(0.015625)"/>
       <path id="DejaVuSans-78" d="M 3513 3500 
L 2247 1797 
L 3578 0 
L 2900 0 
L 1881 1375 
L 863 0 
L 184 0 
L 1544 1831 
L 300 3500 
L 978 3500 
L 1906 2253 
L 2834 3500 
L 3513 3500 
z
" transform="scale(0.015625)"/>
       <path id="DejaVuSans-28" d="M 1984 4856 
Q 1566 4138 1362 3434 
Q 1159 2731 1159 2009 
Q 1159 1288 1364 580 
Q 1569 -128 1984 -844 
L 1484 -844 
Q 1016 -109 783 600 
Q 550 1309 550 2009 
Q 550 2706 781 3412 
Q 1013 4119 1484 4856 
L 1984 4856 
z
" transform="scale(0.015625)"/>
       <path id="DejaVuSans-Oblique-3bc" d="M -84 -1331 
L 856 3500 
L 1434 3500 
L 1009 1322 
Q 997 1256 987 1175 
Q 978 1094 978 1013 
Q 978 722 1161 565 
Q 1344 409 1684 409 
Q 2147 409 2431 671 
Q 2716 934 2816 1459 
L 3213 3500 
L 3788 3500 
L 3266 809 
Q 3253 750 3248 706 
Q 3244 663 3244 628 
Q 3244 531 3283 486 
Q 3322 441 3406 441 
Q 3438 441 3492 456 
Q 3547 472 3647 513 
L 3559 50 
Q 3422 -19 3297 -55 
Q 3172 -91 3053 -91 
Q 2847 -91 2730 40 
Q 2613 172 2613 403 
Q 2438 153 2195 31 
Q 1953 -91 1625 -91 
Q 1334 -91 1117 43 
Q 900 178 831 397 
L 494 -1331 
L -84 -1331 
z
" transform="scale(0.015625)"/>
       <path id="DejaVuSans-6d" d="M 3328 2828 
Q 3544 3216 3844 3400 
Q 4144 3584 4550 3584 
Q 5097 3584 5394 3201 
Q 5691 2819 5691 2113 
L 5691 0 
L 5113 0 
L 5113 2094 
Q 5113 2597 4934 2840 
Q 4756 3084 4391 3084 
Q 3944 3084 3684 2787 
Q 3425 2491 3425 1978 
L 3425 0 
L 2847 0 
L 2847 2094 
Q 2847 2600 2669 2842 
Q 2491 3084 2119 3084 
Q 1678 3084 1418 2786 
Q 1159 2488 1159 1978 
L 1159 0 
L 581 0 
L 581 3500 
L 1159 3500 
L 1159 2956 
Q 1356 3278 1631 3431 
Q 1906 3584 2284 3584 
Q 2666 3584 2933 3390 
Q 3200 3197 3328 2828 
z
" transform="scale(0.015625)"/>
       <path id="DejaVuSans-29" d="M 513 4856 
L 1013 4856 
Q 1481 4119 1714 3412 
Q 1947 2706 1947 2009 
Q 1947 1309 1714 600 
Q 1481 -109 1013 -844 
L 513 -844 
Q 928 -128 1133 580 
Q 1338 1288 1338 2009 
Q 1338 2731 1133 3434 
Q 928 4138 513 4856 
z
" transform="scale(0.015625)"/>
      </defs>
      <use xlink:href="#DejaVuSans-53" transform="translate(0 0.015625)"/>
      <use xlink:href="#DejaVuSans-69" transform="translate(63.476562 0.015625)"/>
      <use xlink:href="#DejaVuSans-67" transform="translate(91.259766 0.015625)"/>
      <use xlink:href="#DejaVuSans-6e" transform="translate(154.736328 0.015625)"/>
      <use xlink:href="#DejaVuSans-61" transform="translate(218.115234 0.015625)"/>
      <use xlink:href="#DejaVuSans-6c" transform="translate(279.394531 0.015625)"/>
      <use xlink:href="#DejaVuSans-20" transform="translate(307.177734 0.015625)"/>
      <use xlink:href="#DejaVuSans-78" transform="translate(338.964844 0.015625)"/>
      <use xlink:href="#DejaVuSans-20" transform="translate(398.144531 0.015625)"/>
      <use xlink:href="#DejaVuSans-28" transform="translate(429.931641 0.015625)"/>
      <use xlink:href="#DejaVuSans-Oblique-3bc" transform="translate(468.945312 0.015625)"/>
      <use xlink:href="#DejaVuSans-6d" transform="translate(532.568359 0.015625)"/>
      <use xlink:href="#DejaVuSans-29" transform="translate(629.980469 0.015625)"/>
     </g>
    </g>
   </g>
   <g id="matplotlib.axis_2">
    <g id="ytick_1">
     <g id="line2d_13">
      <path d="M 48.08 223.970981 
L 421.2 223.970981 
" clip-path="url(#p67b4bfb09d)" style="fill: none; stroke: #b0b0b0; stroke-opacity: 0.25; stroke-width: 0.8; stroke-linecap: square"/>
     </g>
     <g id="line2d_14">
      <defs>
       <path id="m09dca38e40" d="M 0 0 
L -3.5 0 
" style="stroke: #000000; stroke-width: 0.8"/>
      </defs>
      <g>
       <use xlink:href="#m09dca38e40" x="48.08" y="223.970981" style="stroke: #000000; stroke-width: 0.8"/>
      </g>
     </g>
     <g id="text_8">
      <!-- −2 -->
      <g transform="translate(26.337813 227.7702) scale(0.1 -0.1)">
       <use xlink:href="#DejaVuSans-2212"/>
       <use xlink:href="#DejaVuSans-32" transform="translate(83.789062 0)"/>
      </g>
     </g>
    </g>
    <g id="ytick_2">
     <g id="line2d_15">
      <path d="M 48.08 181.304165 
L 421.2 181.304165 
" clip-path="url(#p67b4bfb09d)" style="fill: none; stroke: #b0b0b0; stroke-opacity: 0.25; stroke-width: 0.8; stroke-linecap: square"/>
     </g>
     <g id="line2d_16">
      <g>
       <use xlink:href="#m09dca38e40" x="48.08" y="181.304165" style="stroke: #000000; stroke-width: 0.8"/>
      </g>
     </g>
     <g id="text_9">
      <!-- −1 -->
      <g transform="translate(26.337813 185.103384) scale(0.1 -0.1)">
       <use xlink:href="#DejaVuSans-2212"/>
       <use xlink:href="#DejaVuSans-31" transform="translate(83.789062 0)"/>
      </g>
     </g>
    </g>
    <g id="ytick_3">
     <g id="line2d_17">
      <path d="M 48.08 138.63735 
L 421.2 138.63735 
" clip-path="url(#p67b4bfb09d)" style="fill: none; stroke: #b0b0b0; stroke-opacity: 0.25; stroke-width: 0.8; stroke-linecap: square"/>
     </g>
     <g id="line2d_18">
      <g>
       <use xlink:href="#m09dca38e40" x="48.08" y="138.63735" style="stroke: #000000; stroke-width: 0.8"/>
      </g>
     </g>
     <g id="text_10">
      <!-- 0 -->
      <g transform="translate(34.7175 142.436568) scale(0.1 -0.1)">
       <use xlink:href="#DejaVuSans-30"/>
      </g>
     </g>
    </g>
    <g id="ytick_4">
     <g id="line2d_19">
      <path d="M 48.08 95.970534 
L 421.2 95.970534 
" clip-path="url(#p67b4bfb09d)" style="fill: none; stroke: #b0b0b0; stroke-opacity: 0.25; stroke-width: 0.8; stroke-linecap: square"/>
     </g>
     <g id="line2d_20">
      <g>
       <use xlink:href="#m09dca38e40" x="48.08" y="95.970534" style="stroke: #000000; stroke-width: 0.8"/>
      </g>
     </g>
     <g id="text_11">
      <!-- 1 -->
      <g transform="translate(34.7175 99.769752) scale(0.1 -0.1)">
       <use xlink:href="#DejaVuSans-31"/>
      </g>
     </g>
    </g>
    <g id="ytick_5">
     <g id="line2d_21">
      <path d="M 48.08 53.303718 
L 421.2 53.303718 
" clip-path="url(#p67b4bfb09d)" style="fill: none; stroke: #b0b0b0; stroke-opacity: 0.25; stroke-width: 0.8; stroke-linecap: square"/>
     </g>
     <g id="line2d_22">
      <g>
       <use xlink:href="#m09dca38e40" x="48.08" y="53.303718" style="stroke: #000000; stroke-width: 0.8"/>
      </g>
     </g>
     <g id="text_12">
      <!-- 2 -->
      <g transform="translate(34.7175 57.102936) scale(0.1 -0.1)">
       <use xlink:href="#DejaVuSans-32"/>
      </g>
     </g>
    </g>
    <g id="text_13">
     <!-- Signal y ($\mu\mathrm{m}$) -->
     <g transform="translate(20.237813 168.95) rotate(-90) scale(0.1 -0.1)">
      <defs>
       <path id="DejaVuSans-79" d="M 2059 -325 
Q 1816 -950 1584 -1140 
Q 1353 -1331 966 -1331 
L 506 -1331 
L 506 -850 
L 844 -850 
Q 1081 -850 1212 -737 
Q 1344 -625 1503 -206 
L 1606 56 
L 191 3500 
L 800 3500 
L 1894 763 
L 2988 3500 
L 3597 3500 
L 2059 -325 
z
" transform="scale(0.015625)"/>
      </defs>
      <use xlink:href="#DejaVuSans-53" transform="translate(0 0.015625)"/>
      <use xlink:href="#DejaVuSans-69" transform="translate(63.476562 0.015625)"/>
      <use xlink:href="#DejaVuSans-67" transform="translate(91.259766 0.015625)"/>
      <use xlink:href="#DejaVuSans-6e" transform="translate(154.736328 0.015625)"/>
      <use xlink:href="#DejaVuSans-61" transform="translate(218.115234 0.015625)"/>
      <use xlink:href="#DejaVuSans-6c" transform="translate(279.394531 0.015625)"/>
      <use xlink:href="#DejaVuSans-20" transform="translate(307.177734 0.015625)"/>
      <use xlink:href="#DejaVuSans-79" transform="translate(338.964844 0.015625)"/>
      <use xlink:href="#DejaVuSans-20" transform="translate(398.144531 0.015625)"/>
      <use xlink:href="#DejaVuSans-28" transform="translate(429.931641 0.015625)"/>
      <use xlink:href="#DejaVuSans-Oblique-3bc" transform="translate(468.945312 0.015625)"/>
      <use xlink:href="#DejaVuSans-6d" transform="translate(532.568359 0.015625)"/>
      <use xlink:href="#DejaVuSans-29" transform="translate(629.980469 0.015625)"/>
     </g>
    </g>
   </g>
   <g id="patch_3">
    <path d="M 48.08 245.08 
L 48.08 25.92 
" style="fill: none; stroke: #000000; stroke-width: 0.8; stroke-linejoin: miter; stroke-linecap: square"/>
   </g>
   <g id="patch_4">
    <path d="M 421.2 245.08 
L 421.2 25.92 
" style="fill: none; stroke: #000000; stroke-width: 0.8; stroke-linejoin: miter; stroke-linecap: square"/>
   </g>
   <g id="patch_5">
    <path d="M 48.08 245.08 
L 421.2 245.08 
" style="fill: none; stroke: #000000; stroke-width: 0.8; stroke-linejoin: miter; stroke-linecap: square"/>
   </g>
   <g id="patch_6">
    <path d="M 48.08 25.92 
L 421.2 25.92 
" style="fill: none; stroke: #000000; stroke-width: 0.8; stroke-linejoin: miter; stroke-linecap: square"/>
   </g>
   <g id="text_14">
    <!-- Signal scatter -->
    <g transform="translate(193.3375 19.92) scale(0.12 -0.12)">
     <defs>
      <path id="DejaVuSans-73" d="M 2834 3397 
L 2834 2853 
Q 2591 2978 2328 3040 
Q 2066 3103 1784 3103 
Q 1356 3103 1142 2972 
Q 928 2841 928 2578 
Q 928 2378 1081 2264 
Q 1234 2150 1697 2047 
L 1894 2003 
Q 2506 1872 2764 1633 
Q 3022 1394 3022 966 
Q 3022 478 2636 193 
Q 2250 -91 1575 -91 
Q 1294 -91 989 -36 
Q 684 19 347 128 
L 347 722 
Q 666 556 975 473 
Q 1284 391 1588 391 
Q 1994 391 2212 530 
Q 2431 669 2431 922 
Q 2431 1156 2273 1281 
Q 2116 1406 1581 1522 
L 1381 1569 
Q 847 1681 609 1914 
Q 372 2147 372 2553 
Q 372 3047 722 3315 
Q 1072 3584 1716 3584 
Q 2034 3584 2315 3537 
Q 2597 3491 2834 3397 
z
" transform="scale(0.015625)"/>
      <path id="DejaVuSans-63" d="M 3122 3366 
L 3122 2828 
Q 2878 2963 2633 3030 
Q 2388 3097 2138 3097 
Q 1578 3097 1268 2742 
Q 959 2388 959 1747 
Q 959 1106 1268 751 
Q 1578 397 2138 397 
Q 2388 397 2633 464 
Q 2878 531 3122 666 
L 3122 134 
Q 2881 22 2623 -34 
Q 2366 -91 2075 -91 
Q 1284 -91 818 406 
Q 353 903 353 1747 
Q 353 2603 823 3093 
Q 1294 3584 2113 3584 
Q 2378 3584 2631 3529 
Q 2884 3475 3122 3366 
z
" transform="scale(0.015625)"/>
      <path id="DejaVuSans-74" d="M 1172 4494 
L 1172 3500 
L 2356 3500 
L 2356 3053 
L 1172 3053 
L 1172 1153 
Q 1172 725 1289 603 
Q 1406 481 1766 481 
L 2356 481 
L 2356 0 
L 1766 0 
Q 1100 0 847 248 
Q 594 497 594 1153 
L 594 3053 
L 172 3053 
L 172 3500 
L 594 3500 
L 594 4494 
L 1172 4494 
z
" transform="scale(0.015625)"/>
      <path id="DejaVuSans-65" d="M 3597 1894 
L 3597 1613 
L 953 1613 
Q 991 1019 1311 708 
Q 1631 397 2203 397 
Q 2534 397 2845 478 
Q 3156 559 3463 722 
L 3463 178 
Q 3153 47 2828 -22 
Q 2503 -91 2169 -91 
Q 1331 -91 842 396 
Q 353 884 353 1716 
Q 353 2575 817 3079 
Q 1281 3584 2069 3584 
Q 2775 3584 3186 3129 
Q 3597 2675 3597 1894 
z
M 3022 2063 
Q 3016 2534 2758 2815 
Q 2500 3097 2075 3097 
Q 1594 3097 1305 2825 
Q 1016 2553 972 2059 
L 3022 2063 
z
" transform="scale(0.015625)"/>
      <path id="DejaVuSans-72" d="M 2631 2963 
Q 2534 3019 2420 3045 
Q 2306 3072 2169 3072 
Q 1681 3072 1420 2755 
Q 1159 2438 1159 1844 
L 1159 0 
L 581 0 
L 581 3500 
L 1159 3500 
L 1159 2956 
Q 1341 3275 1631 3429 
Q 1922 3584 2338 3584 
Q 2397 3584 2469 3576 
Q 2541 3569 2628 3553 
L 2631 2963 
z
" transform="scale(0.015625)"/>
     </defs>
     <use xlink:href="#DejaVuSans-53"/>
     <use xlink:href="#DejaVuSans-69" transform="translate(63.476562 0)"/>
     <use xlink:href="#DejaVuSans-67" transform="translate(91.259766 0)"/>
     <use xlink:href="#DejaVuSans-6e" transform="translate(154.736328 0)"/>
     <use xlink:href="#DejaVuSans-61" transform="translate(218.115234 0)"/>
     <use xlink:href="#DejaVuSans-6c" transform="translate(279.394531 0)"/>
     <use xlink:href="#DejaVuSans-20" transform="translate(307.177734 0)"/>
     <use xlink:href="#DejaVuSans-73" transform="translate(338.964844 0)"/>
     <use xlink:href="#DejaVuSans-63" transform="translate(391.064453 0)"/>
     <use xlink:href="#DejaVuSans-61" transform="translate(446.044922 0)"/>
     <use xlink:href="#DejaVuSans-74" transform="translate(507.324219 0)"/>
     <use xlink:href="#DejaVuSans-74" transform="translate(546.533203 0)"/>
     <use xlink:href="#DejaVuSans-65" transform="translate(585.742188 0)"/>
     <use xlink:href="#DejaVuSans-72" transform="translate(647.265625 0)"/>
    </g>
   </g>
  </g>
 </g>
 <defs>
  <clipPath id="p67b4bfb09d">
   <rect x="48.08" y="25.92" width="373.12" height="219.16"/>
  </clipPath>
 </defs>
</svg>
