<?xml version="1.0" encoding="utf-8" standalone="no"?>
<!DOCTYPE svg PUBLIC "-//W3C//DTD SVG 1.1//EN"
  "http://www.w3.org/Graphics/SVG/1.1/DTD/svg11.dtd">
<svg xmlns:xlink="http://www.w3.org/1999/xlink" width="504pt" height="374.4pt" viewBox="0 0 504 374.4" xmlns="http://www.w3.org/2000/svg" version="1.1">
 <metadata>
  <rdf:RDF xmlns:dc="http://purl.org/dc/elements/1.1/" xmlns:cc="http://creativecommons.org/ns#" xmlns:rdf="http://www.w3.org/1999/02/22-rdf-syntax-ns#">
   <cc:Work>
    <dc:type rdf:resource="http://purl.org/dc/dcmitype/StillImage"/>
    <dc:date>2026-05-05T12:23:58.368050</dc:date>
    <dc:format>image/svg+xml</dc:format>
    <dc:creator>
     <cc:Agent>
      <dc:title>Matplotlib v3.10.9, https://matplotlib.org/</dc:title>
     </cc:Agent>
    </dc:creator>
   </cc:Work>
  </rdf:RDF>
 </metadata>
 <defs>
  <style type="text/css">*{stroke-linejoin: round; stroke-linecap: butt}</style>
 </defs>
 <g id="figure_1">
  <g id="patch_1">
   <path d="M 0 374.4 
L 504 374.4 
L 504 0 
L 0 0 
z
" style="fill: #ffffff"/>
  </g>
  <g id="axes_1">
   <g id="patch_2">
    <path d="M 60.02 172.51 
L 493.2 172.51 
L 493.2 25.92 
L 60.02 25.92 
z
" style="fill: #ffffff"/>
   </g>
   <g id="matplotlib.axis_1">
    <g id="xtick_1">
     <g id="line2d_1">
      <path d="M 80.608341 172.51 
L 80.608341 25.92 
" clip-path="url(#p0585d821ff)" style="fill: none; stroke: #b0b0b0; stroke-opacity: 0.25; stroke-width: 0.8; stroke-linecap: square"/>
     </g>
     <g id="line2d_2">
      <defs>
       <path id="m35c93cd32a" d="M 0 0 
L 0 3.5 
" style="stroke: #000000; stroke-width: 0.8"/>
      </defs>
      <g>
       <use xlink:href="#m35c93cd32a" x="80.608341" y="172.51" style="stroke: #000000; stroke-width: 0.8"/>
      </g>
     </g>
    </g>
    <g id="xtick_2">
     <g id="line2d_3">
      <path d="M 145.942227 172.51 
L 145.942227 25.92 
" clip-path="url(#p0585d821ff)" style="fill: none; stroke: #b0b0b0; stroke-opacity: 0.25; stroke-width: 0.8; stroke-linecap: square"/>
     </g>
     <g id="line2d_4">
      <g>
       <use xlink:href="#m35c93cd32a" x="145.942227" y="172.51" style="stroke: #000000; stroke-width: 0.8"/>
      </g>
     </g>
    </g>
    <g id="xtick_3">
     <g id="line2d_5">
      <path d="M 211.276114 172.51 
L 211.276114 25.92 
" clip-path="url(#p0585d821ff)" style="fill: none; stroke: #b0b0b0; stroke-opacity: 0.25; stroke-width: 0.8; stroke-linecap: square"/>
     </g>
     <g id="line2d_6">
      <g>
       <use xlink:href="#m35c93cd32a" x="211.276114" y="172.51" style="stroke: #000000; stroke-width: 0.8"/>
      </g>
     </g>
    </g>
    <g id="xtick_4">
     <g id="line2d_7">
      <path d="M 276.61 172.51 
L 276.61 25.92 
" clip-path="url(#p0585d821ff)" style="fill: none; stroke: #b0b0b0; stroke-opacity: 0.25; stroke-width: 0.8; stroke-linecap: square"/>
     </g>
     <g id="line2d_8">
      <g>
       <use xlink:href="#m35c93cd32a" x="276.61" y="172.51" style="stroke: #000000; stroke-width: 0.8"/>
      </g>
     </g>
    </g>
    <g id="xtick_5">
     <g id="line2d_9">
      <path d="M 341.943886 172.51 
L 341.943886 25.92 
" clip-path="url(#p0585d821ff)" style="fill: none; stroke: #b0b0b0; stroke-opacity: 0.25; stroke-width: 0.8; stroke-linecap: square"/>
     </g>
     <g id="line2d_10">
      <g>
       <use xlink:href="#m35c93cd32a" x="341.943886" y="172.51" style="stroke: #000000; stroke-width: 0.8"/>
      </g>
     </g>
    </g>
    <g id="xtick_6">
     <g id="line2d_11">
      <path d="M 407.277773 172.51 
L 407.277773 25.92 
" clip-path="url(#p0585d821ff)" style="fill: none; stroke: #b0b0b0; stroke-opacity: 0.25; stroke-width: 0.8; stroke-linecap: square"/>
     </g>
     <g id="line2d_12">
      <g>
       <use xlink:href="#m35c93cd32a" x="407.277773" y="172.51" style="stroke: #000000; stroke-width: 0.8"/>
      </g>
     </g>
    </g>
    <g id="xtick_7">
     <g id="line2d_13">
      <path d="M 472.611659 172.51 
L 472.611659 25.92 
" clip-path="url(#p0585d821ff)" style="fill: none; stroke: #b0b0b0; stroke-opacity: 0.25; stroke-width: 0.8; stroke-linecap: square"/>
     </g>
     <g id="line2d_14">
      <g>
       <use xlink:href="#m35c93cd32a" x="472.611659" y="172.51" style="stroke: #000000; stroke-width: 0.8"/>
      </g>
     </g>
    </g>
   </g>
   <g id="matplotlib.axis_2">
    <g id="ytick_1">
     <g id="line2d_15">
      <path d="M 60.02 156.409028 
L 493.2 156.409028 
" clip-path="url(#p0585d821ff)" style="fill: none; stroke: #b0b0b0; stroke-opacity: 0.25; stroke-width: 0.8; stroke-linecap: square"/>
     </g>
     <g id="line2d_16">
      <defs>
       <path id="m234d8a58c1" d="M 0 0 
L -3.5 0 
" style="stroke: #000000; stroke-width: 0.8"/>
      </defs>
      <g>
       <use xlink:href="#m234d8a58c1" x="60.02" y="156.409028" style="stroke: #000000; stroke-width: 0.8"/>
      </g>
     </g>
     <g id="text_1">
      <!-- −0.50 -->
      <g transform="translate(22.374688 160.208247) scale(0.1 -0.1)">
       <defs>
        <path id="DejaVuSans-2212" d="M 678 2272 
L 4684 2272 
L 4684 1741 
L 678 1741 
L 678 2272 
z
" transform="scale(0.015625)"/>
        <path id="DejaVuSans-30" d="M 2034 4250 
Q 1547 4250 1301 3770 
Q 1056 3291 1056 2328 
Q 1056 1369 1301 889 
Q 1547 409 2034 409 
Q 2525 409 2770 889 
Q 3016 1369 3016 2328 
Q 3016 3291 2770 3770 
Q 2525 4250 2034 4250 
z
M 2034 4750 
Q 2819 4750 3233 4129 
Q 3647 3509 3647 2328 
Q 3647 1150 3233 529 
Q 2819 -91 2034 -91 
Q 1250 -91 836 529 
Q 422 1150 422 2328 
Q 422 3509 836 4129 
Q 1250 4750 2034 4750 
z
" transform="scale(0.015625)"/>
        <path id="DejaVuSans-2e" d="M 684 794 
L 1344 794 
L 1344 0 
L 684 0 
L 684 794 
z
" transform="scale(0.015625)"/>
        <path id="DejaVuSans-35" d="M 691 4666 
L 3169 4666 
L 3169 4134 
L 1269 4134 
L 1269 2991 
Q 1406 3038 1543 3061 
Q 1681 3084 1819 3084 
Q 2600 3084 3056 2656 
Q 3513 2228 3513 1497 
Q 3513 744 3044 326 
Q 2575 -91 1722 -91 
Q 1428 -91 1123 -41 
Q 819 9 494 109 
L 494 744 
Q 775 591 1075 516 
Q 1375 441 1709 441 
Q 2250 441 2565 725 
Q 2881 1009 2881 1497 
Q 2881 1984 2565 2268 
Q 2250 2553 1709 2553 
Q 1456 2553 1204 2497 
Q 953 2441 691 2322 
L 691 4666 
z
" transform="scale(0.015625)"/>
       </defs>
       <use xlink:href="#DejaVuSans-2212"/>
       <use xlink:href="#DejaVuSans-30" transform="translate(83.789062 0)"/>
       <use xlink:href="#DejaVuSans-2e" transform="translate(147.412109 0)"/>
       <use xlink:href="#DejaVuSans-35" transform="translate(179.199219 0)"/>
       <use xlink:href="#DejaVuSans-30" transform="translate(242.822266 0)"/>
      </g>
     </g>
    </g>
    <g id="ytick_2">
     <g id="line2d_17">
      <path d="M 60.02 134.04803 
L 493.2 134.04803 
" clip-path="url(#p0585d821ff)" style="fill: none; stroke: #b0b0b0; stroke-opacity: 0.25; stroke-width: 0.8; stroke-linecap: square"/>
     </g>
     <g id="line2d_18">
      <g>
       <use xlink:href="#m234d8a58c1" x="60.02" y="134.04803" style="stroke: #000000; stroke-width: 0.8"/>
      </g>
     </g>
     <g id="text_2">
      <!-- −0.25 -->
      <g transform="translate(22.374688 137.847249) scale(0.1 -0.1)">
       <defs>
        <path id="DejaVuSans-32" d="M 1228 531 
L 3431 531 
L 3431 0 
L 469 0 
L 469 531 
Q 828 903 1448 1529 
Q 2069 2156 2228 2338 
Q 2531 2678 2651 2914 
Q 2772 3150 2772 3378 
Q 2772 3750 2511 3984 
Q 2250 4219 1831 4219 
Q 1534 4219 1204 4116 
Q 875 4013 500 3803 
L 500 4441 
Q 881 4594 1212 4672 
Q 1544 4750 1819 4750 
Q 2544 4750 2975 4387 
Q 3406 4025 3406 3419 
Q 3406 3131 3298 2873 
Q 3191 2616 2906 2266 
Q 2828 2175 2409 1742 
Q 1991 1309 1228 531 
z
" transform="scale(0.015625)"/>
       </defs>
       <use xlink:href="#DejaVuSans-2212"/>
       <use xlink:href="#DejaVuSans-30" transform="translate(83.789062 0)"/>
       <use xlink:href="#DejaVuSans-2e" transform="translate(147.412109 0)"/>
       <use xlink:href="#DejaVuSans-32" transform="translate(179.199219 0)"/>
       <use xlink:href="#DejaVuSans-35" transform="translate(242.822266 0)"/>
      </g>
     </g>
    </g>
    <g id="ytick_3">
     <g id="line2d_19">
      <path d="M 60.02 111.687032 
L 493.2 111.687032 
" clip-path="url(#p0585d821ff)" style="fill: none; stroke: #b0b0b0; stroke-opacity: 0.25; stroke-width: 0.8; stroke-linecap: square"/>
     </g>
     <g id="line2d_20">
      <g>
       <use xlink:href="#m234d8a58c1" x="60.02" y="111.687032" style="stroke: #000000; stroke-width: 0.8"/>
      </g>
     </g>
     <g id="text_3">
      <!-- 0.00 -->
      <g transform="translate(30.754375 115.486251) scale(0.1 -0.1)">
       <use xlink:href="#DejaVuSans-30"/>
       <use xlink:href="#DejaVuSans-2e" transform="translate(63.623047 0)"/>
       <use xlink:href="#DejaVuSans-30" transform="translate(95.410156 0)"/>
       <use xlink:href="#DejaVuSans-30" transform="translate(159.033203 0)"/>
      </g>
     </g>
    </g>
    <g id="ytick_4">
     <g id="line2d_21">
      <path d="M 60.02 89.326034 
L 493.2 89.326034 
" clip-path="url(#p0585d821ff)" style="fill: none; stroke: #b0b0b0; stroke-opacity: 0.25; stroke-width: 0.8; stroke-linecap: square"/>
     </g>
     <g id="line2d_22">
      <g>
       <use xlink:href="#m234d8a58c1" x="60.02" y="89.326034" style="stroke: #000000; stroke-width: 0.8"/>
      </g>
     </g>
     <g id="text_4">
      <!-- 0.25 -->
      <g transform="translate(30.754375 93.125253) scale(0.1 -0.1)">
       <use xlink:href="#DejaVuSans-30"/>
       <use xlink:href="#DejaVuSans-2e" transform="translate(63.623047 0)"/>
       <use xlink:href="#DejaVuSans-32" transform="translate(95.410156 0)"/>
       <use xlink:href="#DejaVuSans-35" transform="translate(159.033203 0)"/>
      </g>
     </g>
    </g>
    <g id="ytick_5">
     <g id="line2d_23">
      <path d="M 60.02 66.965036 
L 493.2 66.965036 
" clip-path="url(#p0585d821ff)" style="fill: none; stroke: #b0b0b0; stroke-opacity: 0.25; stroke-width: 0.8; stroke-linecap: square"/>
     </g>
     <g id="line2d_24">
      <g>
       <use xlink:href="#m234d8a58c1" x="60.02" y="66.965036" style="stroke: #000000; stroke-width: 0.8"/>
      </g>
     </g>
     <g id="text_5">
      <!-- 0.50 -->
      <g transform="translate(30.754375 70.764255) scale(0.1 -0.1)">
       <use xlink:href="#DejaVuSans-30"/>
       <use xlink:href="#DejaVuSans-2e" transform="translate(63.623047 0)"/>
       <use xlink:href="#DejaVuSans-35" transform="translate(95.410156 0)"/>
       <use xlink:href="#DejaVuSans-30" transform="translate(159.033203 0)"/>
      </g>
     </g>
    </g>
    <g id="ytick_6">
     <g id="line2d_25">
      <path d="M 60.02 44.604038 
L 493.2 44.604038 
" clip-path="url(#p0585d821ff)" style="fill: none; stroke: #b0b0b0; stroke-opacity: 0.25; stroke-width: 0.8; stroke-linecap: square"/>
     </g>
     <g id="line2d_26">
      <g>
       <use xlink:href="#m234d8a58c1" x="60.02" y="44.604038" style="stroke: #000000; stroke-width: 0.8"/>
      </g>
     </g>
     <g id="text_6">
      <!-- 0.75 -->
      <g transform="translate(30.754375 48.403257) scale(0.1 -0.1)">
       <defs>
        <path id="DejaVuSans-37" d="M 525 4666 
L 3525 4666 
L 3525 4397 
L 1831 0 
L 1172 0 
L 2766 4134 
L 525 4134 
L 525 4666 
z
" transform="scale(0.015625)"/>
       </defs>
       <use xlink:href="#DejaVuSans-30"/>
       <use xlink:href="#DejaVuSans-2e" transform="translate(63.623047 0)"/>
       <use xlink:href="#DejaVuSans-37" transform="translate(95.410156 0)"/>
       <use xlink:href="#DejaVuSans-35" transform="translate(159.033203 0)"/>
      </g>
     </g>
    </g>
    <g id="text_7">
     <!-- Response (a.u.) -->
     <g transform="translate(16.295 138.130625) rotate(-90) scale(0.1 -0.1)">
      <defs>
       <path id="DejaVuSans-52" d="M 2841 2188 
Q 3044 2119 3236 1894 
Q 3428 1669 3622 1275 
L 4263 0 
L 3584 0 
L 2988 1197 
Q 2756 1666 2539 1819 
Q 2322 1972 1947 1972 
L 1259 1972 
L 1259 0 
L 628 0 
L 628 4666 
L 2053 4666 
Q 2853 4666 3247 4331 
Q 3641 3997 3641 3322 
Q 3641 2881 3436 2590 
Q 3231 2300 2841 2188 
z
M 1259 4147 
L 1259 2491 
L 2053 2491 
Q 2509 2491 2742 2702 
Q 2975 2913 2975 3322 
Q 2975 3731 2742 3939 
Q 2509 4147 2053 4147 
L 1259 4147 
z
" transform="scale(0.015625)"/>
       <path id="DejaVuSans-65" d="M 3597 1894 
L 3597 1613 
L 953 1613 
Q 991 1019 1311 708 
Q 1631 397 2203 397 
Q 2534 397 2845 478 
Q 3156 559 3463 722 
L 3463 178 
Q 3153 47 2828 -22 
Q 2503 -91 2169 -91 
Q 1331 -91 842 396 
Q 353 884 353 1716 
Q 353 2575 817 3079 
Q 1281 3584 2069 3584 
Q 2775 3584 3186 3129 
Q 3597 2675 3597 1894 
z
M 3022 2063 
Q 3016 2534 2758 2815 
Q 2500 3097 2075 3097 
Q 1594 3097 1305 2825 
Q 1016 2553 972 2059 
L 3022 2063 
z
" transform="scale(0.015625)"/>
       <path id="DejaVuSans-73" d="M 2834 3397 
L 2834 2853 
Q 2591 2978 2328 3040 
Q 2066 3103 1784 3103 
Q 1356 3103 1142 2972 
Q 928 2841 928 2578 
Q 928 2378 1081 2264 
Q 1234 2150 1697 2047 
L 1894 2003 
Q 2506 1872 2764 1633 
Q 3022 1394 3022 966 
Q 3022 478 2636 193 
Q 2250 -91 1575 -91 
Q 1294 -91 989 -36 
Q 684 19 347 128 
L 347 722 
Q 666 556 975 473 
Q 1284 391 1588 391 
Q 1994 391 2212 530 
Q 2431 669 2431 922 
Q 2431 1156 2273 1281 
Q 2116 1406 1581 1522 
L 1381 1569 
Q 847 1681 609 1914 
Q 372 2147 372 2553 
Q 372 3047 722 3315 
Q 1072 3584 1716 3584 
Q 2034 3584 2315 3537 
Q 2597 3491 2834 3397 
z
" transform="scale(0.015625)"/>
       <path id="DejaVuSans-70" d="M 1159 525 
L 1159 -1331 
L 581 -1331 
L 581 3500 
L 1159 3500 
L 1159 2969 
Q 1341 3281 1617 3432 
Q 1894 3584 2278 3584 
Q 2916 3584 3314 3078 
Q 3713 2572 3713 1747 
Q 3713 922 3314 415 
Q 2916 -91 2278 -91 
Q 1894 -91 1617 61 
Q 1341 213 1159 525 
z
M 3116 1747 
Q 3116 2381 2855 2742 
Q 2594 3103 2138 3103 
Q 1681 3103 1420 2742 
Q 1159 2381 1159 1747 
Q 1159 1113 1420 752 
Q 1681 391 2138 391 
Q 2594 391 2855 752 
Q 3116 1113 3116 1747 
z
" transform="scale(0.015625)"/>
       <path id="DejaVuSans-6f" d="M 1959 3097 
Q 1497 3097 1228 2736 
Q 959 2375 959 1747 
Q 959 1119 1226 758 
Q 1494 397 1959 397 
Q 2419 397 2687 759 
Q 2956 1122 2956 1747 
Q 2956 2369 2687 2733 
Q 2419 3097 1959 3097 
z
M 1959 3584 
Q 2709 3584 3137 3096 
Q 3566 2609 3566 1747 
Q 3566 888 3137 398 
Q 2709 -91 1959 -91 
Q 1206 -91 779 398 
Q 353 888 353 1747 
Q 353 2609 779 3096 
Q 1206 3584 1959 3584 
z
" transform="scale(0.015625)"/>
       <path id="DejaVuSans-6e" d="M 3513 2113 
L 3513 0 
L 2938 0 
L 2938 2094 
Q 2938 2591 2744 2837 
Q 2550 3084 2163 3084 
Q 1697 3084 1428 2787 
Q 1159 2491 1159 1978 
L 1159 0 
L 581 0 
L 581 3500 
L 1159 3500 
L 1159 2956 
Q 1366 3272 1645 3428 
Q 1925 3584 2291 3584 
Q 2894 3584 3203 3211 
Q 3513 2838 3513 2113 
z
" transform="scale(0.015625)"/>
       <path id="DejaVuSans-20" transform="scale(0.015625)"/>
       <path id="DejaVuSans-28" d="M 1984 4856 
Q 1566 4138 1362 3434 
Q 1159 2731 1159 2009 
Q 1159 1288 1364 580 
Q 1569 -128 1984 -844 
L 1484 -844 
Q 1016 -109 783 600 
Q 550 1309 550 2009 
Q 550 2706 781 3412 
Q 1013 4119 1484 4856 
L 1984 4856 
z
" transform="scale(0.015625)"/>
       <path id="DejaVuSans-61" d="M 2194 1759 
Q 1497 1759 1228 1600 
Q 959 1441 959 1056 
Q 959 750 1161 570 
Q 1363 391 1709 391 
Q 2188 391 2477 730 
Q 2766 1069 2766 1631 
L 2766 1759 
L 2194 1759 
z
M 3341 1997 
L 3341 0 
L 2766 0 
L 2766 531 
Q 2569 213 2275 61 
Q 1981 -91 1556 -91 
Q 1019 -91 701 211 
Q 384 513 384 1019 
Q 384 1609 779 1909 
Q 1175 2209 1959 2209 
L 2766 2209 
L 2766 2266 
Q 2766 2663 2505 2880 
Q 2244 3097 1772 3097 
Q 1472 3097 1187 3025 
Q 903 2953 641 2809 
L 641 3341 
Q 956 3463 1253 3523 
Q 1550 3584 1831 3584 
Q 2591 3584 2966 3190 
Q 3341 2797 3341 1997 
z
" transform="scale(0.015625)"/>
       <path id="DejaVuSans-75" d="M 544 1381 
L 544 3500 
L 1119 3500 
L 1119 1403 
Q 1119 906 1312 657 
Q 1506 409 1894 409 
Q 2359 409 2629 706 
Q 2900 1003 2900 1516 
L 2900 3500 
L 3475 3500 
L 3475 0 
L 2900 0 
L 2900 538 
Q 2691 219 2414 64 
Q 2138 -91 1772 -91 
Q 1169 -91 856 284 
Q 544 659 544 1381 
z
M 1991 3584 
L 1991 3584 
z
" transform="scale(0.015625)"/>
       <path id="DejaVuSans-29" d="M 513 4856 
L 1013 4856 
Q 1481 4119 1714 3412 
Q 1947 2706 1947 2009 
Q 1947 1309 1714 600 
Q 1481 -109 1013 -844 
L 513 -844 
Q 928 -128 1133 580 
Q 1338 1288 1338 2009 
Q 1338 2731 1133 3434 
Q 928 4138 513 4856 
z
" transform="scale(0.015625)"/>
      </defs>
      <use xlink:href="#DejaVuSans-52"/>
      <use xlink:href="#DejaVuSans-65" transform="translate(64.982422 0)"/>
      <use xlink:href="#DejaVuSans-73" transform="translate(126.505859 0)"/>
      <use xlink:href="#DejaVuSans-70" transform="translate(178.605469 0)"/>
      <use xlink:href="#DejaVuSans-6f" transform="translate(242.082031 0)"/>
      <use xlink:href="#DejaVuSans-6e" transform="translate(303.263672 0)"/>
      <use xlink:href="#DejaVuSans-73" transform="translate(366.642578 0)"/>
      <use xlink:href="#DejaVuSans-65" transform="translate(418.742188 0)"/>
      <use xlink:href="#DejaVuSans-20" transform="translate(480.265625 0)"/>
      <use xlink:href="#DejaVuSans-28" transform="translate(512.052734 0)"/>
      <use xlink:href="#DejaVuSans-61" transform="translate(551.066406 0)"/>
      <use xlink:href="#DejaVuSans-2e" transform="translate(612.345703 0)"/>
      <use xlink:href="#DejaVuSans-75" transform="translate(644.132812 0)"/>
      <use xlink:href="#DejaVuSans-2e" transform="translate(707.511719 0)"/>
      <use xlink:href="#DejaVuSans-29" transform="translate(739.298828 0)"/>
     </g>
    </g>
   </g>
   <g id="line2d_27">
    <path d="M 80.608341 112.759204 
L 83.073771 102.075419 
L 85.5392 89.37932 
L 88.00463 88.578789 
L 90.47006 75.560056 
L 92.935489 57.856066 
L 95.400919 60.054979 
L 97.866349 52.759486 
L 100.331778 52.785156 
L 102.797208 40.6277 
L 105.262638 34.906707 
L 107.728067 33.572836 
L 110.193497 32.583182 
L 112.658927 32.954955 
L 115.124356 45.865273 
L 117.589786 39.444204 
L 120.055216 51.693129 
L 122.520645 56.517329 
L 124.986075 56.883612 
L 127.451505 64.574624 
L 129.916934 67.083094 
L 137.313223 92.729823 
L 139.778653 90.594314 
L 142.244083 97.483423 
L 144.709512 108.479279 
L 147.174942 117.255639 
L 149.640372 129.962269 
L 152.105801 129.25382 
L 154.571231 135.505698 
L 157.036661 143.318804 
L 159.50209 145.347256 
L 161.96752 155.71508 
L 164.43295 157.556826 
L 166.89838 155.629045 
L 169.363809 161.940487 
L 171.829239 154.121513 
L 174.294669 162.199521 
L 176.760098 163.111256 
L 179.225528 165.846818 
L 181.690958 156.673187 
L 184.156387 161.749011 
L 186.621817 155.246242 
L 189.087247 144.32252 
L 191.552676 136.451911 
L 194.018106 152.599432 
L 196.483536 133.688691 
L 198.948965 132.154809 
L 201.414395 128.154643 
L 203.879825 121.994815 
L 206.345254 124.418778 
L 208.810684 116.425138 
L 211.276114 105.781438 
L 213.741543 111.069852 
L 216.206973 96.844552 
L 218.672403 85.285612 
L 221.137832 92.113047 
L 223.603262 86.819885 
L 226.068692 81.147218 
L 228.534121 80.684148 
L 230.999551 83.787455 
L 233.464981 74.7374 
L 235.93041 79.055079 
L 238.39584 75.504114 
L 240.86127 81.647646 
L 243.326699 79.299143 
L 245.792129 85.150868 
L 248.257559 82.635282 
L 250.722988 87.051625 
L 253.188418 79.327255 
L 255.653848 91.511853 
L 258.119277 89.957733 
L 260.584707 93.858744 
L 263.050137 95.788336 
L 265.515566 100.602307 
L 267.980996 111.276023 
L 270.446426 108.65303 
L 272.911855 114.074652 
L 275.377285 117.185293 
L 277.842715 112.498908 
L 280.308145 121.607788 
L 282.773574 115.561654 
L 285.239004 133.44667 
L 287.704434 126.942873 
L 290.169863 129.396115 
L 292.635293 131.331615 
L 295.100723 131.767247 
L 297.566152 128.107459 
L 300.031582 133.585487 
L 302.497012 137.043498 
L 304.962441 139.466181 
L 307.427871 138.320401 
L 309.893301 126.287517 
L 312.35873 134.536531 
L 314.82416 130.960758 
L 317.28959 134.226272 
L 319.755019 129.618699 
L 322.220449 123.205566 
L 324.685879 122.615822 
L 327.151308 119.362828 
L 329.616738 112.180247 
L 332.082168 114.590487 
L 334.547597 114.181885 
L 337.013027 113.457334 
L 339.478457 107.596748 
L 341.943886 110.560199 
L 344.409316 98.658457 
L 346.874746 103.939399 
L 349.340175 102.4201 
L 351.805605 107.568121 
L 354.271035 97.578485 
L 356.736464 97.844275 
L 359.201894 93.624084 
L 361.667324 96.960308 
L 364.132753 93.047669 
L 366.598183 105.113954 
L 369.063613 98.612491 
L 371.529042 99.168233 
L 373.994472 96.462418 
L 376.459902 95.039017 
L 378.925331 97.730242 
L 381.390761 97.873727 
L 383.856191 100.856898 
L 386.32162 101.448983 
L 388.78705 114.683926 
L 391.25248 106.52567 
L 393.71791 101.469737 
L 396.183339 105.631884 
L 398.648769 110.376025 
L 401.114199 113.965169 
L 403.579628 109.65711 
L 406.045058 115.505135 
L 408.510488 112.533034 
L 410.975917 114.650606 
L 413.441347 112.809084 
L 415.906777 117.132198 
L 418.372206 116.818878 
L 420.837636 113.241103 
L 423.303066 119.277897 
L 425.768495 116.871124 
L 428.233925 118.150957 
L 430.699355 123.326962 
L 433.164784 117.476302 
L 435.630214 121.307992 
L 438.095644 119.121855 
L 440.561073 127.576928 
L 443.026503 117.739203 
L 445.491933 112.897064 
L 450.422792 124.746897 
L 452.888222 116.217915 
L 455.353651 120.105886 
L 457.819081 112.508076 
L 460.284511 113.479281 
L 462.74994 109.848007 
L 465.21537 118.52863 
L 467.6808 111.109908 
L 470.146229 113.512182 
L 472.611659 115.316548 
L 472.611659 115.316548 
" clip-path="url(#p0585d821ff)" style="fill: none; stroke: #1f77b4; stroke-opacity: 0.55; stroke-width: 1.5; stroke-linecap: square"/>
   </g>
   <g id="line2d_28">
    <path d="M 80.608341 98.198183 
L 83.073771 93.670558 
L 85.5392 87.701476 
L 88.00463 83.751976 
L 90.47006 75.180588 
L 95.400919 61.174605 
L 97.866349 53.507164 
L 100.331778 47.50899 
L 102.797208 43.898578 
L 105.262638 40.027146 
L 107.728067 39.042258 
L 110.193497 37.136408 
L 112.658927 38.717184 
L 115.124356 41.804416 
L 117.589786 45.134526 
L 120.055216 49.704732 
L 122.520645 54.580181 
L 124.986075 58.831445 
L 127.451505 65.240371 
L 129.916934 71.102756 
L 132.382364 75.970897 
L 134.847794 81.77087 
L 137.313223 88.042963 
L 139.778653 95.210469 
L 142.244083 102.973062 
L 144.709512 109.394081 
L 147.174942 115.50492 
L 149.640372 123.03699 
L 154.571231 136.622652 
L 157.036661 142.379965 
L 159.50209 146.046647 
L 161.96752 150.716171 
L 169.363809 158.610533 
L 171.829239 160.057924 
L 174.294669 159.93169 
L 176.760098 160.80597 
L 179.225528 159.84965 
L 181.690958 158.449793 
L 184.156387 154.771563 
L 186.621817 153.269874 
L 189.087247 148.675856 
L 191.552676 145.173231 
L 196.483536 135.623831 
L 201.414395 129.919472 
L 203.879825 123.231187 
L 206.345254 119.999925 
L 208.810684 114.955602 
L 211.276114 108.831455 
L 213.741543 104.562631 
L 216.206973 99.19136 
L 218.672403 94.151658 
L 221.137832 90.566331 
L 223.603262 86.668845 
L 226.068692 83.510681 
L 228.534121 82.620605 
L 230.999551 80.2479 
L 233.464981 79.509009 
L 235.93041 79.244998 
L 238.39584 79.883101 
L 240.86127 79.718505 
L 243.326699 81.47768 
L 245.792129 81.516562 
L 248.257559 83.803382 
L 250.722988 84.990537 
L 253.188418 87.07048 
L 255.653848 88.590118 
L 258.119277 91.156836 
L 260.584707 94.617464 
L 263.050137 98.806861 
L 265.515566 102.030118 
L 267.980996 105.919769 
L 270.446426 108.58265 
L 272.911855 112.271143 
L 275.377285 114.408193 
L 277.842715 117.575428 
L 280.308145 120.188263 
L 282.773574 122.377043 
L 285.239004 124.397946 
L 287.704434 127.150566 
L 290.169863 128.079091 
L 292.635293 130.653924 
L 295.100723 131.167756 
L 297.566152 132.9568 
L 300.031582 134.231698 
L 302.497012 133.511113 
L 307.427871 134.314339 
L 309.893301 134.40588 
L 312.35873 133.345194 
L 317.28959 128.778738 
L 319.755019 127.789496 
L 322.220449 124.595742 
L 324.685879 122.257131 
L 327.151308 119.393648 
L 332.082168 114.85505 
L 334.547597 113.132818 
L 337.013027 110.175051 
L 339.478457 108.997787 
L 341.943886 107.25916 
L 344.409316 106.314337 
L 346.874746 104.04593 
L 349.340175 102.652719 
L 351.805605 100.233274 
L 354.271035 99.990682 
L 356.736464 98.43472 
L 359.201894 98.819557 
L 361.667324 97.540181 
L 364.132753 97.767288 
L 366.598183 97.56988 
L 371.529042 97.882003 
L 373.994472 98.57144 
L 376.459902 97.963289 
L 378.925331 98.368503 
L 381.390761 100.58503 
L 383.856191 102.022638 
L 386.32162 102.941312 
L 388.78705 104.070118 
L 393.71791 107.728771 
L 396.183339 108.90136 
L 398.648769 109.018676 
L 401.114199 109.876871 
L 403.579628 111.759852 
L 408.510488 113.750334 
L 413.441347 114.670005 
L 420.837636 116.328749 
L 423.303066 117.831303 
L 425.768495 117.88046 
L 428.233925 118.521762 
L 430.699355 119.36187 
L 433.164784 120.547446 
L 435.630214 120.671457 
L 438.095644 119.920901 
L 440.561073 119.298095 
L 443.026503 120.336752 
L 445.491933 119.609598 
L 447.957362 119.750174 
L 450.422792 117.597481 
L 452.888222 116.98892 
L 455.353651 116.553341 
L 457.819081 116.49067 
L 460.284511 114.542529 
L 462.74994 114.155996 
L 465.21537 113.471805 
L 467.6808 113.632426 
L 470.146229 113.663055 
L 472.611659 114.616817 
L 472.611659 114.616817 
" clip-path="url(#p0585d821ff)" style="fill: none; stroke: #d62728; stroke-width: 1.8; stroke-linecap: square"/>
   </g>
   <g id="patch_3">
    <path d="M 60.02 172.51 
L 60.02 25.92 
" style="fill: none; stroke: #000000; stroke-width: 0.8; stroke-linejoin: miter; stroke-linecap: square"/>
   </g>
   <g id="patch_4">
    <path d="M 493.2 172.51 
L 493.2 25.92 
" style="fill: none; stroke: #000000; stroke-width: 0.8; stroke-linejoin: miter; stroke-linecap: square"/>
   </g>
   <g id="patch_5">
    <path d="M 60.02 172.51 
L 493.2 172.51 
" style="fill: none; stroke: #000000; stroke-width: 0.8; stroke-linejoin: miter; stroke-linecap: square"/>
   </g>
   <g id="patch_6">
    <path d="M 60.02 25.92 
L 493.2 25.92 
" style="fill: none; stroke: #000000; stroke-width: 0.8; stroke-linejoin: miter; stroke-linecap: square"/>
   </g>
   <g id="text_8">
    <!-- Subplot signal review -->
    <g transform="translate(212.288125 19.92) scale(0.12 -0.12)">
     <defs>
      <path id="DejaVuSans-53" d="M 3425 4513 
L 3425 3897 
Q 3066 4069 2747 4153 
Q 2428 4238 2131 4238 
Q 1616 4238 1336 4038 
Q 1056 3838 1056 3469 
Q 1056 3159 1242 3001 
Q 1428 2844 1947 2747 
L 2328 2669 
Q 3034 2534 3370 2195 
Q 3706 1856 3706 1288 
Q 3706 609 3251 259 
Q 2797 -91 1919 -91 
Q 1588 -91 1214 -16 
Q 841 59 441 206 
L 441 856 
Q 825 641 1194 531 
Q 1563 422 1919 422 
Q 2459 422 2753 634 
Q 3047 847 3047 1241 
Q 3047 1584 2836 1778 
Q 2625 1972 2144 2069 
L 1759 2144 
Q 1053 2284 737 2584 
Q 422 2884 422 3419 
Q 422 4038 858 4394 
Q 1294 4750 2059 4750 
Q 2388 4750 2728 4690 
Q 3069 4631 3425 4513 
z
" transform="scale(0.015625)"/>
      <path id="DejaVuSans-62" d="M 3116 1747 
Q 3116 2381 2855 2742 
Q 2594 3103 2138 3103 
Q 1681 3103 1420 2742 
Q 1159 2381 1159 1747 
Q 1159 1113 1420 752 
Q 1681 391 2138 391 
Q 2594 391 2855 752 
Q 3116 1113 3116 1747 
z
M 1159 2969 
Q 1341 3281 1617 3432 
Q 1894 3584 2278 3584 
Q 2916 3584 3314 3078 
Q 3713 2572 3713 1747 
Q 3713 922 3314 415 
Q 2916 -91 2278 -91 
Q 1894 -91 1617 61 
Q 1341 213 1159 525 
L 1159 0 
L 581 0 
L 581 4863 
L 1159 4863 
L 1159 2969 
z
" transform="scale(0.015625)"/>
      <path id="DejaVuSans-6c" d="M 603 4863 
L 1178 4863 
L 1178 0 
L 603 0 
L 603 4863 
z
" transform="scale(0.015625)"/>
      <path id="DejaVuSans-74" d="M 1172 4494 
L 1172 3500 
L 2356 3500 
L 2356 3053 
L 1172 3053 
L 1172 1153 
Q 1172 725 1289 603 
Q 1406 481 1766 481 
L 2356 481 
L 2356 0 
L 1766 0 
Q 1100 0 847 248 
Q 594 497 594 1153 
L 594 3053 
L 172 3053 
L 172 3500 
L 594 3500 
L 594 4494 
L 1172 4494 
z
" transform="scale(0.015625)"/>
      <path id="DejaVuSans-69" d="M 603 3500 
L 1178 3500 
L 1178 0 
L 603 0 
L 603 3500 
z
M 603 4863 
L 1178 4863 
L 1178 4134 
L 603 4134 
L 603 4863 
z
" transform="scale(0.015625)"/>
      <path id="DejaVuSans-67" d="M 2906 1791 
Q 2906 2416 2648 2759 
Q 2391 3103 1925 3103 
Q 1463 3103 1205 2759 
Q 947 2416 947 1791 
Q 947 1169 1205 825 
Q 1463 481 1925 481 
Q 2391 481 2648 825 
Q 2906 1169 2906 1791 
z
M 3481 434 
Q 3481 -459 3084 -895 
Q 2688 -1331 1869 -1331 
Q 1566 -1331 1297 -1286 
Q 1028 -1241 775 -1147 
L 775 -588 
Q 1028 -725 1275 -790 
Q 1522 -856 1778 -856 
Q 2344 -856 2625 -561 
Q 2906 -266 2906 331 
L 2906 616 
Q 2728 306 2450 153 
Q 2172 0 1784 0 
Q 1141 0 747 490 
Q 353 981 353 1791 
Q 353 2603 747 3093 
Q 1141 3584 1784 3584 
Q 2172 3584 2450 3431 
Q 2728 3278 2906 2969 
L 2906 3500 
L 3481 3500 
L 3481 434 
z
" transform="scale(0.015625)"/>
      <path id="DejaVuSans-72" d="M 2631 2963 
Q 2534 3019 2420 3045 
Q 2306 3072 2169 3072 
Q 1681 3072 1420 2755 
Q 1159 2438 1159 1844 
L 1159 0 
L 581 0 
L 581 3500 
L 1159 3500 
L 1159 2956 
Q 1341 3275 1631 3429 
Q 1922 3584 2338 3584 
Q 2397 3584 2469 3576 
Q 2541 3569 2628 3553 
L 2631 2963 
z
" transform="scale(0.015625)"/>
      <path id="DejaVuSans-76" d="M 191 3500 
L 800 3500 
L 1894 563 
L 2988 3500 
L 3597 3500 
L 2284 0 
L 1503 0 
L 191 3500 
z
" transform="scale(0.015625)"/>
      <path id="DejaVuSans-77" d="M 269 3500 
L 844 3500 
L 1563 769 
L 2278 3500 
L 2956 3500 
L 3675 769 
L 4391 3500 
L 4966 3500 
L 4050 0 
L 3372 0 
L 2619 2869 
L 1863 0 
L 1184 0 
L 269 3500 
z
" transform="scale(0.015625)"/>
     </defs>
     <use xlink:href="#DejaVuSans-53"/>
     <use xlink:href="#DejaVuSans-75" transform="translate(63.476562 0)"/>
     <use xlink:href="#DejaVuSans-62" transform="translate(126.855469 0)"/>
     <use xlink:href="#DejaVuSans-70" transform="translate(190.332031 0)"/>
     <use xlink:href="#DejaVuSans-6c" transform="translate(253.808594 0)"/>
     <use xlink:href="#DejaVuSans-6f" transform="translate(281.591797 0)"/>
     <use xlink:href="#DejaVuSans-74" transform="translate(342.773438 0)"/>
     <use xlink:href="#DejaVuSans-20" transform="translate(381.982422 0)"/>
     <use xlink:href="#DejaVuSans-73" transform="translate(413.769531 0)"/>
     <use xlink:href="#DejaVuSans-69" transform="translate(465.869141 0)"/>
     <use xlink:href="#DejaVuSans-67" transform="translate(493.652344 0)"/>
     <use xlink:href="#DejaVuSans-6e" transform="translate(557.128906 0)"/>
     <use xlink:href="#DejaVuSans-61" transform="translate(620.507812 0)"/>
     <use xlink:href="#DejaVuSans-6c" transform="translate(681.787109 0)"/>
     <use xlink:href="#DejaVuSans-20" transform="translate(709.570312 0)"/>
     <use xlink:href="#DejaVuSans-72" transform="translate(741.357422 0)"/>
     <use xlink:href="#DejaVuSans-65" transform="translate(780.220703 0)"/>
     <use xlink:href="#DejaVuSans-76" transform="translate(841.744141 0)"/>
     <use xlink:href="#DejaVuSans-69" transform="translate(900.923828 0)"/>
     <use xlink:href="#DejaVuSans-65" transform="translate(928.707031 0)"/>
     <use xlink:href="#DejaVuSans-77" transform="translate(990.230469 0)"/>
    </g>
   </g>
   <g id="legend_1">
    <g id="patch_7">
     <path d="M 387.189062 63.27625 
L 486.2 63.27625 
Q 488.2 63.27625 488.2 61.27625 
L 488.2 32.92 
Q 488.2 30.92 486.2 30.92 
L 387.189062 30.92 
Q 385.189062 30.92 385.189062 32.92 
L 385.189062 61.27625 
Q 385.189062 63.27625 387.189062 63.27625 
z
" style="fill: #ffffff; opacity: 0.8; stroke: #cccccc; stroke-linejoin: miter"/>
    </g>
    <g id="line2d_29">
     <path d="M 389.189062 39.018438 
L 399.189062 39.018438 
L 409.189062 39.018438 
" style="fill: none; stroke: #1f77b4; stroke-opacity: 0.55; stroke-width: 1.5; stroke-linecap: square"/>
    </g>
    <g id="text_9">
     <!-- raw response -->
     <g transform="translate(417.189062 42.518438) scale(0.1 -0.1)">
      <use xlink:href="#DejaVuSans-72"/>
      <use xlink:href="#DejaVuSans-61" transform="translate(41.113281 0)"/>
      <use xlink:href="#DejaVuSans-77" transform="translate(102.392578 0)"/>
      <use xlink:href="#DejaVuSans-20" transform="translate(184.179688 0)"/>
      <use xlink:href="#DejaVuSans-72" transform="translate(215.966797 0)"/>
      <use xlink:href="#DejaVuSans-65" transform="translate(254.830078 0)"/>
      <use xlink:href="#DejaVuSans-73" transform="translate(316.353516 0)"/>
      <use xlink:href="#DejaVuSans-70" transform="translate(368.453125 0)"/>
      <use xlink:href="#DejaVuSans-6f" transform="translate(431.929688 0)"/>
      <use xlink:href="#DejaVuSans-6e" transform="translate(493.111328 0)"/>
      <use xlink:href="#DejaVuSans-73" transform="translate(556.490234 0)"/>
      <use xlink:href="#DejaVuSans-65" transform="translate(608.589844 0)"/>
     </g>
    </g>
    <g id="line2d_30">
     <path d="M 389.189062 53.696563 
L 399.189062 53.696563 
L 409.189062 53.696563 
" style="fill: none; stroke: #d62728; stroke-width: 1.8; stroke-linecap: square"/>
    </g>
    <g id="text_10">
     <!-- smoothed -->
     <g transform="translate(417.189062 57.196563) scale(0.1 -0.1)">
      <defs>
       <path id="DejaVuSans-6d" d="M 3328 2828 
Q 3544 3216 3844 3400 
Q 4144 3584 4550 3584 
Q 5097 3584 5394 3201 
Q 5691 2819 5691 2113 
L 5691 0 
L 5113 0 
L 5113 2094 
Q 5113 2597 4934 2840 
Q 4756 3084 4391 3084 
Q 3944 3084 3684 2787 
Q 3425 2491 3425 1978 
L 3425 0 
L 2847 0 
L 2847 2094 
Q 2847 2600 2669 2842 
Q 2491 3084 2119 3084 
Q 1678 3084 1418 2786 
Q 1159 2488 1159 1978 
L 1159 0 
L 581 0 
L 581 3500 
L 1159 3500 
L 1159 2956 
Q 1356 3278 1631 3431 
Q 1906 3584 2284 3584 
Q 2666 3584 2933 3390 
Q 3200 3197 3328 2828 
z
" transform="scale(0.015625)"/>
       <path id="DejaVuSans-68" d="M 3513 2113 
L 3513 0 
L 2938 0 
L 2938 2094 
Q 2938 2591 2744 2837 
Q 2550 3084 2163 3084 
Q 1697 3084 1428 2787 
Q 1159 2491 1159 1978 
L 1159 0 
L 581 0 
L 581 4863 
L 1159 4863 
L 1159 2956 
Q 1366 3272 1645 3428 
Q 1925 3584 2291 3584 
Q 2894 3584 3203 3211 
Q 3513 2838 3513 2113 
z
" transform="scale(0.015625)"/>
       <path id="DejaVuSans-64" d="M 2906 2969 
L 2906 4863 
L 3481 4863 
L 3481 0 
L 2906 0 
L 2906 525 
Q 2725 213 2448 61 
Q 2172 -91 1784 -91 
Q 1150 -91 751 415 
Q 353 922 353 1747 
Q 353 2572 751 3078 
Q 1150 3584 1784 3584 
Q 2172 3584 2448 3432 
Q 2725 3281 2906 2969 
z
M 947 1747 
Q 947 1113 1208 752 
Q 1469 391 1925 391 
Q 2381 391 2643 752 
Q 2906 1113 2906 1747 
Q 2906 2381 2643 2742 
Q 2381 3103 1925 3103 
Q 1469 3103 1208 2742 
Q 947 2381 947 1747 
z
" transform="scale(0.015625)"/>
      </defs>
      <use xlink:href="#DejaVuSans-73"/>
      <use xlink:href="#DejaVuSans-6d" transform="translate(52.099609 0)"/>
      <use xlink:href="#DejaVuSans-6f" transform="translate(149.511719 0)"/>
      <use xlink:href="#DejaVuSans-6f" transform="translate(210.693359 0)"/>
      <use xlink:href="#DejaVuSans-74" transform="translate(271.875 0)"/>
      <use xlink:href="#DejaVuSans-68" transform="translate(311.083984 0)"/>
      <use xlink:href="#DejaVuSans-65" transform="translate(374.462891 0)"/>
      <use xlink:href="#DejaVuSans-64" transform="translate(435.986328 0)"/>
     </g>
    </g>
   </g>
  </g>
  <g id="axes_2">
   <g id="patch_8">
    <path d="M 60.02 333.4 
L 493.2 333.4 
L 493.2 186.81 
L 60.02 186.81 
z
" style="fill: #ffffff"/>
   </g>
   <g id="patch_9">
    <path d="M 79.71 333.4 
L 81.506682 333.4 
L 81.506682 320.005598 
L 79.71 320.005598 
z
" clip-path="url(#pcfb113e2b1)" style="fill: #2ca02c; opacity: 0.75"/>
   </g>
   <g id="patch_10">
    <path d="M 82.17543 333.4 
L 83.972112 333.4 
L 83.972112 320.888137 
L 82.17543 320.888137 
z
" clip-path="url(#pcfb113e2b1)" style="fill: #2ca02c; opacity: 0.75"/>
   </g>
   <g id="patch_11">
    <path d="M 84.640859 333.4 
L 86.437541 333.4 
L 86.437541 314.01526 
L 84.640859 314.01526 
z
" clip-path="url(#pcfb113e2b1)" style="fill: #2ca02c; opacity: 0.75"/>
   </g>
   <g id="patch_12">
    <path d="M 87.106289 333.4 
L 88.902971 333.4 
L 88.902971 243.618855 
L 87.106289 243.618855 
z
" clip-path="url(#pcfb113e2b1)" style="fill: #2ca02c; opacity: 0.75"/>
   </g>
   <g id="patch_13">
    <path d="M 89.571719 333.4 
L 91.368401 333.4 
L 91.368401 296.150344 
L 89.571719 296.150344 
z
" clip-path="url(#pcfb113e2b1)" style="fill: #2ca02c; opacity: 0.75"/>
   </g>
   <g id="patch_14">
    <path d="M 92.037148 333.4 
L 93.83383 333.4 
L 93.83383 249.193271 
L 92.037148 249.193271 
z
" clip-path="url(#pcfb113e2b1)" style="fill: #2ca02c; opacity: 0.75"/>
   </g>
   <g id="patch_15">
    <path d="M 94.502578 333.4 
L 96.29926 333.4 
L 96.29926 301.957423 
L 94.502578 301.957423 
z
" clip-path="url(#pcfb113e2b1)" style="fill: #2ca02c; opacity: 0.75"/>
   </g>
   <g id="patch_16">
    <path d="M 96.968008 333.4 
L 98.76469 333.4 
L 98.76469 317.398173 
L 96.968008 317.398173 
z
" clip-path="url(#pcfb113e2b1)" style="fill: #2ca02c; opacity: 0.75"/>
   </g>
   <g id="patch_17">
    <path d="M 99.433437 333.4 
L 101.230119 333.4 
L 101.230119 254.587705 
L 99.433437 254.587705 
z
" clip-path="url(#pcfb113e2b1)" style="fill: #2ca02c; opacity: 0.75"/>
   </g>
   <g id="patch_18">
    <path d="M 101.898867 333.4 
L 103.695549 333.4 
L 103.695549 309.093589 
L 101.898867 309.093589 
z
" clip-path="url(#pcfb113e2b1)" style="fill: #2ca02c; opacity: 0.75"/>
   </g>
   <g id="patch_19">
    <path d="M 104.364297 333.4 
L 106.160979 333.4 
L 106.160979 272.353859 
L 104.364297 272.353859 
z
" clip-path="url(#pcfb113e2b1)" style="fill: #2ca02c; opacity: 0.75"/>
   </g>
   <g id="patch_20">
    <path d="M 106.829726 333.4 
L 108.626408 333.4 
L 108.626408 276.302344 
L 106.829726 276.302344 
z
" clip-path="url(#pcfb113e2b1)" style="fill: #2ca02c; opacity: 0.75"/>
   </g>
   <g id="patch_21">
    <path d="M 109.295156 333.4 
L 111.091838 333.4 
L 111.091838 270.551459 
L 109.295156 270.551459 
z
" clip-path="url(#pcfb113e2b1)" style="fill: #2ca02c; opacity: 0.75"/>
   </g>
   <g id="patch_22">
    <path d="M 111.760586 333.4 
L 113.557268 333.4 
L 113.557268 268.128961 
L 111.760586 268.128961 
z
" clip-path="url(#pcfb113e2b1)" style="fill: #2ca02c; opacity: 0.75"/>
   </g>
   <g id="patch_23">
    <path d="M 114.226015 333.4 
L 116.022697 333.4 
L 116.022697 257.622156 
L 114.226015 257.622156 
z
" clip-path="url(#pcfb113e2b1)" style="fill: #2ca02c; opacity: 0.75"/>
   </g>
   <g id="patch_24">
    <path d="M 116.691445 333.4 
L 118.488127 333.4 
L 118.488127 296.240657 
L 116.691445 296.240657 
z
" clip-path="url(#pcfb113e2b1)" style="fill: #2ca02c; opacity: 0.75"/>
   </g>
   <g id="patch_25">
    <path d="M 119.156875 333.4 
L 120.953557 333.4 
L 120.953557 261.891856 
L 119.156875 261.891856 
z
" clip-path="url(#pcfb113e2b1)" style="fill: #2ca02c; opacity: 0.75"/>
   </g>
   <g id="patch_26">
    <path d="M 121.622304 333.4 
L 123.418986 333.4 
L 123.418986 256.622918 
L 121.622304 256.622918 
z
" clip-path="url(#pcfb113e2b1)" style="fill: #2ca02c; opacity: 0.75"/>
   </g>
   <g id="patch_27">
    <path d="M 124.087734 333.4 
L 125.884416 333.4 
L 125.884416 316.571032 
L 124.087734 316.571032 
z
" clip-path="url(#pcfb113e2b1)" style="fill: #2ca02c; opacity: 0.75"/>
   </g>
   <g id="patch_28">
    <path d="M 126.553164 333.4 
L 128.349846 333.4 
L 128.349846 293.31481 
L 126.553164 293.31481 
z
" clip-path="url(#pcfb113e2b1)" style="fill: #2ca02c; opacity: 0.75"/>
   </g>
   <g id="patch_29">
    <path d="M 129.018593 333.4 
L 130.815275 333.4 
L 130.815275 325.00315 
L 129.018593 325.00315 
z
" clip-path="url(#pcfb113e2b1)" style="fill: #2ca02c; opacity: 0.75"/>
   </g>
   <g id="patch_30">
    <path d="M 131.484023 333.4 
L 133.280705 333.4 
L 133.280705 320.538421 
L 131.484023 320.538421 
z
" clip-path="url(#pcfb113e2b1)" style="fill: #2ca02c; opacity: 0.75"/>
   </g>
   <g id="patch_31">
    <path d="M 133.949453 333.4 
L 135.746135 333.4 
L 135.746135 301.722649 
L 133.949453 301.722649 
z
" clip-path="url(#pcfb113e2b1)" style="fill: #2ca02c; opacity: 0.75"/>
   </g>
   <g id="patch_32">
    <path d="M 136.414882 333.4 
L 138.211564 333.4 
L 138.211564 288.927132 
L 136.414882 288.927132 
z
" clip-path="url(#pcfb113e2b1)" style="fill: #2ca02c; opacity: 0.75"/>
   </g>
   <g id="patch_33">
    <path d="M 138.880312 333.4 
L 140.676994 333.4 
L 140.676994 257.411659 
L 138.880312 257.411659 
z
" clip-path="url(#pcfb113e2b1)" style="fill: #2ca02c; opacity: 0.75"/>
   </g>
   <g id="patch_34">
    <path d="M 141.345742 333.4 
L 143.142424 333.4 
L 143.142424 249.749686 
L 141.345742 249.749686 
z
" clip-path="url(#pcfb113e2b1)" style="fill: #2ca02c; opacity: 0.75"/>
   </g>
   <g id="patch_35">
    <path d="M 143.811172 333.4 
L 145.607853 333.4 
L 145.607853 294.812997 
L 143.811172 294.812997 
z
" clip-path="url(#pcfb113e2b1)" style="fill: #2ca02c; opacity: 0.75"/>
   </g>
   <g id="patch_36">
    <path d="M 146.276601 333.4 
L 148.073283 333.4 
L 148.073283 314.871919 
L 146.276601 314.871919 
z
" clip-path="url(#pcfb113e2b1)" style="fill: #2ca02c; opacity: 0.75"/>
   </g>
   <g id="patch_37">
    <path d="M 148.742031 333.4 
L 150.538713 333.4 
L 150.538713 278.821641 
L 148.742031 278.821641 
z
" clip-path="url(#pcfb113e2b1)" style="fill: #2ca02c; opacity: 0.75"/>
   </g>
   <g id="patch_38">
    <path d="M 151.207461 333.4 
L 153.004142 333.4 
L 153.004142 298.571052 
L 151.207461 298.571052 
z
" clip-path="url(#pcfb113e2b1)" style="fill: #2ca02c; opacity: 0.75"/>
   </g>
   <g id="patch_39">
    <path d="M 153.67289 333.4 
L 155.469572 333.4 
L 155.469572 302.218136 
L 153.67289 302.218136 
z
" clip-path="url(#pcfb113e2b1)" style="fill: #2ca02c; opacity: 0.75"/>
   </g>
   <g id="patch_40">
    <path d="M 156.13832 333.4 
L 157.935002 333.4 
L 157.935002 332.373325 
L 156.13832 332.373325 
z
" clip-path="url(#pcfb113e2b1)" style="fill: #2ca02c; opacity: 0.75"/>
   </g>
   <g id="patch_41">
    <path d="M 158.60375 333.4 
L 160.400431 333.4 
L 160.400431 298.040626 
L 158.60375 298.040626 
z
" clip-path="url(#pcfb113e2b1)" style="fill: #2ca02c; opacity: 0.75"/>
   </g>
   <g id="patch_42">
    <path d="M 161.069179 333.4 
L 162.865861 333.4 
L 162.865861 290.493481 
L 161.069179 290.493481 
z
" clip-path="url(#pcfb113e2b1)" style="fill: #2ca02c; opacity: 0.75"/>
   </g>
   <g id="patch_43">
    <path d="M 163.534609 333.4 
L 165.331291 333.4 
L 165.331291 309.828771 
L 163.534609 309.828771 
z
" clip-path="url(#pcfb113e2b1)" style="fill: #2ca02c; opacity: 0.75"/>
   </g>
   <g id="patch_44">
    <path d="M 166.000039 333.4 
L 167.79672 333.4 
L 167.79672 299.809188 
L 166.000039 299.809188 
z
" clip-path="url(#pcfb113e2b1)" style="fill: #2ca02c; opacity: 0.75"/>
   </g>
   <g id="patch_45">
    <path d="M 168.465468 333.4 
L 170.26215 333.4 
L 170.26215 311.750529 
L 168.465468 311.750529 
z
" clip-path="url(#pcfb113e2b1)" style="fill: #2ca02c; opacity: 0.75"/>
   </g>
   <g id="patch_46">
    <path d="M 170.930898 333.4 
L 172.72758 333.4 
L 172.72758 243.295473 
L 170.930898 243.295473 
z
" clip-path="url(#pcfb113e2b1)" style="fill: #2ca02c; opacity: 0.75"/>
   </g>
   <g id="patch_47">
    <path d="M 173.396328 333.4 
L 175.193009 333.4 
L 175.193009 327.205685 
L 173.396328 327.205685 
z
" clip-path="url(#pcfb113e2b1)" style="fill: #2ca02c; opacity: 0.75"/>
   </g>
   <g id="patch_48">
    <path d="M 175.861757 333.4 
L 177.658439 333.4 
L 177.658439 311.191998 
L 175.861757 311.191998 
z
" clip-path="url(#pcfb113e2b1)" style="fill: #2ca02c; opacity: 0.75"/>
   </g>
   <g id="patch_49">
    <path d="M 178.327187 333.4 
L 180.123869 333.4 
L 180.123869 263.494336 
L 178.327187 263.494336 
z
" clip-path="url(#pcfb113e2b1)" style="fill: #2ca02c; opacity: 0.75"/>
   </g>
   <g id="patch_50">
    <path d="M 180.792617 333.4 
L 182.589298 333.4 
L 182.589298 310.662049 
L 180.792617 310.662049 
z
" clip-path="url(#pcfb113e2b1)" style="fill: #2ca02c; opacity: 0.75"/>
   </g>
   <g id="patch_51">
    <path d="M 183.258046 333.4 
L 185.054728 333.4 
L 185.054728 262.899529 
L 183.258046 262.899529 
z
" clip-path="url(#pcfb113e2b1)" style="fill: #2ca02c; opacity: 0.75"/>
   </g>
   <g id="patch_52">
    <path d="M 185.723476 333.4 
L 187.520158 333.4 
L 187.520158 307.111686 
L 185.723476 307.111686 
z
" clip-path="url(#pcfb113e2b1)" style="fill: #2ca02c; opacity: 0.75"/>
   </g>
   <g id="patch_53">
    <path d="M 188.188906 333.4 
L 189.985588 333.4 
L 189.985588 266.69087 
L 188.188906 266.69087 
z
" clip-path="url(#pcfb113e2b1)" style="fill: #2ca02c; opacity: 0.75"/>
   </g>
   <g id="patch_54">
    <path d="M 190.654335 333.4 
L 192.451017 333.4 
L 192.451017 217.454962 
L 190.654335 217.454962 
z
" clip-path="url(#pcfb113e2b1)" style="fill: #2ca02c; opacity: 0.75"/>
   </g>
   <g id="patch_55">
    <path d="M 193.119765 333.4 
L 194.916447 333.4 
L 194.916447 193.790476 
L 193.119765 193.790476 
z
" clip-path="url(#pcfb113e2b1)" style="fill: #2ca02c; opacity: 0.75"/>
   </g>
   <g id="patch_56">
    <path d="M 195.585195 333.4 
L 197.381877 333.4 
L 197.381877 294.401153 
L 195.585195 294.401153 
z
" clip-path="url(#pcfb113e2b1)" style="fill: #2ca02c; opacity: 0.75"/>
   </g>
   <g id="patch_57">
    <path d="M 198.050624 333.4 
L 199.847306 333.4 
L 199.847306 331.06299 
L 198.050624 331.06299 
z
" clip-path="url(#pcfb113e2b1)" style="fill: #2ca02c; opacity: 0.75"/>
   </g>
   <g id="patch_58">
    <path d="M 200.516054 333.4 
L 202.312736 333.4 
L 202.312736 318.645409 
L 200.516054 318.645409 
z
" clip-path="url(#pcfb113e2b1)" style="fill: #2ca02c; opacity: 0.75"/>
   </g>
   <g id="patch_59">
    <path d="M 202.981484 333.4 
L 204.778166 333.4 
L 204.778166 332.280845 
L 202.981484 332.280845 
z
" clip-path="url(#pcfb113e2b1)" style="fill: #2ca02c; opacity: 0.75"/>
   </g>
   <g id="patch_60">
    <path d="M 205.446913 333.4 
L 207.243595 333.4 
L 207.243595 238.703868 
L 205.446913 238.703868 
z
" clip-path="url(#pcfb113e2b1)" style="fill: #2ca02c; opacity: 0.75"/>
   </g>
   <g id="patch_61">
    <path d="M 207.912343 333.4 
L 209.709025 333.4 
L 209.709025 276.216199 
L 207.912343 276.216199 
z
" clip-path="url(#pcfb113e2b1)" style="fill: #2ca02c; opacity: 0.75"/>
   </g>
   <g id="patch_62">
    <path d="M 210.377773 333.4 
L 212.174455 333.4 
L 212.174455 318.139977 
L 210.377773 318.139977 
z
" clip-path="url(#pcfb113e2b1)" style="fill: #2ca02c; opacity: 0.75"/>
   </g>
   <g id="patch_63">
    <path d="M 212.843202 333.4 
L 214.639884 333.4 
L 214.639884 224.719996 
L 212.843202 224.719996 
z
" clip-path="url(#pcfb113e2b1)" style="fill: #2ca02c; opacity: 0.75"/>
   </g>
   <g id="patch_64">
    <path d="M 215.308632 333.4 
L 217.105314 333.4 
L 217.105314 318.822718 
L 215.308632 318.822718 
z
" clip-path="url(#pcfb113e2b1)" style="fill: #2ca02c; opacity: 0.75"/>
   </g>
   <g id="patch_65">
    <path d="M 217.774062 333.4 
L 219.570744 333.4 
L 219.570744 224.766992 
L 217.774062 224.766992 
z
" clip-path="url(#pcfb113e2b1)" style="fill: #2ca02c; opacity: 0.75"/>
   </g>
   <g id="patch_66">
    <path d="M 220.239491 333.4 
L 222.036173 333.4 
L 222.036173 311.111894 
L 220.239491 311.111894 
z
" clip-path="url(#pcfb113e2b1)" style="fill: #2ca02c; opacity: 0.75"/>
   </g>
   <g id="patch_67">
    <path d="M 222.704921 333.4 
L 224.501603 333.4 
L 224.501603 329.9448 
L 222.704921 329.9448 
z
" clip-path="url(#pcfb113e2b1)" style="fill: #2ca02c; opacity: 0.75"/>
   </g>
   <g id="patch_68">
    <path d="M 225.170351 333.4 
L 226.967033 333.4 
L 226.967033 293.783479 
L 225.170351 293.783479 
z
" clip-path="url(#pcfb113e2b1)" style="fill: #2ca02c; opacity: 0.75"/>
   </g>
   <g id="patch_69">
    <path d="M 227.63578 333.4 
L 229.432462 333.4 
L 229.432462 316.690701 
L 227.63578 316.690701 
z
" clip-path="url(#pcfb113e2b1)" style="fill: #2ca02c; opacity: 0.75"/>
   </g>
   <g id="patch_70">
    <path d="M 230.10121 333.4 
L 231.897892 333.4 
L 231.897892 288.901127 
L 230.10121 288.901127 
z
" clip-path="url(#pcfb113e2b1)" style="fill: #2ca02c; opacity: 0.75"/>
   </g>
   <g id="patch_71">
    <path d="M 232.56664 333.4 
L 234.363322 333.4 
L 234.363322 280.883788 
L 232.56664 280.883788 
z
" clip-path="url(#pcfb113e2b1)" style="fill: #2ca02c; opacity: 0.75"/>
   </g>
   <g id="patch_72">
    <path d="M 235.032069 333.4 
L 236.828751 333.4 
L 236.828751 322.36881 
L 235.032069 322.36881 
z
" clip-path="url(#pcfb113e2b1)" style="fill: #2ca02c; opacity: 0.75"/>
   </g>
   <g id="patch_73">
    <path d="M 237.497499 333.4 
L 239.294181 333.4 
L 239.294181 303.291174 
L 237.497499 303.291174 
z
" clip-path="url(#pcfb113e2b1)" style="fill: #2ca02c; opacity: 0.75"/>
   </g>
   <g id="patch_74">
    <path d="M 239.962929 333.4 
L 241.759611 333.4 
L 241.759611 289.780861 
L 239.962929 289.780861 
z
" clip-path="url(#pcfb113e2b1)" style="fill: #2ca02c; opacity: 0.75"/>
   </g>
   <g id="patch_75">
    <path d="M 242.428358 333.4 
L 244.22504 333.4 
L 244.22504 328.155528 
L 242.428358 328.155528 
z
" clip-path="url(#pcfb113e2b1)" style="fill: #2ca02c; opacity: 0.75"/>
   </g>
   <g id="patch_76">
    <path d="M 244.893788 333.4 
L 246.69047 333.4 
L 246.69047 269.789641 
L 244.893788 269.789641 
z
" clip-path="url(#pcfb113e2b1)" style="fill: #2ca02c; opacity: 0.75"/>
   </g>
   <g id="patch_77">
    <path d="M 247.359218 333.4 
L 249.1559 333.4 
L 249.1559 321.27341 
L 247.359218 321.27341 
z
" clip-path="url(#pcfb113e2b1)" style="fill: #2ca02c; opacity: 0.75"/>
   </g>
   <g id="patch_78">
    <path d="M 249.824647 333.4 
L 251.621329 333.4 
L 251.621329 291.026461 
L 249.824647 291.026461 
z
" clip-path="url(#pcfb113e2b1)" style="fill: #2ca02c; opacity: 0.75"/>
   </g>
   <g id="patch_79">
    <path d="M 252.290077 333.4 
L 254.086759 333.4 
L 254.086759 249.988882 
L 252.290077 249.988882 
z
" clip-path="url(#pcfb113e2b1)" style="fill: #2ca02c; opacity: 0.75"/>
   </g>
   <g id="patch_80">
    <path d="M 254.755507 333.4 
L 256.552189 333.4 
L 256.552189 297.681471 
L 254.755507 297.681471 
z
" clip-path="url(#pcfb113e2b1)" style="fill: #2ca02c; opacity: 0.75"/>
   </g>
   <g id="patch_81">
    <path d="M 257.220937 333.4 
L 259.017618 333.4 
L 259.017618 313.404679 
L 257.220937 313.404679 
z
" clip-path="url(#pcfb113e2b1)" style="fill: #2ca02c; opacity: 0.75"/>
   </g>
   <g id="patch_82">
    <path d="M 259.686366 333.4 
L 261.483048 333.4 
L 261.483048 323.256096 
L 259.686366 323.256096 
z
" clip-path="url(#pcfb113e2b1)" style="fill: #2ca02c; opacity: 0.75"/>
   </g>
   <g id="patch_83">
    <path d="M 262.151796 333.4 
L 263.948478 333.4 
L 263.948478 306.537958 
L 262.151796 306.537958 
z
" clip-path="url(#pcfb113e2b1)" style="fill: #2ca02c; opacity: 0.75"/>
   </g>
   <g id="patch_84">
    <path d="M 264.617226 333.4 
L 266.413907 333.4 
L 266.413907 324.565187 
L 264.617226 324.565187 
z
" clip-path="url(#pcfb113e2b1)" style="fill: #2ca02c; opacity: 0.75"/>
   </g>
   <g id="patch_85">
    <path d="M 267.082655 333.4 
L 268.879337 333.4 
L 268.879337 251.639708 
L 267.082655 251.639708 
z
" clip-path="url(#pcfb113e2b1)" style="fill: #2ca02c; opacity: 0.75"/>
   </g>
   <g id="patch_86">
    <path d="M 269.548085 333.4 
L 271.344767 333.4 
L 271.344767 327.152258 
L 269.548085 327.152258 
z
" clip-path="url(#pcfb113e2b1)" style="fill: #2ca02c; opacity: 0.75"/>
   </g>
   <g id="patch_87">
    <path d="M 272.013515 333.4 
L 273.810196 333.4 
L 273.810196 301.537409 
L 272.013515 301.537409 
z
" clip-path="url(#pcfb113e2b1)" style="fill: #2ca02c; opacity: 0.75"/>
   </g>
   <g id="patch_88">
    <path d="M 274.478944 333.4 
L 276.275626 333.4 
L 276.275626 303.570333 
L 274.478944 303.570333 
z
" clip-path="url(#pcfb113e2b1)" style="fill: #2ca02c; opacity: 0.75"/>
   </g>
   <g id="patch_89">
    <path d="M 276.944374 333.4 
L 278.741056 333.4 
L 278.741056 265.572479 
L 276.944374 265.572479 
z
" clip-path="url(#pcfb113e2b1)" style="fill: #2ca02c; opacity: 0.75"/>
   </g>
   <g id="patch_90">
    <path d="M 279.409804 333.4 
L 281.206485 333.4 
L 281.206485 324.244411 
L 279.409804 324.244411 
z
" clip-path="url(#pcfb113e2b1)" style="fill: #2ca02c; opacity: 0.75"/>
   </g>
   <g id="patch_91">
    <path d="M 281.875233 333.4 
L 283.671915 333.4 
L 283.671915 232.977588 
L 281.875233 232.977588 
z
" clip-path="url(#pcfb113e2b1)" style="fill: #2ca02c; opacity: 0.75"/>
   </g>
   <g id="patch_92">
    <path d="M 284.340663 333.4 
L 286.137345 333.4 
L 286.137345 241.253021 
L 284.340663 241.253021 
z
" clip-path="url(#pcfb113e2b1)" style="fill: #2ca02c; opacity: 0.75"/>
   </g>
   <g id="patch_93">
    <path d="M 286.806093 333.4 
L 288.602774 333.4 
L 288.602774 316.968325 
L 286.806093 316.968325 
z
" clip-path="url(#pcfb113e2b1)" style="fill: #2ca02c; opacity: 0.75"/>
   </g>
   <g id="patch_94">
    <path d="M 289.271522 333.4 
L 291.068204 333.4 
L 291.068204 324.116963 
L 289.271522 324.116963 
z
" clip-path="url(#pcfb113e2b1)" style="fill: #2ca02c; opacity: 0.75"/>
   </g>
   <g id="patch_95">
    <path d="M 291.736952 333.4 
L 293.533634 333.4 
L 293.533634 328.855084 
L 291.736952 328.855084 
z
" clip-path="url(#pcfb113e2b1)" style="fill: #2ca02c; opacity: 0.75"/>
   </g>
   <g id="patch_96">
    <path d="M 294.202382 333.4 
L 295.999063 333.4 
L 295.999063 319.075808 
L 294.202382 319.075808 
z
" clip-path="url(#pcfb113e2b1)" style="fill: #2ca02c; opacity: 0.75"/>
   </g>
   <g id="patch_97">
    <path d="M 296.667811 333.4 
L 298.464493 333.4 
L 298.464493 262.449787 
L 296.667811 262.449787 
z
" clip-path="url(#pcfb113e2b1)" style="fill: #2ca02c; opacity: 0.75"/>
   </g>
   <g id="patch_98">
    <path d="M 299.133241 333.4 
L 300.929923 333.4 
L 300.929923 324.327404 
L 299.133241 324.327404 
z
" clip-path="url(#pcfb113e2b1)" style="fill: #2ca02c; opacity: 0.75"/>
   </g>
   <g id="patch_99">
    <path d="M 301.598671 333.4 
L 303.395353 333.4 
L 303.395353 301.517359 
L 301.598671 301.517359 
z
" clip-path="url(#pcfb113e2b1)" style="fill: #2ca02c; opacity: 0.75"/>
   </g>
   <g id="patch_100">
    <path d="M 304.0641 333.4 
L 305.860782 333.4 
L 305.860782 269.278575 
L 304.0641 269.278575 
z
" clip-path="url(#pcfb113e2b1)" style="fill: #2ca02c; opacity: 0.75"/>
   </g>
   <g id="patch_101">
    <path d="M 306.52953 333.4 
L 308.326212 333.4 
L 308.326212 277.556309 
L 306.52953 277.556309 
z
" clip-path="url(#pcfb113e2b1)" style="fill: #2ca02c; opacity: 0.75"/>
   </g>
   <g id="patch_102">
    <path d="M 308.99496 333.4 
L 310.791642 333.4 
L 310.791642 248.810519 
L 308.99496 248.810519 
z
" clip-path="url(#pcfb113e2b1)" style="fill: #2ca02c; opacity: 0.75"/>
   </g>
   <g id="patch_103">
    <path d="M 311.460389 333.4 
L 313.257071 333.4 
L 313.257071 301.449437 
L 311.460389 301.449437 
z
" clip-path="url(#pcfb113e2b1)" style="fill: #2ca02c; opacity: 0.75"/>
   </g>
   <g id="patch_104">
    <path d="M 313.925819 333.4 
L 315.722501 333.4 
L 315.722501 329.341299 
L 313.925819 329.341299 
z
" clip-path="url(#pcfb113e2b1)" style="fill: #2ca02c; opacity: 0.75"/>
   </g>
   <g id="patch_105">
    <path d="M 316.391249 333.4 
L 318.187931 333.4 
L 318.187931 268.816343 
L 316.391249 268.816343 
z
" clip-path="url(#pcfb113e2b1)" style="fill: #2ca02c; opacity: 0.75"/>
   </g>
   <g id="patch_106">
    <path d="M 318.856678 333.4 
L 320.65336 333.4 
L 320.65336 304.073159 
L 318.856678 304.073159 
z
" clip-path="url(#pcfb113e2b1)" style="fill: #2ca02c; opacity: 0.75"/>
   </g>
   <g id="patch_107">
    <path d="M 321.322108 333.4 
L 323.11879 333.4 
L 323.11879 307.086944 
L 321.322108 307.086944 
z
" clip-path="url(#pcfb113e2b1)" style="fill: #2ca02c; opacity: 0.75"/>
   </g>
   <g id="patch_108">
    <path d="M 323.787538 333.4 
L 325.58422 333.4 
L 325.58422 325.949464 
L 323.787538 325.949464 
z
" clip-path="url(#pcfb113e2b1)" style="fill: #2ca02c; opacity: 0.75"/>
   </g>
   <g id="patch_109">
    <path d="M 326.252967 333.4 
L 328.049649 333.4 
L 328.049649 312.85842 
L 326.252967 312.85842 
z
" clip-path="url(#pcfb113e2b1)" style="fill: #2ca02c; opacity: 0.75"/>
   </g>
   <g id="patch_110">
    <path d="M 328.718397 333.4 
L 330.515079 333.4 
L 330.515079 251.553174 
L 328.718397 251.553174 
z
" clip-path="url(#pcfb113e2b1)" style="fill: #2ca02c; opacity: 0.75"/>
   </g>
   <g id="patch_111">
    <path d="M 331.183827 333.4 
L 332.980509 333.4 
L 332.980509 310.525923 
L 331.183827 310.525923 
z
" clip-path="url(#pcfb113e2b1)" style="fill: #2ca02c; opacity: 0.75"/>
   </g>
   <g id="patch_112">
    <path d="M 333.649256 333.4 
L 335.445938 333.4 
L 335.445938 332.513006 
L 333.649256 332.513006 
z
" clip-path="url(#pcfb113e2b1)" style="fill: #2ca02c; opacity: 0.75"/>
   </g>
   <g id="patch_113">
    <path d="M 336.114686 333.4 
L 337.911368 333.4 
L 337.911368 313.116215 
L 336.114686 313.116215 
z
" clip-path="url(#pcfb113e2b1)" style="fill: #2ca02c; opacity: 0.75"/>
   </g>
   <g id="patch_114">
    <path d="M 338.580116 333.4 
L 340.376798 333.4 
L 340.376798 308.097933 
L 338.580116 308.097933 
z
" clip-path="url(#pcfb113e2b1)" style="fill: #2ca02c; opacity: 0.75"/>
   </g>
   <g id="patch_115">
    <path d="M 341.045545 333.4 
L 342.842227 333.4 
L 342.842227 295.248666 
L 341.045545 295.248666 
z
" clip-path="url(#pcfb113e2b1)" style="fill: #2ca02c; opacity: 0.75"/>
   </g>
   <g id="patch_116">
    <path d="M 343.510975 333.4 
L 345.307657 333.4 
L 345.307657 247.750173 
L 343.510975 247.750173 
z
" clip-path="url(#pcfb113e2b1)" style="fill: #2ca02c; opacity: 0.75"/>
   </g>
   <g id="patch_117">
    <path d="M 345.976405 333.4 
L 347.773087 333.4 
L 347.773087 330.055096 
L 345.976405 330.055096 
z
" clip-path="url(#pcfb113e2b1)" style="fill: #2ca02c; opacity: 0.75"/>
   </g>
   <g id="patch_118">
    <path d="M 348.441834 333.4 
L 350.238516 333.4 
L 350.238516 328.157834 
L 348.441834 328.157834 
z
" clip-path="url(#pcfb113e2b1)" style="fill: #2ca02c; opacity: 0.75"/>
   </g>
   <g id="patch_119">
    <path d="M 350.907264 333.4 
L 352.703946 333.4 
L 352.703946 245.351241 
L 350.907264 245.351241 
z
" clip-path="url(#pcfb113e2b1)" style="fill: #2ca02c; opacity: 0.75"/>
   </g>
   <g id="patch_120">
    <path d="M 353.372694 333.4 
L 355.169376 333.4 
L 355.169376 312.561379 
L 353.372694 312.561379 
z
" clip-path="url(#pcfb113e2b1)" style="fill: #2ca02c; opacity: 0.75"/>
   </g>
   <g id="patch_121">
    <path d="M 355.838123 333.4 
L 357.634805 333.4 
L 357.634805 329.055151 
L 355.838123 329.055151 
z
" clip-path="url(#pcfb113e2b1)" style="fill: #2ca02c; opacity: 0.75"/>
   </g>
   <g id="patch_122">
    <path d="M 358.303553 333.4 
L 360.100235 333.4 
L 360.100235 286.658434 
L 358.303553 286.658434 
z
" clip-path="url(#pcfb113e2b1)" style="fill: #2ca02c; opacity: 0.75"/>
   </g>
   <g id="patch_123">
    <path d="M 360.768983 333.4 
L 362.565665 333.4 
L 362.565665 331.051548 
L 360.768983 331.051548 
z
" clip-path="url(#pcfb113e2b1)" style="fill: #2ca02c; opacity: 0.75"/>
   </g>
   <g id="patch_124">
    <path d="M 363.234412 333.4 
L 365.031094 333.4 
L 365.031094 291.344819 
L 363.234412 291.344819 
z
" clip-path="url(#pcfb113e2b1)" style="fill: #2ca02c; opacity: 0.75"/>
   </g>
   <g id="patch_125">
    <path d="M 365.699842 333.4 
L 367.496524 333.4 
L 367.496524 223.150799 
L 365.699842 223.150799 
z
" clip-path="url(#pcfb113e2b1)" style="fill: #2ca02c; opacity: 0.75"/>
   </g>
   <g id="patch_126">
    <path d="M 368.165272 333.4 
L 369.961954 333.4 
L 369.961954 305.658462 
L 368.165272 305.658462 
z
" clip-path="url(#pcfb113e2b1)" style="fill: #2ca02c; opacity: 0.75"/>
   </g>
   <g id="patch_127">
    <path d="M 370.630702 333.4 
L 372.427383 333.4 
L 372.427383 302.747837 
L 370.630702 302.747837 
z
" clip-path="url(#pcfb113e2b1)" style="fill: #2ca02c; opacity: 0.75"/>
   </g>
   <g id="patch_128">
    <path d="M 373.096131 333.4 
L 374.892813 333.4 
L 374.892813 323.611461 
L 373.096131 323.611461 
z
" clip-path="url(#pcfb113e2b1)" style="fill: #2ca02c; opacity: 0.75"/>
   </g>
   <g id="patch_129">
    <path d="M 375.561561 333.4 
L 377.358243 333.4 
L 377.358243 296.760457 
L 375.561561 296.760457 
z
" clip-path="url(#pcfb113e2b1)" style="fill: #2ca02c; opacity: 0.75"/>
   </g>
   <g id="patch_130">
    <path d="M 378.026991 333.4 
L 379.823672 333.4 
L 379.823672 319.085783 
L 378.026991 319.085783 
z
" clip-path="url(#pcfb113e2b1)" style="fill: #2ca02c; opacity: 0.75"/>
   </g>
   <g id="patch_131">
    <path d="M 380.49242 333.4 
L 382.289102 333.4 
L 382.289102 307.586761 
L 380.49242 307.586761 
z
" clip-path="url(#pcfb113e2b1)" style="fill: #2ca02c; opacity: 0.75"/>
   </g>
   <g id="patch_132">
    <path d="M 382.95785 333.4 
L 384.754532 333.4 
L 384.754532 329.820324 
L 382.95785 329.820324 
z
" clip-path="url(#pcfb113e2b1)" style="fill: #2ca02c; opacity: 0.75"/>
   </g>
   <g id="patch_133">
    <path d="M 385.42328 333.4 
L 387.219961 333.4 
L 387.219961 320.710509 
L 385.42328 320.710509 
z
" clip-path="url(#pcfb113e2b1)" style="fill: #2ca02c; opacity: 0.75"/>
   </g>
   <g id="patch_134">
    <path d="M 387.888709 333.4 
L 389.685391 333.4 
L 389.685391 198.442691 
L 387.888709 198.442691 
z
" clip-path="url(#pcfb113e2b1)" style="fill: #2ca02c; opacity: 0.75"/>
   </g>
   <g id="patch_135">
    <path d="M 390.354139 333.4 
L 392.150821 333.4 
L 392.150821 318.951057 
L 390.354139 318.951057 
z
" clip-path="url(#pcfb113e2b1)" style="fill: #2ca02c; opacity: 0.75"/>
   </g>
   <g id="patch_136">
    <path d="M 392.819569 333.4 
L 394.61625 333.4 
L 394.61625 265.500004 
L 392.819569 265.500004 
z
" clip-path="url(#pcfb113e2b1)" style="fill: #2ca02c; opacity: 0.75"/>
   </g>
   <g id="patch_137">
    <path d="M 395.284998 333.4 
L 397.08168 333.4 
L 397.08168 298.010588 
L 395.284998 298.010588 
z
" clip-path="url(#pcfb113e2b1)" style="fill: #2ca02c; opacity: 0.75"/>
   </g>
   <g id="patch_138">
    <path d="M 397.750428 333.4 
L 399.54711 333.4 
L 399.54711 329.015186 
L 397.750428 329.015186 
z
" clip-path="url(#pcfb113e2b1)" style="fill: #2ca02c; opacity: 0.75"/>
   </g>
   <g id="patch_139">
    <path d="M 400.215858 333.4 
L 402.012539 333.4 
L 402.012539 303.392917 
L 400.215858 303.392917 
z
" clip-path="url(#pcfb113e2b1)" style="fill: #2ca02c; opacity: 0.75"/>
   </g>
   <g id="patch_140">
    <path d="M 402.681287 333.4 
L 404.477969 333.4 
L 404.477969 290.920249 
L 402.681287 290.920249 
z
" clip-path="url(#pcfb113e2b1)" style="fill: #2ca02c; opacity: 0.75"/>
   </g>
   <g id="patch_141">
    <path d="M 405.146717 333.4 
L 406.943399 333.4 
L 406.943399 320.684314 
L 405.146717 320.684314 
z
" clip-path="url(#pcfb113e2b1)" style="fill: #2ca02c; opacity: 0.75"/>
   </g>
   <g id="patch_142">
    <path d="M 407.612147 333.4 
L 409.408828 333.4 
L 409.408828 292.164149 
L 407.612147 292.164149 
z
" clip-path="url(#pcfb113e2b1)" style="fill: #2ca02c; opacity: 0.75"/>
   </g>
   <g id="patch_143">
    <path d="M 410.077576 333.4 
L 411.874258 333.4 
L 411.874258 303.051805 
L 410.077576 303.051805 
z
" clip-path="url(#pcfb113e2b1)" style="fill: #2ca02c; opacity: 0.75"/>
   </g>
   <g id="patch_144">
    <path d="M 412.543006 333.4 
L 414.339688 333.4 
L 414.339688 265.923924 
L 412.543006 265.923924 
z
" clip-path="url(#pcfb113e2b1)" style="fill: #2ca02c; opacity: 0.75"/>
   </g>
   <g id="patch_145">
    <path d="M 415.008436 333.4 
L 416.805118 333.4 
L 416.805118 307.416804 
L 415.008436 307.416804 
z
" clip-path="url(#pcfb113e2b1)" style="fill: #2ca02c; opacity: 0.75"/>
   </g>
   <g id="patch_146">
    <path d="M 417.473865 333.4 
L 419.270547 333.4 
L 419.270547 292.729634 
L 417.473865 292.729634 
z
" clip-path="url(#pcfb113e2b1)" style="fill: #2ca02c; opacity: 0.75"/>
   </g>
   <g id="patch_147">
    <path d="M 419.939295 333.4 
L 421.735977 333.4 
L 421.735977 239.107393 
L 419.939295 239.107393 
z
" clip-path="url(#pcfb113e2b1)" style="fill: #2ca02c; opacity: 0.75"/>
   </g>
   <g id="patch_148">
    <path d="M 422.404725 333.4 
L 424.201407 333.4 
L 424.201407 307.520007 
L 422.404725 307.520007 
z
" clip-path="url(#pcfb113e2b1)" style="fill: #2ca02c; opacity: 0.75"/>
   </g>
   <g id="patch_149">
    <path d="M 424.870154 333.4 
L 426.666836 333.4 
L 426.666836 272.416082 
L 424.870154 272.416082 
z
" clip-path="url(#pcfb113e2b1)" style="fill: #2ca02c; opacity: 0.75"/>
   </g>
   <g id="patch_150">
    <path d="M 427.335584 333.4 
L 429.132266 333.4 
L 429.132266 285.35005 
L 427.335584 285.35005 
z
" clip-path="url(#pcfb113e2b1)" style="fill: #2ca02c; opacity: 0.75"/>
   </g>
   <g id="patch_151">
    <path d="M 429.801014 333.4 
L 431.597696 333.4 
L 431.597696 317.874441 
L 429.801014 317.874441 
z
" clip-path="url(#pcfb113e2b1)" style="fill: #2ca02c; opacity: 0.75"/>
   </g>
   <g id="patch_152">
    <path d="M 432.266443 333.4 
L 434.063125 333.4 
L 434.063125 276.672228 
L 432.266443 276.672228 
z
" clip-path="url(#pcfb113e2b1)" style="fill: #2ca02c; opacity: 0.75"/>
   </g>
   <g id="patch_153">
    <path d="M 434.731873 333.4 
L 436.528555 333.4 
L 436.528555 327.233766 
L 434.731873 327.233766 
z
" clip-path="url(#pcfb113e2b1)" style="fill: #2ca02c; opacity: 0.75"/>
   </g>
   <g id="patch_154">
    <path d="M 437.197303 333.4 
L 438.993985 333.4 
L 438.993985 304.376908 
L 437.197303 304.376908 
z
" clip-path="url(#pcfb113e2b1)" style="fill: #2ca02c; opacity: 0.75"/>
   </g>
   <g id="patch_155">
    <path d="M 439.662732 333.4 
L 441.459414 333.4 
L 441.459414 250.697946 
L 439.662732 250.697946 
z
" clip-path="url(#pcfb113e2b1)" style="fill: #2ca02c; opacity: 0.75"/>
   </g>
   <g id="patch_156">
    <path d="M 442.128162 333.4 
L 443.924844 333.4 
L 443.924844 300.805341 
L 442.128162 300.805341 
z
" clip-path="url(#pcfb113e2b1)" style="fill: #2ca02c; opacity: 0.75"/>
   </g>
   <g id="patch_157">
    <path d="M 444.593592 333.4 
L 446.390274 333.4 
L 446.390274 249.267794 
L 444.593592 249.267794 
z
" clip-path="url(#pcfb113e2b1)" style="fill: #2ca02c; opacity: 0.75"/>
   </g>
   <g id="patch_158">
    <path d="M 447.059021 333.4 
L 448.855703 333.4 
L 448.855703 331.56379 
L 447.059021 331.56379 
z
" clip-path="url(#pcfb113e2b1)" style="fill: #2ca02c; opacity: 0.75"/>
   </g>
   <g id="patch_159">
    <path d="M 449.524451 333.4 
L 451.321133 333.4 
L 451.321133 248.229755 
L 449.524451 248.229755 
z
" clip-path="url(#pcfb113e2b1)" style="fill: #2ca02c; opacity: 0.75"/>
   </g>
   <g id="patch_160">
    <path d="M 451.989881 333.4 
L 453.786563 333.4 
L 453.786563 323.955887 
L 451.989881 323.955887 
z
" clip-path="url(#pcfb113e2b1)" style="fill: #2ca02c; opacity: 0.75"/>
   </g>
   <g id="patch_161">
    <path d="M 454.45531 333.4 
L 456.251992 333.4 
L 456.251992 281.728873 
L 454.45531 281.728873 
z
" clip-path="url(#pcfb113e2b1)" style="fill: #2ca02c; opacity: 0.75"/>
   </g>
   <g id="patch_162">
    <path d="M 456.92074 333.4 
L 458.717422 333.4 
L 458.717422 303.10362 
L 456.92074 303.10362 
z
" clip-path="url(#pcfb113e2b1)" style="fill: #2ca02c; opacity: 0.75"/>
   </g>
   <g id="patch_163">
    <path d="M 459.38617 333.4 
L 461.182852 333.4 
L 461.182852 328.392667 
L 459.38617 328.392667 
z
" clip-path="url(#pcfb113e2b1)" style="fill: #2ca02c; opacity: 0.75"/>
   </g>
   <g id="patch_164">
    <path d="M 461.851599 333.4 
L 463.648281 333.4 
L 463.648281 296.191924 
L 461.851599 296.191924 
z
" clip-path="url(#pcfb113e2b1)" style="fill: #2ca02c; opacity: 0.75"/>
   </g>
   <g id="patch_165">
    <path d="M 464.317029 333.4 
L 466.113711 333.4 
L 466.113711 249.183104 
L 464.317029 249.183104 
z
" clip-path="url(#pcfb113e2b1)" style="fill: #2ca02c; opacity: 0.75"/>
   </g>
   <g id="patch_166">
    <path d="M 466.782459 333.4 
L 468.579141 333.4 
L 468.579141 329.251393 
L 466.782459 329.251393 
z
" clip-path="url(#pcfb113e2b1)" style="fill: #2ca02c; opacity: 0.75"/>
   </g>
   <g id="patch_167">
    <path d="M 469.247888 333.4 
L 471.04457 333.4 
L 471.04457 287.168708 
L 469.247888 287.168708 
z
" clip-path="url(#pcfb113e2b1)" style="fill: #2ca02c; opacity: 0.75"/>
   </g>
   <g id="patch_168">
    <path d="M 471.713318 333.4 
L 473.51 333.4 
L 473.51 253.255911 
L 471.713318 253.255911 
z
" clip-path="url(#pcfb113e2b1)" style="fill: #2ca02c; opacity: 0.75"/>
   </g>
   <g id="matplotlib.axis_3">
    <g id="xtick_8">
     <g id="line2d_31">
      <path d="M 80.608341 333.4 
L 80.608341 186.81 
" clip-path="url(#pcfb113e2b1)" style="fill: none; stroke: #b0b0b0; stroke-opacity: 0.25; stroke-width: 0.8; stroke-linecap: square"/>
     </g>
     <g id="line2d_32">
      <g>
       <use xlink:href="#m35c93cd32a" x="80.608341" y="333.4" style="stroke: #000000; stroke-width: 0.8"/>
      </g>
     </g>
     <g id="text_11">
      <!-- 0 -->
      <g transform="translate(77.427091 347.998438) scale(0.1 -0.1)">
       <use xlink:href="#DejaVuSans-30"/>
      </g>
     </g>
    </g>
    <g id="xtick_9">
     <g id="line2d_33">
      <path d="M 145.942227 333.4 
L 145.942227 186.81 
" clip-path="url(#pcfb113e2b1)" style="fill: none; stroke: #b0b0b0; stroke-opacity: 0.25; stroke-width: 0.8; stroke-linecap: square"/>
     </g>
     <g id="line2d_34">
      <g>
       <use xlink:href="#m35c93cd32a" x="145.942227" y="333.4" style="stroke: #000000; stroke-width: 0.8"/>
      </g>
     </g>
     <g id="text_12">
      <!-- 2 -->
      <g transform="translate(142.760977 347.998438) scale(0.1 -0.1)">
       <use xlink:href="#DejaVuSans-32"/>
      </g>
     </g>
    </g>
    <g id="xtick_10">
     <g id="line2d_35">
      <path d="M 211.276114 333.4 
L 211.276114 186.81 
" clip-path="url(#pcfb113e2b1)" style="fill: none; stroke: #b0b0b0; stroke-opacity: 0.25; stroke-width: 0.8; stroke-linecap: square"/>
     </g>
     <g id="line2d_36">
      <g>
       <use xlink:href="#m35c93cd32a" x="211.276114" y="333.4" style="stroke: #000000; stroke-width: 0.8"/>
      </g>
     </g>
     <g id="text_13">
      <!-- 4 -->
      <g transform="translate(208.094864 347.998438) scale(0.1 -0.1)">
       <defs>
        <path id="DejaVuSans-34" d="M 2419 4116 
L 825 1625 
L 2419 1625 
L 2419 4116 
z
M 2253 4666 
L 3047 4666 
L 3047 1625 
L 3713 1625 
L 3713 1100 
L 3047 1100 
L 3047 0 
L 2419 0 
L 2419 1100 
L 313 1100 
L 313 1709 
L 2253 4666 
z
" transform="scale(0.015625)"/>
       </defs>
       <use xlink:href="#DejaVuSans-34"/>
      </g>
     </g>
    </g>
    <g id="xtick_11">
     <g id="line2d_37">
      <path d="M 276.61 333.4 
L 276.61 186.81 
" clip-path="url(#pcfb113e2b1)" style="fill: none; stroke: #b0b0b0; stroke-opacity: 0.25; stroke-width: 0.8; stroke-linecap: square"/>
     </g>
     <g id="line2d_38">
      <g>
       <use xlink:href="#m35c93cd32a" x="276.61" y="333.4" style="stroke: #000000; stroke-width: 0.8"/>
      </g>
     </g>
     <g id="text_14">
      <!-- 6 -->
      <g transform="translate(273.42875 347.998438) scale(0.1 -0.1)">
       <defs>
        <path id="DejaVuSans-36" d="M 2113 2584 
Q 1688 2584 1439 2293 
Q 1191 2003 1191 1497 
Q 1191 994 1439 701 
Q 1688 409 2113 409 
Q 2538 409 2786 701 
Q 3034 994 3034 1497 
Q 3034 2003 2786 2293 
Q 2538 2584 2113 2584 
z
M 3366 4563 
L 3366 3988 
Q 3128 4100 2886 4159 
Q 2644 4219 2406 4219 
Q 1781 4219 1451 3797 
Q 1122 3375 1075 2522 
Q 1259 2794 1537 2939 
Q 1816 3084 2150 3084 
Q 2853 3084 3261 2657 
Q 3669 2231 3669 1497 
Q 3669 778 3244 343 
Q 2819 -91 2113 -91 
Q 1303 -91 875 529 
Q 447 1150 447 2328 
Q 447 3434 972 4092 
Q 1497 4750 2381 4750 
Q 2619 4750 2861 4703 
Q 3103 4656 3366 4563 
z
" transform="scale(0.015625)"/>
       </defs>
       <use xlink:href="#DejaVuSans-36"/>
      </g>
     </g>
    </g>
    <g id="xtick_12">
     <g id="line2d_39">
      <path d="M 341.943886 333.4 
L 341.943886 186.81 
" clip-path="url(#pcfb113e2b1)" style="fill: none; stroke: #b0b0b0; stroke-opacity: 0.25; stroke-width: 0.8; stroke-linecap: square"/>
     </g>
     <g id="line2d_40">
      <g>
       <use xlink:href="#m35c93cd32a" x="341.943886" y="333.4" style="stroke: #000000; stroke-width: 0.8"/>
      </g>
     </g>
     <g id="text_15">
      <!-- 8 -->
      <g transform="translate(338.762636 347.998438) scale(0.1 -0.1)">
       <defs>
        <path id="DejaVuSans-38" d="M 2034 2216 
Q 1584 2216 1326 1975 
Q 1069 1734 1069 1313 
Q 1069 891 1326 650 
Q 1584 409 2034 409 
Q 2484 409 2743 651 
Q 3003 894 3003 1313 
Q 3003 1734 2745 1975 
Q 2488 2216 2034 2216 
z
M 1403 2484 
Q 997 2584 770 2862 
Q 544 3141 544 3541 
Q 544 4100 942 4425 
Q 1341 4750 2034 4750 
Q 2731 4750 3128 4425 
Q 3525 4100 3525 3541 
Q 3525 3141 3298 2862 
Q 3072 2584 2669 2484 
Q 3125 2378 3379 2068 
Q 3634 1759 3634 1313 
Q 3634 634 3220 271 
Q 2806 -91 2034 -91 
Q 1263 -91 848 271 
Q 434 634 434 1313 
Q 434 1759 690 2068 
Q 947 2378 1403 2484 
z
M 1172 3481 
Q 1172 3119 1398 2916 
Q 1625 2713 2034 2713 
Q 2441 2713 2670 2916 
Q 2900 3119 2900 3481 
Q 2900 3844 2670 4047 
Q 2441 4250 2034 4250 
Q 1625 4250 1398 4047 
Q 1172 3844 1172 3481 
z
" transform="scale(0.015625)"/>
       </defs>
       <use xlink:href="#DejaVuSans-38"/>
      </g>
     </g>
    </g>
    <g id="xtick_13">
     <g id="line2d_41">
      <path d="M 407.277773 333.4 
L 407.277773 186.81 
" clip-path="url(#pcfb113e2b1)" style="fill: none; stroke: #b0b0b0; stroke-opacity: 0.25; stroke-width: 0.8; stroke-linecap: square"/>
     </g>
     <g id="line2d_42">
      <g>
       <use xlink:href="#m35c93cd32a" x="407.277773" y="333.4" style="stroke: #000000; stroke-width: 0.8"/>
      </g>
     </g>
     <g id="text_16">
      <!-- 10 -->
      <g transform="translate(400.915273 347.998438) scale(0.1 -0.1)">
       <defs>
        <path id="DejaVuSans-31" d="M 794 531 
L 1825 531 
L 1825 4091 
L 703 3866 
L 703 4441 
L 1819 4666 
L 2450 4666 
L 2450 531 
L 3481 531 
L 3481 0 
L 794 0 
L 794 531 
z
" transform="scale(0.015625)"/>
       </defs>
       <use xlink:href="#DejaVuSans-31"/>
       <use xlink:href="#DejaVuSans-30" transform="translate(63.623047 0)"/>
      </g>
     </g>
    </g>
    <g id="xtick_14">
     <g id="line2d_43">
      <path d="M 472.611659 333.4 
L 472.611659 186.81 
" clip-path="url(#pcfb113e2b1)" style="fill: none; stroke: #b0b0b0; stroke-opacity: 0.25; stroke-width: 0.8; stroke-linecap: square"/>
     </g>
     <g id="line2d_44">
      <g>
       <use xlink:href="#m35c93cd32a" x="472.611659" y="333.4" style="stroke: #000000; stroke-width: 0.8"/>
      </g>
     </g>
     <g id="text_17">
      <!-- 12 -->
      <g transform="translate(466.249159 347.998438) scale(0.1 -0.1)">
       <use xlink:href="#DejaVuSans-31"/>
       <use xlink:href="#DejaVuSans-32" transform="translate(63.623047 0)"/>
      </g>
     </g>
    </g>
    <g id="text_18">
     <!-- Time (s) -->
     <g transform="translate(256.281094 361.676562) scale(0.1 -0.1)">
      <defs>
       <path id="DejaVuSans-54" d="M -19 4666 
L 3928 4666 
L 3928 4134 
L 2272 4134 
L 2272 0 
L 1638 0 
L 1638 4134 
L -19 4134 
L -19 4666 
z
" transform="scale(0.015625)"/>
      </defs>
      <use xlink:href="#DejaVuSans-54"/>
      <use xlink:href="#DejaVuSans-69" transform="translate(57.958984 0)"/>
      <use xlink:href="#DejaVuSans-6d" transform="translate(85.742188 0)"/>
      <use xlink:href="#DejaVuSans-65" transform="translate(183.154297 0)"/>
      <use xlink:href="#DejaVuSans-20" transform="translate(244.677734 0)"/>
      <use xlink:href="#DejaVuSans-28" transform="translate(276.464844 0)"/>
      <use xlink:href="#DejaVuSans-73" transform="translate(315.478516 0)"/>
      <use xlink:href="#DejaVuSans-29" transform="translate(367.578125 0)"/>
     </g>
    </g>
   </g>
   <g id="matplotlib.axis_4">
    <g id="ytick_7">
     <g id="line2d_45">
      <path d="M 60.02 333.4 
L 493.2 333.4 
" clip-path="url(#pcfb113e2b1)" style="fill: none; stroke: #b0b0b0; stroke-opacity: 0.25; stroke-width: 0.8; stroke-linecap: square"/>
     </g>
     <g id="line2d_46">
      <g>
       <use xlink:href="#m234d8a58c1" x="60.02" y="333.4" style="stroke: #000000; stroke-width: 0.8"/>
      </g>
     </g>
     <g id="text_19">
      <!-- 0.00 -->
      <g transform="translate(30.754375 337.199219) scale(0.1 -0.1)">
       <use xlink:href="#DejaVuSans-30"/>
       <use xlink:href="#DejaVuSans-2e" transform="translate(63.623047 0)"/>
       <use xlink:href="#DejaVuSans-30" transform="translate(95.410156 0)"/>
       <use xlink:href="#DejaVuSans-30" transform="translate(159.033203 0)"/>
      </g>
     </g>
    </g>
    <g id="ytick_8">
     <g id="line2d_47">
      <path d="M 60.02 311.051922 
L 493.2 311.051922 
" clip-path="url(#pcfb113e2b1)" style="fill: none; stroke: #b0b0b0; stroke-opacity: 0.25; stroke-width: 0.8; stroke-linecap: square"/>
     </g>
     <g id="line2d_48">
      <g>
       <use xlink:href="#m234d8a58c1" x="60.02" y="311.051922" style="stroke: #000000; stroke-width: 0.8"/>
      </g>
     </g>
     <g id="text_20">
      <!-- 0.02 -->
      <g transform="translate(30.754375 314.851141) scale(0.1 -0.1)">
       <use xlink:href="#DejaVuSans-30"/>
       <use xlink:href="#DejaVuSans-2e" transform="translate(63.623047 0)"/>
       <use xlink:href="#DejaVuSans-30" transform="translate(95.410156 0)"/>
       <use xlink:href="#DejaVuSans-32" transform="translate(159.033203 0)"/>
      </g>
     </g>
    </g>
    <g id="ytick_9">
     <g id="line2d_49">
      <path d="M 60.02 288.703844 
L 493.2 288.703844 
" clip-path="url(#pcfb113e2b1)" style="fill: none; stroke: #b0b0b0; stroke-opacity: 0.25; stroke-width: 0.8; stroke-linecap: square"/>
     </g>
     <g id="line2d_50">
      <g>
       <use xlink:href="#m234d8a58c1" x="60.02" y="288.703844" style="stroke: #000000; stroke-width: 0.8"/>
      </g>
     </g>
     <g id="text_21">
      <!-- 0.04 -->
      <g transform="translate(30.754375 292.503062) scale(0.1 -0.1)">
       <use xlink:href="#DejaVuSans-30"/>
       <use xlink:href="#DejaVuSans-2e" transform="translate(63.623047 0)"/>
       <use xlink:href="#DejaVuSans-30" transform="translate(95.410156 0)"/>
       <use xlink:href="#DejaVuSans-34" transform="translate(159.033203 0)"/>
      </g>
     </g>
    </g>
    <g id="ytick_10">
     <g id="line2d_51">
      <path d="M 60.02 266.355766 
L 493.2 266.355766 
" clip-path="url(#pcfb113e2b1)" style="fill: none; stroke: #b0b0b0; stroke-opacity: 0.25; stroke-width: 0.8; stroke-linecap: square"/>
     </g>
     <g id="line2d_52">
      <g>
       <use xlink:href="#m234d8a58c1" x="60.02" y="266.355766" style="stroke: #000000; stroke-width: 0.8"/>
      </g>
     </g>
     <g id="text_22">
      <!-- 0.06 -->
      <g transform="translate(30.754375 270.154984) scale(0.1 -0.1)">
       <use xlink:href="#DejaVuSans-30"/>
       <use xlink:href="#DejaVuSans-2e" transform="translate(63.623047 0)"/>
       <use xlink:href="#DejaVuSans-30" transform="translate(95.410156 0)"/>
       <use xlink:href="#DejaVuSans-36" transform="translate(159.033203 0)"/>
      </g>
     </g>
    </g>
    <g id="ytick_11">
     <g id="line2d_53">
      <path d="M 60.02 244.007687 
L 493.2 244.007687 
" clip-path="url(#pcfb113e2b1)" style="fill: none; stroke: #b0b0b0; stroke-opacity: 0.25; stroke-width: 0.8; stroke-linecap: square"/>
     </g>
     <g id="line2d_54">
      <g>
       <use xlink:href="#m234d8a58c1" x="60.02" y="244.007687" style="stroke: #000000; stroke-width: 0.8"/>
      </g>
     </g>
     <g id="text_23">
      <!-- 0.08 -->
      <g transform="translate(30.754375 247.806906) scale(0.1 -0.1)">
       <use xlink:href="#DejaVuSans-30"/>
       <use xlink:href="#DejaVuSans-2e" transform="translate(63.623047 0)"/>
       <use xlink:href="#DejaVuSans-30" transform="translate(95.410156 0)"/>
       <use xlink:href="#DejaVuSans-38" transform="translate(159.033203 0)"/>
      </g>
     </g>
    </g>
    <g id="ytick_12">
     <g id="line2d_55">
      <path d="M 60.02 221.659609 
L 493.2 221.659609 
" clip-path="url(#pcfb113e2b1)" style="fill: none; stroke: #b0b0b0; stroke-opacity: 0.25; stroke-width: 0.8; stroke-linecap: square"/>
     </g>
     <g id="line2d_56">
      <g>
       <use xlink:href="#m234d8a58c1" x="60.02" y="221.659609" style="stroke: #000000; stroke-width: 0.8"/>
      </g>
     </g>
     <g id="text_24">
      <!-- 0.10 -->
      <g transform="translate(30.754375 225.458828) scale(0.1 -0.1)">
       <use xlink:href="#DejaVuSans-30"/>
       <use xlink:href="#DejaVuSans-2e" transform="translate(63.623047 0)"/>
       <use xlink:href="#DejaVuSans-31" transform="translate(95.410156 0)"/>
       <use xlink:href="#DejaVuSans-30" transform="translate(159.033203 0)"/>
      </g>
     </g>
    </g>
    <g id="ytick_13">
     <g id="line2d_57">
      <path d="M 60.02 199.311531 
L 493.2 199.311531 
" clip-path="url(#pcfb113e2b1)" style="fill: none; stroke: #b0b0b0; stroke-opacity: 0.25; stroke-width: 0.8; stroke-linecap: square"/>
     </g>
     <g id="line2d_58">
      <g>
       <use xlink:href="#m234d8a58c1" x="60.02" y="199.311531" style="stroke: #000000; stroke-width: 0.8"/>
      </g>
     </g>
     <g id="text_25">
      <!-- 0.12 -->
      <g transform="translate(30.754375 203.11075) scale(0.1 -0.1)">
       <use xlink:href="#DejaVuSans-30"/>
       <use xlink:href="#DejaVuSans-2e" transform="translate(63.623047 0)"/>
       <use xlink:href="#DejaVuSans-31" transform="translate(95.410156 0)"/>
       <use xlink:href="#DejaVuSans-32" transform="translate(159.033203 0)"/>
      </g>
     </g>
    </g>
    <g id="text_26">
     <!-- Residual (a.u.) -->
     <g transform="translate(24.674688 296.122187) rotate(-90) scale(0.1 -0.1)">
      <use xlink:href="#DejaVuSans-52"/>
      <use xlink:href="#DejaVuSans-65" transform="translate(64.982422 0)"/>
      <use xlink:href="#DejaVuSans-73" transform="translate(126.505859 0)"/>
      <use xlink:href="#DejaVuSans-69" transform="translate(178.605469 0)"/>
      <use xlink:href="#DejaVuSans-64" transform="translate(206.388672 0)"/>
      <use xlink:href="#DejaVuSans-75" transform="translate(269.865234 0)"/>
      <use xlink:href="#DejaVuSans-61" transform="translate(333.244141 0)"/>
      <use xlink:href="#DejaVuSans-6c" transform="translate(394.523438 0)"/>
      <use xlink:href="#DejaVuSans-20" transform="translate(422.306641 0)"/>
      <use xlink:href="#DejaVuSans-28" transform="translate(454.09375 0)"/>
      <use xlink:href="#DejaVuSans-61" transform="translate(493.107422 0)"/>
      <use xlink:href="#DejaVuSans-2e" transform="translate(554.386719 0)"/>
      <use xlink:href="#DejaVuSans-75" transform="translate(586.173828 0)"/>
      <use xlink:href="#DejaVuSans-2e" transform="translate(649.552734 0)"/>
      <use xlink:href="#DejaVuSans-29" transform="translate(681.339844 0)"/>
     </g>
    </g>
   </g>
   <g id="patch_169">
    <path d="M 60.02 333.4 
L 60.02 186.81 
" style="fill: none; stroke: #000000; stroke-width: 0.8; stroke-linejoin: miter; stroke-linecap: square"/>
   </g>
   <g id="patch_170">
    <path d="M 493.2 333.4 
L 493.2 186.81 
" style="fill: none; stroke: #000000; stroke-width: 0.8; stroke-linejoin: miter; stroke-linecap: square"/>
   </g>
   <g id="patch_171">
    <path d="M 60.02 333.4 
L 493.2 333.4 
" style="fill: none; stroke: #000000; stroke-width: 0.8; stroke-linejoin: miter; stroke-linecap: square"/>
   </g>
   <g id="patch_172">
    <path d="M 60.02 186.81 
L 493.2 186.81 
" style="fill: none; stroke: #000000; stroke-width: 0.8; stroke-linejoin: miter; stroke-linecap: square"/>
   </g>
  </g>
 </g>
 <defs>
  <clipPath id="p0585d821ff">
   <rect x="60.02" y="25.92" width="433.18" height="146.59"/>
  </clipPath>
  <clipPath id="pcfb113e2b1">
   <rect x="60.02" y="186.81" width="433.18" height="146.59"/>
  </clipPath>
 </defs>
</svg>
