<?xml version="1.0" encoding="utf-8" standalone="no"?>
<!DOCTYPE svg PUBLIC "-//W3C//DTD SVG 1.1//EN"
  "http://www.w3.org/Graphics/SVG/1.1/DTD/svg11.dtd">
<svg xmlns:xlink="http://www.w3.org/1999/xlink" width="432pt" height="288pt" viewBox="0 0 432 288" xmlns="http://www.w3.org/2000/svg" version="1.1">
 <metadata>
  <rdf:RDF xmlns:dc="http://purl.org/dc/elements/1.1/" xmlns:cc="http://creativecommons.org/ns#" xmlns:rdf="http://www.w3.org/1999/02/22-rdf-syntax-ns#">
   <cc:Work>
    <dc:type rdf:resource="http://purl.org/dc/dcmitype/StillImage"/>
    <dc:date>2026-05-04T14:56:49.447469</dc:date>
    <dc:format>image/svg+xml</dc:format>
    <dc:creator>
     <cc:Agent>
      <dc:title>Matplotlib v3.10.9, https://matplotlib.org/</dc:title>
     </cc:Agent>
    </dc:creator>
   </cc:Work>
  </rdf:RDF>
 </metadata>
 <defs>
  <style type="text/css">*{stroke-linejoin: round; stroke-linecap: butt}</style>
 </defs>
 <g id="figure_1">
  <g id="patch_1">
   <path d="M 0 288 
L 432 288 
L 432 0 
L 0 0 
z
" style="fill: #ffffff"/>
  </g>
  <g id="axes_1">
   <g id="patch_2">
    <path d="M 44.18 247 
L 421.2 247 
L 421.2 25.92 
L 44.18 25.92 
z
" style="fill: #ffffff"/>
   </g>
   <g id="matplotlib.axis_1">
    <g id="xtick_1">
     <g id="line2d_1">
      <path d="M 61.317273 247 
L 61.317273 25.92 
" clip-path="url(#pdb0ebc0a51)" style="fill: none; stroke: #b0b0b0; stroke-opacity: 0.25; stroke-width: 0.8; stroke-linecap: square"/>
     </g>
     <g id="line2d_2">
      <defs>
       <path id="m6d3ab69c21" d="M 0 0 
L 0 3.5 
" style="stroke: #000000; stroke-width: 0.8"/>
      </defs>
      <g>
       <use xlink:href="#m6d3ab69c21" x="61.317273" y="247" style="stroke: #000000; stroke-width: 0.8"/>
      </g>
     </g>
     <g id="text_1">
      <!-- 0 -->
      <g transform="translate(58.136023 261.598437) scale(0.1 -0.1)">
       <defs>
        <path id="DejaVuSans-30" d="M 2034 4250 
Q 1547 4250 1301 3770 
Q 1056 3291 1056 2328 
Q 1056 1369 1301 889 
Q 1547 409 2034 409 
Q 2525 409 2770 889 
Q 3016 1369 3016 2328 
Q 3016 3291 2770 3770 
Q 2525 4250 2034 4250 
z
M 2034 4750 
Q 2819 4750 3233 4129 
Q 3647 3509 3647 2328 
Q 3647 1150 3233 529 
Q 2819 -91 2034 -91 
Q 1250 -91 836 529 
Q 422 1150 422 2328 
Q 422 3509 836 4129 
Q 1250 4750 2034 4750 
z
" transform="scale(0.015625)"/>
       </defs>
       <use xlink:href="#DejaVuSans-30"/>
      </g>
     </g>
    </g>
    <g id="xtick_2">
     <g id="line2d_3">
      <path d="M 129.866364 247 
L 129.866364 25.92 
" clip-path="url(#pdb0ebc0a51)" style="fill: none; stroke: #b0b0b0; stroke-opacity: 0.25; stroke-width: 0.8; stroke-linecap: square"/>
     </g>
     <g id="line2d_4">
      <g>
       <use xlink:href="#m6d3ab69c21" x="129.866364" y="247" style="stroke: #000000; stroke-width: 0.8"/>
      </g>
     </g>
     <g id="text_2">
      <!-- 2 -->
      <g transform="translate(126.685114 261.598437) scale(0.1 -0.1)">
       <defs>
        <path id="DejaVuSans-32" d="M 1228 531 
L 3431 531 
L 3431 0 
L 469 0 
L 469 531 
Q 828 903 1448 1529 
Q 2069 2156 2228 2338 
Q 2531 2678 2651 2914 
Q 2772 3150 2772 3378 
Q 2772 3750 2511 3984 
Q 2250 4219 1831 4219 
Q 1534 4219 1204 4116 
Q 875 4013 500 3803 
L 500 4441 
Q 881 4594 1212 4672 
Q 1544 4750 1819 4750 
Q 2544 4750 2975 4387 
Q 3406 4025 3406 3419 
Q 3406 3131 3298 2873 
Q 3191 2616 2906 2266 
Q 2828 2175 2409 1742 
Q 1991 1309 1228 531 
z
" transform="scale(0.015625)"/>
       </defs>
       <use xlink:href="#DejaVuSans-32"/>
      </g>
     </g>
    </g>
    <g id="xtick_3">
     <g id="line2d_5">
      <path d="M 198.415455 247 
L 198.415455 25.92 
" clip-path="url(#pdb0ebc0a51)" style="fill: none; stroke: #b0b0b0; stroke-opacity: 0.25; stroke-width: 0.8; stroke-linecap: square"/>
     </g>
     <g id="line2d_6">
      <g>
       <use xlink:href="#m6d3ab69c21" x="198.415455" y="247" style="stroke: #000000; stroke-width: 0.8"/>
      </g>
     </g>
     <g id="text_3">
      <!-- 4 -->
      <g transform="translate(195.234205 261.598437) scale(0.1 -0.1)">
       <defs>
        <path id="DejaVuSans-34" d="M 2419 4116 
L 825 1625 
L 2419 1625 
L 2419 4116 
z
M 2253 4666 
L 3047 4666 
L 3047 1625 
L 3713 1625 
L 3713 1100 
L 3047 1100 
L 3047 0 
L 2419 0 
L 2419 1100 
L 313 1100 
L 313 1709 
L 2253 4666 
z
" transform="scale(0.015625)"/>
       </defs>
       <use xlink:href="#DejaVuSans-34"/>
      </g>
     </g>
    </g>
    <g id="xtick_4">
     <g id="line2d_7">
      <path d="M 266.964545 247 
L 266.964545 25.92 
" clip-path="url(#pdb0ebc0a51)" style="fill: none; stroke: #b0b0b0; stroke-opacity: 0.25; stroke-width: 0.8; stroke-linecap: square"/>
     </g>
     <g id="line2d_8">
      <g>
       <use xlink:href="#m6d3ab69c21" x="266.964545" y="247" style="stroke: #000000; stroke-width: 0.8"/>
      </g>
     </g>
     <g id="text_4">
      <!-- 6 -->
      <g transform="translate(263.783295 261.598437) scale(0.1 -0.1)">
       <defs>
        <path id="DejaVuSans-36" d="M 2113 2584 
Q 1688 2584 1439 2293 
Q 1191 2003 1191 1497 
Q 1191 994 1439 701 
Q 1688 409 2113 409 
Q 2538 409 2786 701 
Q 3034 994 3034 1497 
Q 3034 2003 2786 2293 
Q 2538 2584 2113 2584 
z
M 3366 4563 
L 3366 3988 
Q 3128 4100 2886 4159 
Q 2644 4219 2406 4219 
Q 1781 4219 1451 3797 
Q 1122 3375 1075 2522 
Q 1259 2794 1537 2939 
Q 1816 3084 2150 3084 
Q 2853 3084 3261 2657 
Q 3669 2231 3669 1497 
Q 3669 778 3244 343 
Q 2819 -91 2113 -91 
Q 1303 -91 875 529 
Q 447 1150 447 2328 
Q 447 3434 972 4092 
Q 1497 4750 2381 4750 
Q 2619 4750 2861 4703 
Q 3103 4656 3366 4563 
z
" transform="scale(0.015625)"/>
       </defs>
       <use xlink:href="#DejaVuSans-36"/>
      </g>
     </g>
    </g>
    <g id="xtick_5">
     <g id="line2d_9">
      <path d="M 335.513636 247 
L 335.513636 25.92 
" clip-path="url(#pdb0ebc0a51)" style="fill: none; stroke: #b0b0b0; stroke-opacity: 0.25; stroke-width: 0.8; stroke-linecap: square"/>
     </g>
     <g id="line2d_10">
      <g>
       <use xlink:href="#m6d3ab69c21" x="335.513636" y="247" style="stroke: #000000; stroke-width: 0.8"/>
      </g>
     </g>
     <g id="text_5">
      <!-- 8 -->
      <g transform="translate(332.332386 261.598437) scale(0.1 -0.1)">
       <defs>
        <path id="DejaVuSans-38" d="M 2034 2216 
Q 1584 2216 1326 1975 
Q 1069 1734 1069 1313 
Q 1069 891 1326 650 
Q 1584 409 2034 409 
Q 2484 409 2743 651 
Q 3003 894 3003 1313 
Q 3003 1734 2745 1975 
Q 2488 2216 2034 2216 
z
M 1403 2484 
Q 997 2584 770 2862 
Q 544 3141 544 3541 
Q 544 4100 942 4425 
Q 1341 4750 2034 4750 
Q 2731 4750 3128 4425 
Q 3525 4100 3525 3541 
Q 3525 3141 3298 2862 
Q 3072 2584 2669 2484 
Q 3125 2378 3379 2068 
Q 3634 1759 3634 1313 
Q 3634 634 3220 271 
Q 2806 -91 2034 -91 
Q 1263 -91 848 271 
Q 434 634 434 1313 
Q 434 1759 690 2068 
Q 947 2378 1403 2484 
z
M 1172 3481 
Q 1172 3119 1398 2916 
Q 1625 2713 2034 2713 
Q 2441 2713 2670 2916 
Q 2900 3119 2900 3481 
Q 2900 3844 2670 4047 
Q 2441 4250 2034 4250 
Q 1625 4250 1398 4047 
Q 1172 3844 1172 3481 
z
" transform="scale(0.015625)"/>
       </defs>
       <use xlink:href="#DejaVuSans-38"/>
      </g>
     </g>
    </g>
    <g id="xtick_6">
     <g id="line2d_11">
      <path d="M 404.062727 247 
L 404.062727 25.92 
" clip-path="url(#pdb0ebc0a51)" style="fill: none; stroke: #b0b0b0; stroke-opacity: 0.25; stroke-width: 0.8; stroke-linecap: square"/>
     </g>
     <g id="line2d_12">
      <g>
       <use xlink:href="#m6d3ab69c21" x="404.062727" y="247" style="stroke: #000000; stroke-width: 0.8"/>
      </g>
     </g>
     <g id="text_6">
      <!-- 10 -->
      <g transform="translate(397.700227 261.598437) scale(0.1 -0.1)">
       <defs>
        <path id="DejaVuSans-31" d="M 794 531 
L 1825 531 
L 1825 4091 
L 703 3866 
L 703 4441 
L 1819 4666 
L 2450 4666 
L 2450 531 
L 3481 531 
L 3481 0 
L 794 0 
L 794 531 
z
" transform="scale(0.015625)"/>
       </defs>
       <use xlink:href="#DejaVuSans-31"/>
       <use xlink:href="#DejaVuSans-30" transform="translate(63.623047 0)"/>
      </g>
     </g>
    </g>
    <g id="text_7">
     <!-- Time (s) -->
     <g transform="translate(212.361094 275.276563) scale(0.1 -0.1)">
      <defs>
       <path id="DejaVuSans-54" d="M -19 4666 
L 3928 4666 
L 3928 4134 
L 2272 4134 
L 2272 0 
L 1638 0 
L 1638 4134 
L -19 4134 
L -19 4666 
z
" transform="scale(0.015625)"/>
       <path id="DejaVuSans-69" d="M 603 3500 
L 1178 3500 
L 1178 0 
L 603 0 
L 603 3500 
z
M 603 4863 
L 1178 4863 
L 1178 4134 
L 603 4134 
L 603 4863 
z
" transform="scale(0.015625)"/>
       <path id="DejaVuSans-6d" d="M 3328 2828 
Q 3544 3216 3844 3400 
Q 4144 3584 4550 3584 
Q 5097 3584 5394 3201 
Q 5691 2819 5691 2113 
L 5691 0 
L 5113 0 
L 5113 2094 
Q 5113 2597 4934 2840 
Q 4756 3084 4391 3084 
Q 3944 3084 3684 2787 
Q 3425 2491 3425 1978 
L 3425 0 
L 2847 0 
L 2847 2094 
Q 2847 2600 2669 2842 
Q 2491 3084 2119 3084 
Q 1678 3084 1418 2786 
Q 1159 2488 1159 1978 
L 1159 0 
L 581 0 
L 581 3500 
L 1159 3500 
L 1159 2956 
Q 1356 3278 1631 3431 
Q 1906 3584 2284 3584 
Q 2666 3584 2933 3390 
Q 3200 3197 3328 2828 
z
" transform="scale(0.015625)"/>
       <path id="DejaVuSans-65" d="M 3597 1894 
L 3597 1613 
L 953 1613 
Q 991 1019 1311 708 
Q 1631 397 2203 397 
Q 2534 397 2845 478 
Q 3156 559 3463 722 
L 3463 178 
Q 3153 47 2828 -22 
Q 2503 -91 2169 -91 
Q 1331 -91 842 396 
Q 353 884 353 1716 
Q 353 2575 817 3079 
Q 1281 3584 2069 3584 
Q 2775 3584 3186 3129 
Q 3597 2675 3597 1894 
z
M 3022 2063 
Q 3016 2534 2758 2815 
Q 2500 3097 2075 3097 
Q 1594 3097 1305 2825 
Q 1016 2553 972 2059 
L 3022 2063 
z
" transform="scale(0.015625)"/>
       <path id="DejaVuSans-20" transform="scale(0.015625)"/>
       <path id="DejaVuSans-28" d="M 1984 4856 
Q 1566 4138 1362 3434 
Q 1159 2731 1159 2009 
Q 1159 1288 1364 580 
Q 1569 -128 1984 -844 
L 1484 -844 
Q 1016 -109 783 600 
Q 550 1309 550 2009 
Q 550 2706 781 3412 
Q 1013 4119 1484 4856 
L 1984 4856 
z
" transform="scale(0.015625)"/>
       <path id="DejaVuSans-73" d="M 2834 3397 
L 2834 2853 
Q 2591 2978 2328 3040 
Q 2066 3103 1784 3103 
Q 1356 3103 1142 2972 
Q 928 2841 928 2578 
Q 928 2378 1081 2264 
Q 1234 2150 1697 2047 
L 1894 2003 
Q 2506 1872 2764 1633 
Q 3022 1394 3022 966 
Q 3022 478 2636 193 
Q 2250 -91 1575 -91 
Q 1294 -91 989 -36 
Q 684 19 347 128 
L 347 722 
Q 666 556 975 473 
Q 1284 391 1588 391 
Q 1994 391 2212 530 
Q 2431 669 2431 922 
Q 2431 1156 2273 1281 
Q 2116 1406 1581 1522 
L 1381 1569 
Q 847 1681 609 1914 
Q 372 2147 372 2553 
Q 372 3047 722 3315 
Q 1072 3584 1716 3584 
Q 2034 3584 2315 3537 
Q 2597 3491 2834 3397 
z
" transform="scale(0.015625)"/>
       <path id="DejaVuSans-29" d="M 513 4856 
L 1013 4856 
Q 1481 4119 1714 3412 
Q 1947 2706 1947 2009 
Q 1947 1309 1714 600 
Q 1481 -109 1013 -844 
L 513 -844 
Q 928 -128 1133 580 
Q 1338 1288 1338 2009 
Q 1338 2731 1133 3434 
Q 928 4138 513 4856 
z
" transform="scale(0.015625)"/>
      </defs>
      <use xlink:href="#DejaVuSans-54"/>
      <use xlink:href="#DejaVuSans-69" transform="translate(57.958984 0)"/>
      <use xlink:href="#DejaVuSans-6d" transform="translate(85.742188 0)"/>
      <use xlink:href="#DejaVuSans-65" transform="translate(183.154297 0)"/>
      <use xlink:href="#DejaVuSans-20" transform="translate(244.677734 0)"/>
      <use xlink:href="#DejaVuSans-28" transform="translate(276.464844 0)"/>
      <use xlink:href="#DejaVuSans-73" transform="translate(315.478516 0)"/>
      <use xlink:href="#DejaVuSans-29" transform="translate(367.578125 0)"/>
     </g>
    </g>
   </g>
   <g id="matplotlib.axis_2">
    <g id="ytick_1">
     <g id="line2d_13">
      <path d="M 44.18 230.706191 
L 421.2 230.706191 
" clip-path="url(#pdb0ebc0a51)" style="fill: none; stroke: #b0b0b0; stroke-opacity: 0.25; stroke-width: 0.8; stroke-linecap: square"/>
     </g>
     <g id="line2d_14">
      <defs>
       <path id="ma830fd2231" d="M 0 0 
L -3.5 0 
" style="stroke: #000000; stroke-width: 0.8"/>
      </defs>
      <g>
       <use xlink:href="#ma830fd2231" x="44.18" y="230.706191" style="stroke: #000000; stroke-width: 0.8"/>
      </g>
     </g>
     <g id="text_8">
      <!-- 19 -->
      <g transform="translate(24.455 234.50541) scale(0.1 -0.1)">
       <defs>
        <path id="DejaVuSans-39" d="M 703 97 
L 703 672 
Q 941 559 1184 500 
Q 1428 441 1663 441 
Q 2288 441 2617 861 
Q 2947 1281 2994 2138 
Q 2813 1869 2534 1725 
Q 2256 1581 1919 1581 
Q 1219 1581 811 2004 
Q 403 2428 403 3163 
Q 403 3881 828 4315 
Q 1253 4750 1959 4750 
Q 2769 4750 3195 4129 
Q 3622 3509 3622 2328 
Q 3622 1225 3098 567 
Q 2575 -91 1691 -91 
Q 1453 -91 1209 -44 
Q 966 3 703 97 
z
M 1959 2075 
Q 2384 2075 2632 2365 
Q 2881 2656 2881 3163 
Q 2881 3666 2632 3958 
Q 2384 4250 1959 4250 
Q 1534 4250 1286 3958 
Q 1038 3666 1038 3163 
Q 1038 2656 1286 2365 
Q 1534 2075 1959 2075 
z
" transform="scale(0.015625)"/>
       </defs>
       <use xlink:href="#DejaVuSans-31"/>
       <use xlink:href="#DejaVuSans-39" transform="translate(63.623047 0)"/>
      </g>
     </g>
    </g>
    <g id="ytick_2">
     <g id="line2d_15">
      <path d="M 44.18 199.401076 
L 421.2 199.401076 
" clip-path="url(#pdb0ebc0a51)" style="fill: none; stroke: #b0b0b0; stroke-opacity: 0.25; stroke-width: 0.8; stroke-linecap: square"/>
     </g>
     <g id="line2d_16">
      <g>
       <use xlink:href="#ma830fd2231" x="44.18" y="199.401076" style="stroke: #000000; stroke-width: 0.8"/>
      </g>
     </g>
     <g id="text_9">
      <!-- 20 -->
      <g transform="translate(24.455 203.200295) scale(0.1 -0.1)">
       <use xlink:href="#DejaVuSans-32"/>
       <use xlink:href="#DejaVuSans-30" transform="translate(63.623047 0)"/>
      </g>
     </g>
    </g>
    <g id="ytick_3">
     <g id="line2d_17">
      <path d="M 44.18 168.095961 
L 421.2 168.095961 
" clip-path="url(#pdb0ebc0a51)" style="fill: none; stroke: #b0b0b0; stroke-opacity: 0.25; stroke-width: 0.8; stroke-linecap: square"/>
     </g>
     <g id="line2d_18">
      <g>
       <use xlink:href="#ma830fd2231" x="44.18" y="168.095961" style="stroke: #000000; stroke-width: 0.8"/>
      </g>
     </g>
     <g id="text_10">
      <!-- 21 -->
      <g transform="translate(24.455 171.89518) scale(0.1 -0.1)">
       <use xlink:href="#DejaVuSans-32"/>
       <use xlink:href="#DejaVuSans-31" transform="translate(63.623047 0)"/>
      </g>
     </g>
    </g>
    <g id="ytick_4">
     <g id="line2d_19">
      <path d="M 44.18 136.790846 
L 421.2 136.790846 
" clip-path="url(#pdb0ebc0a51)" style="fill: none; stroke: #b0b0b0; stroke-opacity: 0.25; stroke-width: 0.8; stroke-linecap: square"/>
     </g>
     <g id="line2d_20">
      <g>
       <use xlink:href="#ma830fd2231" x="44.18" y="136.790846" style="stroke: #000000; stroke-width: 0.8"/>
      </g>
     </g>
     <g id="text_11">
      <!-- 22 -->
      <g transform="translate(24.455 140.590064) scale(0.1 -0.1)">
       <use xlink:href="#DejaVuSans-32"/>
       <use xlink:href="#DejaVuSans-32" transform="translate(63.623047 0)"/>
      </g>
     </g>
    </g>
    <g id="ytick_5">
     <g id="line2d_21">
      <path d="M 44.18 105.48573 
L 421.2 105.48573 
" clip-path="url(#pdb0ebc0a51)" style="fill: none; stroke: #b0b0b0; stroke-opacity: 0.25; stroke-width: 0.8; stroke-linecap: square"/>
     </g>
     <g id="line2d_22">
      <g>
       <use xlink:href="#ma830fd2231" x="44.18" y="105.48573" style="stroke: #000000; stroke-width: 0.8"/>
      </g>
     </g>
     <g id="text_12">
      <!-- 23 -->
      <g transform="translate(24.455 109.284949) scale(0.1 -0.1)">
       <defs>
        <path id="DejaVuSans-33" d="M 2597 2516 
Q 3050 2419 3304 2112 
Q 3559 1806 3559 1356 
Q 3559 666 3084 287 
Q 2609 -91 1734 -91 
Q 1441 -91 1130 -33 
Q 819 25 488 141 
L 488 750 
Q 750 597 1062 519 
Q 1375 441 1716 441 
Q 2309 441 2620 675 
Q 2931 909 2931 1356 
Q 2931 1769 2642 2001 
Q 2353 2234 1838 2234 
L 1294 2234 
L 1294 2753 
L 1863 2753 
Q 2328 2753 2575 2939 
Q 2822 3125 2822 3475 
Q 2822 3834 2567 4026 
Q 2313 4219 1838 4219 
Q 1578 4219 1281 4162 
Q 984 4106 628 3988 
L 628 4550 
Q 988 4650 1302 4700 
Q 1616 4750 1894 4750 
Q 2613 4750 3031 4423 
Q 3450 4097 3450 3541 
Q 3450 3153 3228 2886 
Q 3006 2619 2597 2516 
z
" transform="scale(0.015625)"/>
       </defs>
       <use xlink:href="#DejaVuSans-32"/>
       <use xlink:href="#DejaVuSans-33" transform="translate(63.623047 0)"/>
      </g>
     </g>
    </g>
    <g id="ytick_6">
     <g id="line2d_23">
      <path d="M 44.18 74.180615 
L 421.2 74.180615 
" clip-path="url(#pdb0ebc0a51)" style="fill: none; stroke: #b0b0b0; stroke-opacity: 0.25; stroke-width: 0.8; stroke-linecap: square"/>
     </g>
     <g id="line2d_24">
      <g>
       <use xlink:href="#ma830fd2231" x="44.18" y="74.180615" style="stroke: #000000; stroke-width: 0.8"/>
      </g>
     </g>
     <g id="text_13">
      <!-- 24 -->
      <g transform="translate(24.455 77.979834) scale(0.1 -0.1)">
       <use xlink:href="#DejaVuSans-32"/>
       <use xlink:href="#DejaVuSans-34" transform="translate(63.623047 0)"/>
      </g>
     </g>
    </g>
    <g id="ytick_7">
     <g id="line2d_25">
      <path d="M 44.18 42.8755 
L 421.2 42.8755 
" clip-path="url(#pdb0ebc0a51)" style="fill: none; stroke: #b0b0b0; stroke-opacity: 0.25; stroke-width: 0.8; stroke-linecap: square"/>
     </g>
     <g id="line2d_26">
      <g>
       <use xlink:href="#ma830fd2231" x="44.18" y="42.8755" style="stroke: #000000; stroke-width: 0.8"/>
      </g>
     </g>
     <g id="text_14">
      <!-- 25 -->
      <g transform="translate(24.455 46.674718) scale(0.1 -0.1)">
       <defs>
        <path id="DejaVuSans-35" d="M 691 4666 
L 3169 4666 
L 3169 4134 
L 1269 4134 
L 1269 2991 
Q 1406 3038 1543 3061 
Q 1681 3084 1819 3084 
Q 2600 3084 3056 2656 
Q 3513 2228 3513 1497 
Q 3513 744 3044 326 
Q 2575 -91 1722 -91 
Q 1428 -91 1123 -41 
Q 819 9 494 109 
L 494 744 
Q 775 591 1075 516 
Q 1375 441 1709 441 
Q 2250 441 2565 725 
Q 2881 1009 2881 1497 
Q 2881 1984 2565 2268 
Q 2250 2553 1709 2553 
Q 1456 2553 1204 2497 
Q 953 2441 691 2322 
L 691 4666 
z
" transform="scale(0.015625)"/>
       </defs>
       <use xlink:href="#DejaVuSans-32"/>
       <use xlink:href="#DejaVuSans-35" transform="translate(63.623047 0)"/>
      </g>
     </g>
    </g>
    <g id="text_15">
     <!-- Temperature (C) -->
     <g transform="translate(18.375312 177.111562) rotate(-90) scale(0.1 -0.1)">
      <defs>
       <path id="DejaVuSans-70" d="M 1159 525 
L 1159 -1331 
L 581 -1331 
L 581 3500 
L 1159 3500 
L 1159 2969 
Q 1341 3281 1617 3432 
Q 1894 3584 2278 3584 
Q 2916 3584 3314 3078 
Q 3713 2572 3713 1747 
Q 3713 922 3314 415 
Q 2916 -91 2278 -91 
Q 1894 -91 1617 61 
Q 1341 213 1159 525 
z
M 3116 1747 
Q 3116 2381 2855 2742 
Q 2594 3103 2138 3103 
Q 1681 3103 1420 2742 
Q 1159 2381 1159 1747 
Q 1159 1113 1420 752 
Q 1681 391 2138 391 
Q 2594 391 2855 752 
Q 3116 1113 3116 1747 
z
" transform="scale(0.015625)"/>
       <path id="DejaVuSans-72" d="M 2631 2963 
Q 2534 3019 2420 3045 
Q 2306 3072 2169 3072 
Q 1681 3072 1420 2755 
Q 1159 2438 1159 1844 
L 1159 0 
L 581 0 
L 581 3500 
L 1159 3500 
L 1159 2956 
Q 1341 3275 1631 3429 
Q 1922 3584 2338 3584 
Q 2397 3584 2469 3576 
Q 2541 3569 2628 3553 
L 2631 2963 
z
" transform="scale(0.015625)"/>
       <path id="DejaVuSans-61" d="M 2194 1759 
Q 1497 1759 1228 1600 
Q 959 1441 959 1056 
Q 959 750 1161 570 
Q 1363 391 1709 391 
Q 2188 391 2477 730 
Q 2766 1069 2766 1631 
L 2766 1759 
L 2194 1759 
z
M 3341 1997 
L 3341 0 
L 2766 0 
L 2766 531 
Q 2569 213 2275 61 
Q 1981 -91 1556 -91 
Q 1019 -91 701 211 
Q 384 513 384 1019 
Q 384 1609 779 1909 
Q 1175 2209 1959 2209 
L 2766 2209 
L 2766 2266 
Q 2766 2663 2505 2880 
Q 2244 3097 1772 3097 
Q 1472 3097 1187 3025 
Q 903 2953 641 2809 
L 641 3341 
Q 956 3463 1253 3523 
Q 1550 3584 1831 3584 
Q 2591 3584 2966 3190 
Q 3341 2797 3341 1997 
z
" transform="scale(0.015625)"/>
       <path id="DejaVuSans-74" d="M 1172 4494 
L 1172 3500 
L 2356 3500 
L 2356 3053 
L 1172 3053 
L 1172 1153 
Q 1172 725 1289 603 
Q 1406 481 1766 481 
L 2356 481 
L 2356 0 
L 1766 0 
Q 1100 0 847 248 
Q 594 497 594 1153 
L 594 3053 
L 172 3053 
L 172 3500 
L 594 3500 
L 594 4494 
L 1172 4494 
z
" transform="scale(0.015625)"/>
       <path id="DejaVuSans-75" d="M 544 1381 
L 544 3500 
L 1119 3500 
L 1119 1403 
Q 1119 906 1312 657 
Q 1506 409 1894 409 
Q 2359 409 2629 706 
Q 2900 1003 2900 1516 
L 2900 3500 
L 3475 3500 
L 3475 0 
L 2900 0 
L 2900 538 
Q 2691 219 2414 64 
Q 2138 -91 1772 -91 
Q 1169 -91 856 284 
Q 544 659 544 1381 
z
M 1991 3584 
L 1991 3584 
z
" transform="scale(0.015625)"/>
       <path id="DejaVuSans-43" d="M 4122 4306 
L 4122 3641 
Q 3803 3938 3442 4084 
Q 3081 4231 2675 4231 
Q 1875 4231 1450 3742 
Q 1025 3253 1025 2328 
Q 1025 1406 1450 917 
Q 1875 428 2675 428 
Q 3081 428 3442 575 
Q 3803 722 4122 1019 
L 4122 359 
Q 3791 134 3420 21 
Q 3050 -91 2638 -91 
Q 1578 -91 968 557 
Q 359 1206 359 2328 
Q 359 3453 968 4101 
Q 1578 4750 2638 4750 
Q 3056 4750 3426 4639 
Q 3797 4528 4122 4306 
z
" transform="scale(0.015625)"/>
      </defs>
      <use xlink:href="#DejaVuSans-54"/>
      <use xlink:href="#DejaVuSans-65" transform="translate(44.083984 0)"/>
      <use xlink:href="#DejaVuSans-6d" transform="translate(105.607422 0)"/>
      <use xlink:href="#DejaVuSans-70" transform="translate(203.019531 0)"/>
      <use xlink:href="#DejaVuSans-65" transform="translate(266.496094 0)"/>
      <use xlink:href="#DejaVuSans-72" transform="translate(328.019531 0)"/>
      <use xlink:href="#DejaVuSans-61" transform="translate(369.132812 0)"/>
      <use xlink:href="#DejaVuSans-74" transform="translate(430.412109 0)"/>
      <use xlink:href="#DejaVuSans-75" transform="translate(469.621094 0)"/>
      <use xlink:href="#DejaVuSans-72" transform="translate(533 0)"/>
      <use xlink:href="#DejaVuSans-65" transform="translate(571.863281 0)"/>
      <use xlink:href="#DejaVuSans-20" transform="translate(633.386719 0)"/>
      <use xlink:href="#DejaVuSans-28" transform="translate(665.173828 0)"/>
      <use xlink:href="#DejaVuSans-43" transform="translate(704.1875 0)"/>
      <use xlink:href="#DejaVuSans-29" transform="translate(774.011719 0)"/>
     </g>
    </g>
   </g>
   <g id="line2d_27">
    <path d="M 61.317273 134.216953 
L 65.655823 133.921733 
L 69.994373 125.671222 
L 74.332923 119.275195 
L 78.671473 117.458503 
L 83.010023 101.700777 
L 87.348573 100.974558 
L 91.687123 92.333923 
L 96.025673 83.989588 
L 100.364223 78.724244 
L 104.702773 72.30748 
L 109.041323 71.728521 
L 113.379873 68.999875 
L 117.718423 62.851794 
L 122.056974 68.066278 
L 126.395524 63.255071 
L 130.734074 59.500262 
L 135.072624 55.031529 
L 139.411174 44.956537 
L 143.749724 50.551481 
L 148.088274 46.271573 
L 152.426824 35.969091 
L 156.765374 44.909348 
L 161.103924 38.821803 
L 165.442474 48.778074 
L 169.781024 45.67549 
L 174.119574 51.327955 
L 178.458124 49.790809 
L 182.796674 45.490558 
L 187.135224 62.732107 
L 191.473774 53.738231 
L 195.812325 58.43239 
L 200.150875 67.086568 
L 204.489425 76.214694 
L 208.827975 72.327251 
L 213.166525 80.701424 
L 217.505075 81.682761 
L 221.843625 88.412774 
L 226.182175 85.29059 
L 230.520725 101.655781 
L 234.859275 112.245254 
L 239.197825 111.788466 
L 243.536375 117.998351 
L 247.874925 118.105216 
L 252.213475 127.638969 
L 256.552025 136.936417 
L 260.890575 137.293703 
L 265.229125 158.78658 
L 269.567675 162.16602 
L 273.906226 170.147712 
L 278.244776 173.349451 
L 282.583326 184.96693 
L 286.921876 179.487094 
L 291.260426 189.946278 
L 295.598976 202.353323 
L 299.937526 204.8764 
L 304.276076 202.167032 
L 308.614626 203.658935 
L 312.953176 201.224447 
L 317.291726 199.7765 
L 321.630276 217.188209 
L 325.968826 228.017856 
L 330.307376 236.950909 
L 334.645926 225.487837 
L 338.984476 233.190682 
L 343.323026 232.10989 
L 347.661577 233.918436 
L 352.000127 231.499513 
L 356.338677 224.472045 
L 360.677227 228.903262 
L 365.015777 229.531853 
L 369.354327 232.869492 
L 373.692877 234.419976 
L 378.031427 225.237215 
L 382.369977 219.889932 
L 386.708527 206.305399 
L 391.047077 211.821249 
L 395.385627 202.930936 
L 399.724177 206.841018 
L 404.062727 205.931149 
" clip-path="url(#pdb0ebc0a51)" style="fill: none; stroke: #3a7d44; stroke-opacity: 0.9; stroke-width: 1.6; stroke-linecap: square"/>
    <defs>
     <path id="mabf7bbdc65" d="M 0 1.5 
C 0.397805 1.5 0.77937 1.341951 1.06066 1.06066 
C 1.341951 0.77937 1.5 0.397805 1.5 0 
C 1.5 -0.397805 1.341951 -0.77937 1.06066 -1.06066 
C 0.77937 -1.341951 0.397805 -1.5 0 -1.5 
C -0.397805 -1.5 -0.77937 -1.341951 -1.06066 -1.06066 
C -1.341951 -0.77937 -1.5 -0.397805 -1.5 0 
C -1.5 0.397805 -1.341951 0.77937 -1.06066 1.06066 
C -0.77937 1.341951 -0.397805 1.5 0 1.5 
z
" style="stroke: #3a7d44; stroke-opacity: 0.9"/>
    </defs>
    <g clip-path="url(#pdb0ebc0a51)">
     <use xlink:href="#mabf7bbdc65" x="61.317273" y="134.216953" style="fill: #3a7d44; fill-opacity: 0.9; stroke: #3a7d44; stroke-opacity: 0.9"/>
     <use xlink:href="#mabf7bbdc65" x="65.655823" y="133.921733" style="fill: #3a7d44; fill-opacity: 0.9; stroke: #3a7d44; stroke-opacity: 0.9"/>
     <use xlink:href="#mabf7bbdc65" x="69.994373" y="125.671222" style="fill: #3a7d44; fill-opacity: 0.9; stroke: #3a7d44; stroke-opacity: 0.9"/>
     <use xlink:href="#mabf7bbdc65" x="74.332923" y="119.275195" style="fill: #3a7d44; fill-opacity: 0.9; stroke: #3a7d44; stroke-opacity: 0.9"/>
     <use xlink:href="#mabf7bbdc65" x="78.671473" y="117.458503" style="fill: #3a7d44; fill-opacity: 0.9; stroke: #3a7d44; stroke-opacity: 0.9"/>
     <use xlink:href="#mabf7bbdc65" x="83.010023" y="101.700777" style="fill: #3a7d44; fill-opacity: 0.9; stroke: #3a7d44; stroke-opacity: 0.9"/>
     <use xlink:href="#mabf7bbdc65" x="87.348573" y="100.974558" style="fill: #3a7d44; fill-opacity: 0.9; stroke: #3a7d44; stroke-opacity: 0.9"/>
     <use xlink:href="#mabf7bbdc65" x="91.687123" y="92.333923" style="fill: #3a7d44; fill-opacity: 0.9; stroke: #3a7d44; stroke-opacity: 0.9"/>
     <use xlink:href="#mabf7bbdc65" x="96.025673" y="83.989588" style="fill: #3a7d44; fill-opacity: 0.9; stroke: #3a7d44; stroke-opacity: 0.9"/>
     <use xlink:href="#mabf7bbdc65" x="100.364223" y="78.724244" style="fill: #3a7d44; fill-opacity: 0.9; stroke: #3a7d44; stroke-opacity: 0.9"/>
     <use xlink:href="#mabf7bbdc65" x="104.702773" y="72.30748" style="fill: #3a7d44; fill-opacity: 0.9; stroke: #3a7d44; stroke-opacity: 0.9"/>
     <use xlink:href="#mabf7bbdc65" x="109.041323" y="71.728521" style="fill: #3a7d44; fill-opacity: 0.9; stroke: #3a7d44; stroke-opacity: 0.9"/>
     <use xlink:href="#mabf7bbdc65" x="113.379873" y="68.999875" style="fill: #3a7d44; fill-opacity: 0.9; stroke: #3a7d44; stroke-opacity: 0.9"/>
     <use xlink:href="#mabf7bbdc65" x="117.718423" y="62.851794" style="fill: #3a7d44; fill-opacity: 0.9; stroke: #3a7d44; stroke-opacity: 0.9"/>
     <use xlink:href="#mabf7bbdc65" x="122.056974" y="68.066278" style="fill: #3a7d44; fill-opacity: 0.9; stroke: #3a7d44; stroke-opacity: 0.9"/>
     <use xlink:href="#mabf7bbdc65" x="126.395524" y="63.255071" style="fill: #3a7d44; fill-opacity: 0.9; stroke: #3a7d44; stroke-opacity: 0.9"/>
     <use xlink:href="#mabf7bbdc65" x="130.734074" y="59.500262" style="fill: #3a7d44; fill-opacity: 0.9; stroke: #3a7d44; stroke-opacity: 0.9"/>
     <use xlink:href="#mabf7bbdc65" x="135.072624" y="55.031529" style="fill: #3a7d44; fill-opacity: 0.9; stroke: #3a7d44; stroke-opacity: 0.9"/>
     <use xlink:href="#mabf7bbdc65" x="139.411174" y="44.956537" style="fill: #3a7d44; fill-opacity: 0.9; stroke: #3a7d44; stroke-opacity: 0.9"/>
     <use xlink:href="#mabf7bbdc65" x="143.749724" y="50.551481" style="fill: #3a7d44; fill-opacity: 0.9; stroke: #3a7d44; stroke-opacity: 0.9"/>
     <use xlink:href="#mabf7bbdc65" x="148.088274" y="46.271573" style="fill: #3a7d44; fill-opacity: 0.9; stroke: #3a7d44; stroke-opacity: 0.9"/>
     <use xlink:href="#mabf7bbdc65" x="152.426824" y="35.969091" style="fill: #3a7d44; fill-opacity: 0.9; stroke: #3a7d44; stroke-opacity: 0.9"/>
     <use xlink:href="#mabf7bbdc65" x="156.765374" y="44.909348" style="fill: #3a7d44; fill-opacity: 0.9; stroke: #3a7d44; stroke-opacity: 0.9"/>
     <use xlink:href="#mabf7bbdc65" x="161.103924" y="38.821803" style="fill: #3a7d44; fill-opacity: 0.9; stroke: #3a7d44; stroke-opacity: 0.9"/>
     <use xlink:href="#mabf7bbdc65" x="165.442474" y="48.778074" style="fill: #3a7d44; fill-opacity: 0.9; stroke: #3a7d44; stroke-opacity: 0.9"/>
     <use xlink:href="#mabf7bbdc65" x="169.781024" y="45.67549" style="fill: #3a7d44; fill-opacity: 0.9; stroke: #3a7d44; stroke-opacity: 0.9"/>
     <use xlink:href="#mabf7bbdc65" x="174.119574" y="51.327955" style="fill: #3a7d44; fill-opacity: 0.9; stroke: #3a7d44; stroke-opacity: 0.9"/>
     <use xlink:href="#mabf7bbdc65" x="178.458124" y="49.790809" style="fill: #3a7d44; fill-opacity: 0.9; stroke: #3a7d44; stroke-opacity: 0.9"/>
     <use xlink:href="#mabf7bbdc65" x="182.796674" y="45.490558" style="fill: #3a7d44; fill-opacity: 0.9; stroke: #3a7d44; stroke-opacity: 0.9"/>
     <use xlink:href="#mabf7bbdc65" x="187.135224" y="62.732107" style="fill: #3a7d44; fill-opacity: 0.9; stroke: #3a7d44; stroke-opacity: 0.9"/>
     <use xlink:href="#mabf7bbdc65" x="191.473774" y="53.738231" style="fill: #3a7d44; fill-opacity: 0.9; stroke: #3a7d44; stroke-opacity: 0.9"/>
     <use xlink:href="#mabf7bbdc65" x="195.812325" y="58.43239" style="fill: #3a7d44; fill-opacity: 0.9; stroke: #3a7d44; stroke-opacity: 0.9"/>
     <use xlink:href="#mabf7bbdc65" x="200.150875" y="67.086568" style="fill: #3a7d44; fill-opacity: 0.9; stroke: #3a7d44; stroke-opacity: 0.9"/>
     <use xlink:href="#mabf7bbdc65" x="204.489425" y="76.214694" style="fill: #3a7d44; fill-opacity: 0.9; stroke: #3a7d44; stroke-opacity: 0.9"/>
     <use xlink:href="#mabf7bbdc65" x="208.827975" y="72.327251" style="fill: #3a7d44; fill-opacity: 0.9; stroke: #3a7d44; stroke-opacity: 0.9"/>
     <use xlink:href="#mabf7bbdc65" x="213.166525" y="80.701424" style="fill: #3a7d44; fill-opacity: 0.9; stroke: #3a7d44; stroke-opacity: 0.9"/>
     <use xlink:href="#mabf7bbdc65" x="217.505075" y="81.682761" style="fill: #3a7d44; fill-opacity: 0.9; stroke: #3a7d44; stroke-opacity: 0.9"/>
     <use xlink:href="#mabf7bbdc65" x="221.843625" y="88.412774" style="fill: #3a7d44; fill-opacity: 0.9; stroke: #3a7d44; stroke-opacity: 0.9"/>
     <use xlink:href="#mabf7bbdc65" x="226.182175" y="85.29059" style="fill: #3a7d44; fill-opacity: 0.9; stroke: #3a7d44; stroke-opacity: 0.9"/>
     <use xlink:href="#mabf7bbdc65" x="230.520725" y="101.655781" style="fill: #3a7d44; fill-opacity: 0.9; stroke: #3a7d44; stroke-opacity: 0.9"/>
     <use xlink:href="#mabf7bbdc65" x="234.859275" y="112.245254" style="fill: #3a7d44; fill-opacity: 0.9; stroke: #3a7d44; stroke-opacity: 0.9"/>
     <use xlink:href="#mabf7bbdc65" x="239.197825" y="111.788466" style="fill: #3a7d44; fill-opacity: 0.9; stroke: #3a7d44; stroke-opacity: 0.9"/>
     <use xlink:href="#mabf7bbdc65" x="243.536375" y="117.998351" style="fill: #3a7d44; fill-opacity: 0.9; stroke: #3a7d44; stroke-opacity: 0.9"/>
     <use xlink:href="#mabf7bbdc65" x="247.874925" y="118.105216" style="fill: #3a7d44; fill-opacity: 0.9; stroke: #3a7d44; stroke-opacity: 0.9"/>
     <use xlink:href="#mabf7bbdc65" x="252.213475" y="127.638969" style="fill: #3a7d44; fill-opacity: 0.9; stroke: #3a7d44; stroke-opacity: 0.9"/>
     <use xlink:href="#mabf7bbdc65" x="256.552025" y="136.936417" style="fill: #3a7d44; fill-opacity: 0.9; stroke: #3a7d44; stroke-opacity: 0.9"/>
     <use xlink:href="#mabf7bbdc65" x="260.890575" y="137.293703" style="fill: #3a7d44; fill-opacity: 0.9; stroke: #3a7d44; stroke-opacity: 0.9"/>
     <use xlink:href="#mabf7bbdc65" x="265.229125" y="158.78658" style="fill: #3a7d44; fill-opacity: 0.9; stroke: #3a7d44; stroke-opacity: 0.9"/>
     <use xlink:href="#mabf7bbdc65" x="269.567675" y="162.16602" style="fill: #3a7d44; fill-opacity: 0.9; stroke: #3a7d44; stroke-opacity: 0.9"/>
     <use xlink:href="#mabf7bbdc65" x="273.906226" y="170.147712" style="fill: #3a7d44; fill-opacity: 0.9; stroke: #3a7d44; stroke-opacity: 0.9"/>
     <use xlink:href="#mabf7bbdc65" x="278.244776" y="173.349451" style="fill: #3a7d44; fill-opacity: 0.9; stroke: #3a7d44; stroke-opacity: 0.9"/>
     <use xlink:href="#mabf7bbdc65" x="282.583326" y="184.96693" style="fill: #3a7d44; fill-opacity: 0.9; stroke: #3a7d44; stroke-opacity: 0.9"/>
     <use xlink:href="#mabf7bbdc65" x="286.921876" y="179.487094" style="fill: #3a7d44; fill-opacity: 0.9; stroke: #3a7d44; stroke-opacity: 0.9"/>
     <use xlink:href="#mabf7bbdc65" x="291.260426" y="189.946278" style="fill: #3a7d44; fill-opacity: 0.9; stroke: #3a7d44; stroke-opacity: 0.9"/>
     <use xlink:href="#mabf7bbdc65" x="295.598976" y="202.353323" style="fill: #3a7d44; fill-opacity: 0.9; stroke: #3a7d44; stroke-opacity: 0.9"/>
     <use xlink:href="#mabf7bbdc65" x="299.937526" y="204.8764" style="fill: #3a7d44; fill-opacity: 0.9; stroke: #3a7d44; stroke-opacity: 0.9"/>
     <use xlink:href="#mabf7bbdc65" x="304.276076" y="202.167032" style="fill: #3a7d44; fill-opacity: 0.9; stroke: #3a7d44; stroke-opacity: 0.9"/>
     <use xlink:href="#mabf7bbdc65" x="308.614626" y="203.658935" style="fill: #3a7d44; fill-opacity: 0.9; stroke: #3a7d44; stroke-opacity: 0.9"/>
     <use xlink:href="#mabf7bbdc65" x="312.953176" y="201.224447" style="fill: #3a7d44; fill-opacity: 0.9; stroke: #3a7d44; stroke-opacity: 0.9"/>
     <use xlink:href="#mabf7bbdc65" x="317.291726" y="199.7765" style="fill: #3a7d44; fill-opacity: 0.9; stroke: #3a7d44; stroke-opacity: 0.9"/>
     <use xlink:href="#mabf7bbdc65" x="321.630276" y="217.188209" style="fill: #3a7d44; fill-opacity: 0.9; stroke: #3a7d44; stroke-opacity: 0.9"/>
     <use xlink:href="#mabf7bbdc65" x="325.968826" y="228.017856" style="fill: #3a7d44; fill-opacity: 0.9; stroke: #3a7d44; stroke-opacity: 0.9"/>
     <use xlink:href="#mabf7bbdc65" x="330.307376" y="236.950909" style="fill: #3a7d44; fill-opacity: 0.9; stroke: #3a7d44; stroke-opacity: 0.9"/>
     <use xlink:href="#mabf7bbdc65" x="334.645926" y="225.487837" style="fill: #3a7d44; fill-opacity: 0.9; stroke: #3a7d44; stroke-opacity: 0.9"/>
     <use xlink:href="#mabf7bbdc65" x="338.984476" y="233.190682" style="fill: #3a7d44; fill-opacity: 0.9; stroke: #3a7d44; stroke-opacity: 0.9"/>
     <use xlink:href="#mabf7bbdc65" x="343.323026" y="232.10989" style="fill: #3a7d44; fill-opacity: 0.9; stroke: #3a7d44; stroke-opacity: 0.9"/>
     <use xlink:href="#mabf7bbdc65" x="347.661577" y="233.918436" style="fill: #3a7d44; fill-opacity: 0.9; stroke: #3a7d44; stroke-opacity: 0.9"/>
     <use xlink:href="#mabf7bbdc65" x="352.000127" y="231.499513" style="fill: #3a7d44; fill-opacity: 0.9; stroke: #3a7d44; stroke-opacity: 0.9"/>
     <use xlink:href="#mabf7bbdc65" x="356.338677" y="224.472045" style="fill: #3a7d44; fill-opacity: 0.9; stroke: #3a7d44; stroke-opacity: 0.9"/>
     <use xlink:href="#mabf7bbdc65" x="360.677227" y="228.903262" style="fill: #3a7d44; fill-opacity: 0.9; stroke: #3a7d44; stroke-opacity: 0.9"/>
     <use xlink:href="#mabf7bbdc65" x="365.015777" y="229.531853" style="fill: #3a7d44; fill-opacity: 0.9; stroke: #3a7d44; stroke-opacity: 0.9"/>
     <use xlink:href="#mabf7bbdc65" x="369.354327" y="232.869492" style="fill: #3a7d44; fill-opacity: 0.9; stroke: #3a7d44; stroke-opacity: 0.9"/>
     <use xlink:href="#mabf7bbdc65" x="373.692877" y="234.419976" style="fill: #3a7d44; fill-opacity: 0.9; stroke: #3a7d44; stroke-opacity: 0.9"/>
     <use xlink:href="#mabf7bbdc65" x="378.031427" y="225.237215" style="fill: #3a7d44; fill-opacity: 0.9; stroke: #3a7d44; stroke-opacity: 0.9"/>
     <use xlink:href="#mabf7bbdc65" x="382.369977" y="219.889932" style="fill: #3a7d44; fill-opacity: 0.9; stroke: #3a7d44; stroke-opacity: 0.9"/>
     <use xlink:href="#mabf7bbdc65" x="386.708527" y="206.305399" style="fill: #3a7d44; fill-opacity: 0.9; stroke: #3a7d44; stroke-opacity: 0.9"/>
     <use xlink:href="#mabf7bbdc65" x="391.047077" y="211.821249" style="fill: #3a7d44; fill-opacity: 0.9; stroke: #3a7d44; stroke-opacity: 0.9"/>
     <use xlink:href="#mabf7bbdc65" x="395.385627" y="202.930936" style="fill: #3a7d44; fill-opacity: 0.9; stroke: #3a7d44; stroke-opacity: 0.9"/>
     <use xlink:href="#mabf7bbdc65" x="399.724177" y="206.841018" style="fill: #3a7d44; fill-opacity: 0.9; stroke: #3a7d44; stroke-opacity: 0.9"/>
     <use xlink:href="#mabf7bbdc65" x="404.062727" y="205.931149" style="fill: #3a7d44; fill-opacity: 0.9; stroke: #3a7d44; stroke-opacity: 0.9"/>
    </g>
   </g>
   <g id="line2d_28">
    <path d="M 61.317273 136.790846 
L 65.655823 130.191833 
L 69.994373 123.625442 
L 74.332923 117.124132 
L 78.671473 110.720042 
L 83.010023 104.444829 
L 87.348573 98.329513 
L 91.687123 92.404326 
L 96.025673 86.698557 
L 100.364223 81.240412 
L 104.702773 76.056873 
L 109.041323 71.173563 
L 113.379873 66.614623 
L 117.718423 62.402588 
L 122.056974 58.558282 
L 126.395524 55.100706 
L 130.734074 52.046954 
L 135.072624 49.412122 
L 139.411174 47.209233 
L 143.749724 45.449178 
L 148.088274 44.140657 
L 152.426824 43.290139 
L 156.765374 42.901829 
L 161.103924 42.977645 
L 165.442474 43.517213 
L 169.781024 44.517866 
L 174.119574 45.974656 
L 178.458124 47.880384 
L 182.796674 50.225628 
L 187.135224 52.998794 
L 191.473774 56.186174 
L 195.812325 59.772011 
L 200.150875 63.73858 
L 204.489425 68.066273 
L 208.827975 72.733695 
L 213.166525 77.717775 
L 217.505075 82.993873 
L 221.843625 88.53591 
L 226.182175 94.316487 
L 230.520725 100.307031 
L 234.859275 106.477926 
L 239.197825 112.79867 
L 243.536375 119.238015 
L 247.874925 125.76413 
L 252.213475 132.344754 
L 256.552025 138.947357 
L 260.890575 145.539299 
L 265.229125 152.087995 
L 269.567675 158.561071 
L 273.906226 164.92653 
L 278.244776 171.152903 
L 282.583326 177.209413 
L 286.921876 183.06612 
L 291.260426 188.694071 
L 295.598976 194.065446 
L 299.937526 199.153693 
L 304.276076 203.933658 
L 308.614626 208.381712 
L 312.953176 212.475867 
L 317.291726 216.195884 
L 321.630276 219.523374 
L 325.968826 222.441887 
L 330.307376 224.936997 
L 334.645926 226.99637 
L 338.984476 228.609824 
L 343.323026 229.769384 
L 347.661577 230.469319 
L 352.000127 230.706167 
L 356.338677 230.478759 
L 360.677227 229.788218 
L 365.015777 228.637958 
L 369.354327 227.033665 
L 373.692877 224.98327 
L 378.031427 222.496909 
L 382.369977 219.586871 
L 386.708527 216.267544 
L 391.047077 212.555335 
L 395.385627 208.468596 
L 399.724177 204.027527 
L 404.062727 199.254084 
" clip-path="url(#pdb0ebc0a51)" style="fill: none; stroke-dasharray: 7.4,3.2; stroke-dashoffset: 0; stroke: #6b4c9a; stroke-width: 2"/>
   </g>
   <g id="patch_3">
    <path d="M 44.18 247 
L 44.18 25.92 
" style="fill: none; stroke: #000000; stroke-width: 0.8; stroke-linejoin: miter; stroke-linecap: square"/>
   </g>
   <g id="patch_4">
    <path d="M 421.2 247 
L 421.2 25.92 
" style="fill: none; stroke: #000000; stroke-width: 0.8; stroke-linejoin: miter; stroke-linecap: square"/>
   </g>
   <g id="patch_5">
    <path d="M 44.18 247 
L 421.2 247 
" style="fill: none; stroke: #000000; stroke-width: 0.8; stroke-linejoin: miter; stroke-linecap: square"/>
   </g>
   <g id="patch_6">
    <path d="M 44.18 25.92 
L 421.2 25.92 
" style="fill: none; stroke: #000000; stroke-width: 0.8; stroke-linejoin: miter; stroke-linecap: square"/>
   </g>
   <g id="text_16">
    <!-- Experiment 002 Temperature -->
    <g transform="translate(144.7525 19.92) scale(0.12 -0.12)">
     <defs>
      <path id="DejaVuSans-45" d="M 628 4666 
L 3578 4666 
L 3578 4134 
L 1259 4134 
L 1259 2753 
L 3481 2753 
L 3481 2222 
L 1259 2222 
L 1259 531 
L 3634 531 
L 3634 0 
L 628 0 
L 628 4666 
z
" transform="scale(0.015625)"/>
      <path id="DejaVuSans-78" d="M 3513 3500 
L 2247 1797 
L 3578 0 
L 2900 0 
L 1881 1375 
L 863 0 
L 184 0 
L 1544 1831 
L 300 3500 
L 978 3500 
L 1906 2253 
L 2834 3500 
L 3513 3500 
z
" transform="scale(0.015625)"/>
      <path id="DejaVuSans-6e" d="M 3513 2113 
L 3513 0 
L 2938 0 
L 2938 2094 
Q 2938 2591 2744 2837 
Q 2550 3084 2163 3084 
Q 1697 3084 1428 2787 
Q 1159 2491 1159 1978 
L 1159 0 
L 581 0 
L 581 3500 
L 1159 3500 
L 1159 2956 
Q 1366 3272 1645 3428 
Q 1925 3584 2291 3584 
Q 2894 3584 3203 3211 
Q 3513 2838 3513 2113 
z
" transform="scale(0.015625)"/>
     </defs>
     <use xlink:href="#DejaVuSans-45"/>
     <use xlink:href="#DejaVuSans-78" transform="translate(63.183594 0)"/>
     <use xlink:href="#DejaVuSans-70" transform="translate(122.363281 0)"/>
     <use xlink:href="#DejaVuSans-65" transform="translate(185.839844 0)"/>
     <use xlink:href="#DejaVuSans-72" transform="translate(247.363281 0)"/>
     <use xlink:href="#DejaVuSans-69" transform="translate(288.476562 0)"/>
     <use xlink:href="#DejaVuSans-6d" transform="translate(316.259766 0)"/>
     <use xlink:href="#DejaVuSans-65" transform="translate(413.671875 0)"/>
     <use xlink:href="#DejaVuSans-6e" transform="translate(475.195312 0)"/>
     <use xlink:href="#DejaVuSans-74" transform="translate(538.574219 0)"/>
     <use xlink:href="#DejaVuSans-20" transform="translate(577.783203 0)"/>
     <use xlink:href="#DejaVuSans-30" transform="translate(609.570312 0)"/>
     <use xlink:href="#DejaVuSans-30" transform="translate(673.193359 0)"/>
     <use xlink:href="#DejaVuSans-32" transform="translate(736.816406 0)"/>
     <use xlink:href="#DejaVuSans-20" transform="translate(800.439453 0)"/>
     <use xlink:href="#DejaVuSans-54" transform="translate(832.226562 0)"/>
     <use xlink:href="#DejaVuSans-65" transform="translate(876.310547 0)"/>
     <use xlink:href="#DejaVuSans-6d" transform="translate(937.833984 0)"/>
     <use xlink:href="#DejaVuSans-70" transform="translate(1035.246094 0)"/>
     <use xlink:href="#DejaVuSans-65" transform="translate(1098.722656 0)"/>
     <use xlink:href="#DejaVuSans-72" transform="translate(1160.246094 0)"/>
     <use xlink:href="#DejaVuSans-61" transform="translate(1201.359375 0)"/>
     <use xlink:href="#DejaVuSans-74" transform="translate(1262.638672 0)"/>
     <use xlink:href="#DejaVuSans-75" transform="translate(1301.847656 0)"/>
     <use xlink:href="#DejaVuSans-72" transform="translate(1365.226562 0)"/>
     <use xlink:href="#DejaVuSans-65" transform="translate(1404.089844 0)"/>
    </g>
   </g>
   <g id="legend_1">
    <g id="patch_7">
     <path d="M 286.14375 63.27625 
L 414.2 63.27625 
Q 416.2 63.27625 416.2 61.27625 
L 416.2 32.92 
Q 416.2 30.92 414.2 30.92 
L 286.14375 30.92 
Q 284.14375 30.92 284.14375 32.92 
L 284.14375 61.27625 
Q 284.14375 63.27625 286.14375 63.27625 
z
" style="fill: #ffffff; opacity: 0.8; stroke: #cccccc; stroke-linejoin: miter"/>
    </g>
    <g id="line2d_29">
     <path d="M 288.14375 39.018438 
L 298.14375 39.018438 
L 308.14375 39.018438 
" style="fill: none; stroke: #3a7d44; stroke-opacity: 0.9; stroke-width: 1.6; stroke-linecap: square"/>
     <g>
      <use xlink:href="#mabf7bbdc65" x="298.14375" y="39.018438" style="fill: #3a7d44; fill-opacity: 0.9; stroke: #3a7d44; stroke-opacity: 0.9"/>
     </g>
    </g>
    <g id="text_17">
     <!-- Model temperature -->
     <g transform="translate(316.14375 42.518438) scale(0.1 -0.1)">
      <defs>
       <path id="DejaVuSans-4d" d="M 628 4666 
L 1569 4666 
L 2759 1491 
L 3956 4666 
L 4897 4666 
L 4897 0 
L 4281 0 
L 4281 4097 
L 3078 897 
L 2444 897 
L 1241 4097 
L 1241 0 
L 628 0 
L 628 4666 
z
" transform="scale(0.015625)"/>
       <path id="DejaVuSans-6f" d="M 1959 3097 
Q 1497 3097 1228 2736 
Q 959 2375 959 1747 
Q 959 1119 1226 758 
Q 1494 397 1959 397 
Q 2419 397 2687 759 
Q 2956 1122 2956 1747 
Q 2956 2369 2687 2733 
Q 2419 3097 1959 3097 
z
M 1959 3584 
Q 2709 3584 3137 3096 
Q 3566 2609 3566 1747 
Q 3566 888 3137 398 
Q 2709 -91 1959 -91 
Q 1206 -91 779 398 
Q 353 888 353 1747 
Q 353 2609 779 3096 
Q 1206 3584 1959 3584 
z
" transform="scale(0.015625)"/>
       <path id="DejaVuSans-64" d="M 2906 2969 
L 2906 4863 
L 3481 4863 
L 3481 0 
L 2906 0 
L 2906 525 
Q 2725 213 2448 61 
Q 2172 -91 1784 -91 
Q 1150 -91 751 415 
Q 353 922 353 1747 
Q 353 2572 751 3078 
Q 1150 3584 1784 3584 
Q 2172 3584 2448 3432 
Q 2725 3281 2906 2969 
z
M 947 1747 
Q 947 1113 1208 752 
Q 1469 391 1925 391 
Q 2381 391 2643 752 
Q 2906 1113 2906 1747 
Q 2906 2381 2643 2742 
Q 2381 3103 1925 3103 
Q 1469 3103 1208 2742 
Q 947 2381 947 1747 
z
" transform="scale(0.015625)"/>
       <path id="DejaVuSans-6c" d="M 603 4863 
L 1178 4863 
L 1178 0 
L 603 0 
L 603 4863 
z
" transform="scale(0.015625)"/>
      </defs>
      <use xlink:href="#DejaVuSans-4d"/>
      <use xlink:href="#DejaVuSans-6f" transform="translate(86.279297 0)"/>
      <use xlink:href="#DejaVuSans-64" transform="translate(147.460938 0)"/>
      <use xlink:href="#DejaVuSans-65" transform="translate(210.9375 0)"/>
      <use xlink:href="#DejaVuSans-6c" transform="translate(272.460938 0)"/>
      <use xlink:href="#DejaVuSans-20" transform="translate(300.244141 0)"/>
      <use xlink:href="#DejaVuSans-74" transform="translate(332.03125 0)"/>
      <use xlink:href="#DejaVuSans-65" transform="translate(371.240234 0)"/>
      <use xlink:href="#DejaVuSans-6d" transform="translate(432.763672 0)"/>
      <use xlink:href="#DejaVuSans-70" transform="translate(530.175781 0)"/>
      <use xlink:href="#DejaVuSans-65" transform="translate(593.652344 0)"/>
      <use xlink:href="#DejaVuSans-72" transform="translate(655.175781 0)"/>
      <use xlink:href="#DejaVuSans-61" transform="translate(696.289062 0)"/>
      <use xlink:href="#DejaVuSans-74" transform="translate(757.568359 0)"/>
      <use xlink:href="#DejaVuSans-75" transform="translate(796.777344 0)"/>
      <use xlink:href="#DejaVuSans-72" transform="translate(860.15625 0)"/>
      <use xlink:href="#DejaVuSans-65" transform="translate(899.019531 0)"/>
     </g>
    </g>
    <g id="line2d_30">
     <path d="M 288.14375 53.696562 
L 298.14375 53.696562 
L 308.14375 53.696562 
" style="fill: none; stroke-dasharray: 7.4,3.2; stroke-dashoffset: 0; stroke: #6b4c9a; stroke-width: 2"/>
    </g>
    <g id="text_18">
     <!-- Reference fit -->
     <g transform="translate(316.14375 57.196562) scale(0.1 -0.1)">
      <defs>
       <path id="DejaVuSans-52" d="M 2841 2188 
Q 3044 2119 3236 1894 
Q 3428 1669 3622 1275 
L 4263 0 
L 3584 0 
L 2988 1197 
Q 2756 1666 2539 1819 
Q 2322 1972 1947 1972 
L 1259 1972 
L 1259 0 
L 628 0 
L 628 4666 
L 2053 4666 
Q 2853 4666 3247 4331 
Q 3641 3997 3641 3322 
Q 3641 2881 3436 2590 
Q 3231 2300 2841 2188 
z
M 1259 4147 
L 1259 2491 
L 2053 2491 
Q 2509 2491 2742 2702 
Q 2975 2913 2975 3322 
Q 2975 3731 2742 3939 
Q 2509 4147 2053 4147 
L 1259 4147 
z
" transform="scale(0.015625)"/>
       <path id="DejaVuSans-66" d="M 2375 4863 
L 2375 4384 
L 1825 4384 
Q 1516 4384 1395 4259 
Q 1275 4134 1275 3809 
L 1275 3500 
L 2222 3500 
L 2222 3053 
L 1275 3053 
L 1275 0 
L 697 0 
L 697 3053 
L 147 3053 
L 147 3500 
L 697 3500 
L 697 3744 
Q 697 4328 969 4595 
Q 1241 4863 1831 4863 
L 2375 4863 
z
" transform="scale(0.015625)"/>
       <path id="DejaVuSans-63" d="M 3122 3366 
L 3122 2828 
Q 2878 2963 2633 3030 
Q 2388 3097 2138 3097 
Q 1578 3097 1268 2742 
Q 959 2388 959 1747 
Q 959 1106 1268 751 
Q 1578 397 2138 397 
Q 2388 397 2633 464 
Q 2878 531 3122 666 
L 3122 134 
Q 2881 22 2623 -34 
Q 2366 -91 2075 -91 
Q 1284 -91 818 406 
Q 353 903 353 1747 
Q 353 2603 823 3093 
Q 1294 3584 2113 3584 
Q 2378 3584 2631 3529 
Q 2884 3475 3122 3366 
z
" transform="scale(0.015625)"/>
      </defs>
      <use xlink:href="#DejaVuSans-52"/>
      <use xlink:href="#DejaVuSans-65" transform="translate(64.982422 0)"/>
      <use xlink:href="#DejaVuSans-66" transform="translate(126.505859 0)"/>
      <use xlink:href="#DejaVuSans-65" transform="translate(161.710938 0)"/>
      <use xlink:href="#DejaVuSans-72" transform="translate(223.234375 0)"/>
      <use xlink:href="#DejaVuSans-65" transform="translate(262.097656 0)"/>
      <use xlink:href="#DejaVuSans-6e" transform="translate(323.621094 0)"/>
      <use xlink:href="#DejaVuSans-63" transform="translate(387 0)"/>
      <use xlink:href="#DejaVuSans-65" transform="translate(441.980469 0)"/>
      <use xlink:href="#DejaVuSans-20" transform="translate(503.503906 0)"/>
      <use xlink:href="#DejaVuSans-66" transform="translate(535.291016 0)"/>
      <use xlink:href="#DejaVuSans-69" transform="translate(570.496094 0)"/>
      <use xlink:href="#DejaVuSans-74" transform="translate(598.279297 0)"/>
     </g>
    </g>
   </g>
  </g>
 </g>
 <defs>
  <clipPath id="pdb0ebc0a51">
   <rect x="44.18" y="25.92" width="377.02" height="221.08"/>
  </clipPath>
 </defs>
</svg>
