<?xml version="1.0" encoding="utf-8" standalone="no"?>
<!DOCTYPE svg PUBLIC "-//W3C//DTD SVG 1.1//EN"
  "http://www.w3.org/Graphics/SVG/1.1/DTD/svg11.dtd">
<svg xmlns:xlink="http://www.w3.org/1999/xlink" width="460.8pt" height="345.6pt" viewBox="0 0 460.8 345.6" xmlns="http://www.w3.org/2000/svg" version="1.1">
 <metadata>
  <rdf:RDF xmlns:dc="http://purl.org/dc/elements/1.1/" xmlns:cc="http://creativecommons.org/ns#" xmlns:rdf="http://www.w3.org/1999/02/22-rdf-syntax-ns#">
   <cc:Work>
    <dc:type rdf:resource="http://purl.org/dc/dcmitype/StillImage"/>
    <dc:date>2026-05-04T13:41:13.231891</dc:date>
    <dc:format>image/svg+xml</dc:format>
    <dc:creator>
     <cc:Agent>
      <dc:title>Matplotlib v3.10.9, https://matplotlib.org/</dc:title>
     </cc:Agent>
    </dc:creator>
   </cc:Work>
  </rdf:RDF>
 </metadata>
 <defs>
  <style type="text/css">*{stroke-linejoin: round; stroke-linecap: butt}</style>
 </defs>
 <g id="figure_1">
  <g id="patch_1">
   <path d="M 0 345.6 
L 460.8 345.6 
L 460.8 0 
L 0 0 
z
" style="fill: #ffffff"/>
  </g>
  <g id="axes_1">
   <g id="patch_2">
    <path d="M 57.6 307.584 
L 414.72 307.584 
L 414.72 41.472 
L 57.6 41.472 
z
" style="fill: #ffffff"/>
   </g>
   <g id="matplotlib.axis_1">
    <g id="xtick_1">
     <g id="line2d_1">
      <defs>
       <path id="md0932f196c" d="M 0 0 
L 0 3.5 
" style="stroke: #000000; stroke-width: 0.8"/>
      </defs>
      <g>
       <use xlink:href="#md0932f196c" x="73.832727" y="307.584" style="stroke: #000000; stroke-width: 0.8"/>
      </g>
     </g>
     <g id="text_1">
      <!-- 0 -->
      <g transform="translate(70.651477 322.182437) scale(0.1 -0.1)">
       <defs>
        <path id="DejaVuSans-30" d="M 2034 4250 
Q 1547 4250 1301 3770 
Q 1056 3291 1056 2328 
Q 1056 1369 1301 889 
Q 1547 409 2034 409 
Q 2525 409 2770 889 
Q 3016 1369 3016 2328 
Q 3016 3291 2770 3770 
Q 2525 4250 2034 4250 
z
M 2034 4750 
Q 2819 4750 3233 4129 
Q 3647 3509 3647 2328 
Q 3647 1150 3233 529 
Q 2819 -91 2034 -91 
Q 1250 -91 836 529 
Q 422 1150 422 2328 
Q 422 3509 836 4129 
Q 1250 4750 2034 4750 
z
" transform="scale(0.015625)"/>
       </defs>
       <use xlink:href="#DejaVuSans-30"/>
      </g>
     </g>
    </g>
    <g id="xtick_2">
     <g id="line2d_2">
      <g>
       <use xlink:href="#md0932f196c" x="138.763636" y="307.584" style="stroke: #000000; stroke-width: 0.8"/>
      </g>
     </g>
     <g id="text_2">
      <!-- 2 -->
      <g transform="translate(135.582386 322.182437) scale(0.1 -0.1)">
       <defs>
        <path id="DejaVuSans-32" d="M 1228 531 
L 3431 531 
L 3431 0 
L 469 0 
L 469 531 
Q 828 903 1448 1529 
Q 2069 2156 2228 2338 
Q 2531 2678 2651 2914 
Q 2772 3150 2772 3378 
Q 2772 3750 2511 3984 
Q 2250 4219 1831 4219 
Q 1534 4219 1204 4116 
Q 875 4013 500 3803 
L 500 4441 
Q 881 4594 1212 4672 
Q 1544 4750 1819 4750 
Q 2544 4750 2975 4387 
Q 3406 4025 3406 3419 
Q 3406 3131 3298 2873 
Q 3191 2616 2906 2266 
Q 2828 2175 2409 1742 
Q 1991 1309 1228 531 
z
" transform="scale(0.015625)"/>
       </defs>
       <use xlink:href="#DejaVuSans-32"/>
      </g>
     </g>
    </g>
    <g id="xtick_3">
     <g id="line2d_3">
      <g>
       <use xlink:href="#md0932f196c" x="203.694545" y="307.584" style="stroke: #000000; stroke-width: 0.8"/>
      </g>
     </g>
     <g id="text_3">
      <!-- 4 -->
      <g transform="translate(200.513295 322.182437) scale(0.1 -0.1)">
       <defs>
        <path id="DejaVuSans-34" d="M 2419 4116 
L 825 1625 
L 2419 1625 
L 2419 4116 
z
M 2253 4666 
L 3047 4666 
L 3047 1625 
L 3713 1625 
L 3713 1100 
L 3047 1100 
L 3047 0 
L 2419 0 
L 2419 1100 
L 313 1100 
L 313 1709 
L 2253 4666 
z
" transform="scale(0.015625)"/>
       </defs>
       <use xlink:href="#DejaVuSans-34"/>
      </g>
     </g>
    </g>
    <g id="xtick_4">
     <g id="line2d_4">
      <g>
       <use xlink:href="#md0932f196c" x="268.625455" y="307.584" style="stroke: #000000; stroke-width: 0.8"/>
      </g>
     </g>
     <g id="text_4">
      <!-- 6 -->
      <g transform="translate(265.444205 322.182437) scale(0.1 -0.1)">
       <defs>
        <path id="DejaVuSans-36" d="M 2113 2584 
Q 1688 2584 1439 2293 
Q 1191 2003 1191 1497 
Q 1191 994 1439 701 
Q 1688 409 2113 409 
Q 2538 409 2786 701 
Q 3034 994 3034 1497 
Q 3034 2003 2786 2293 
Q 2538 2584 2113 2584 
z
M 3366 4563 
L 3366 3988 
Q 3128 4100 2886 4159 
Q 2644 4219 2406 4219 
Q 1781 4219 1451 3797 
Q 1122 3375 1075 2522 
Q 1259 2794 1537 2939 
Q 1816 3084 2150 3084 
Q 2853 3084 3261 2657 
Q 3669 2231 3669 1497 
Q 3669 778 3244 343 
Q 2819 -91 2113 -91 
Q 1303 -91 875 529 
Q 447 1150 447 2328 
Q 447 3434 972 4092 
Q 1497 4750 2381 4750 
Q 2619 4750 2861 4703 
Q 3103 4656 3366 4563 
z
" transform="scale(0.015625)"/>
       </defs>
       <use xlink:href="#DejaVuSans-36"/>
      </g>
     </g>
    </g>
    <g id="xtick_5">
     <g id="line2d_5">
      <g>
       <use xlink:href="#md0932f196c" x="333.556364" y="307.584" style="stroke: #000000; stroke-width: 0.8"/>
      </g>
     </g>
     <g id="text_5">
      <!-- 8 -->
      <g transform="translate(330.375114 322.182437) scale(0.1 -0.1)">
       <defs>
        <path id="DejaVuSans-38" d="M 2034 2216 
Q 1584 2216 1326 1975 
Q 1069 1734 1069 1313 
Q 1069 891 1326 650 
Q 1584 409 2034 409 
Q 2484 409 2743 651 
Q 3003 894 3003 1313 
Q 3003 1734 2745 1975 
Q 2488 2216 2034 2216 
z
M 1403 2484 
Q 997 2584 770 2862 
Q 544 3141 544 3541 
Q 544 4100 942 4425 
Q 1341 4750 2034 4750 
Q 2731 4750 3128 4425 
Q 3525 4100 3525 3541 
Q 3525 3141 3298 2862 
Q 3072 2584 2669 2484 
Q 3125 2378 3379 2068 
Q 3634 1759 3634 1313 
Q 3634 634 3220 271 
Q 2806 -91 2034 -91 
Q 1263 -91 848 271 
Q 434 634 434 1313 
Q 434 1759 690 2068 
Q 947 2378 1403 2484 
z
M 1172 3481 
Q 1172 3119 1398 2916 
Q 1625 2713 2034 2713 
Q 2441 2713 2670 2916 
Q 2900 3119 2900 3481 
Q 2900 3844 2670 4047 
Q 2441 4250 2034 4250 
Q 1625 4250 1398 4047 
Q 1172 3844 1172 3481 
z
" transform="scale(0.015625)"/>
       </defs>
       <use xlink:href="#DejaVuSans-38"/>
      </g>
     </g>
    </g>
    <g id="xtick_6">
     <g id="line2d_6">
      <g>
       <use xlink:href="#md0932f196c" x="398.487273" y="307.584" style="stroke: #000000; stroke-width: 0.8"/>
      </g>
     </g>
     <g id="text_6">
      <!-- 10 -->
      <g transform="translate(392.124773 322.182437) scale(0.1 -0.1)">
       <defs>
        <path id="DejaVuSans-31" d="M 794 531 
L 1825 531 
L 1825 4091 
L 703 3866 
L 703 4441 
L 1819 4666 
L 2450 4666 
L 2450 531 
L 3481 531 
L 3481 0 
L 794 0 
L 794 531 
z
" transform="scale(0.015625)"/>
       </defs>
       <use xlink:href="#DejaVuSans-31"/>
       <use xlink:href="#DejaVuSans-30" transform="translate(63.623047 0)"/>
      </g>
     </g>
    </g>
    <g id="text_7">
     <!-- time_s -->
     <g transform="translate(219.759219 335.860562) scale(0.1 -0.1)">
      <defs>
       <path id="DejaVuSans-74" d="M 1172 4494 
L 1172 3500 
L 2356 3500 
L 2356 3053 
L 1172 3053 
L 1172 1153 
Q 1172 725 1289 603 
Q 1406 481 1766 481 
L 2356 481 
L 2356 0 
L 1766 0 
Q 1100 0 847 248 
Q 594 497 594 1153 
L 594 3053 
L 172 3053 
L 172 3500 
L 594 3500 
L 594 4494 
L 1172 4494 
z
" transform="scale(0.015625)"/>
       <path id="DejaVuSans-69" d="M 603 3500 
L 1178 3500 
L 1178 0 
L 603 0 
L 603 3500 
z
M 603 4863 
L 1178 4863 
L 1178 4134 
L 603 4134 
L 603 4863 
z
" transform="scale(0.015625)"/>
       <path id="DejaVuSans-6d" d="M 3328 2828 
Q 3544 3216 3844 3400 
Q 4144 3584 4550 3584 
Q 5097 3584 5394 3201 
Q 5691 2819 5691 2113 
L 5691 0 
L 5113 0 
L 5113 2094 
Q 5113 2597 4934 2840 
Q 4756 3084 4391 3084 
Q 3944 3084 3684 2787 
Q 3425 2491 3425 1978 
L 3425 0 
L 2847 0 
L 2847 2094 
Q 2847 2600 2669 2842 
Q 2491 3084 2119 3084 
Q 1678 3084 1418 2786 
Q 1159 2488 1159 1978 
L 1159 0 
L 581 0 
L 581 3500 
L 1159 3500 
L 1159 2956 
Q 1356 3278 1631 3431 
Q 1906 3584 2284 3584 
Q 2666 3584 2933 3390 
Q 3200 3197 3328 2828 
z
" transform="scale(0.015625)"/>
       <path id="DejaVuSans-65" d="M 3597 1894 
L 3597 1613 
L 953 1613 
Q 991 1019 1311 708 
Q 1631 397 2203 397 
Q 2534 397 2845 478 
Q 3156 559 3463 722 
L 3463 178 
Q 3153 47 2828 -22 
Q 2503 -91 2169 -91 
Q 1331 -91 842 396 
Q 353 884 353 1716 
Q 353 2575 817 3079 
Q 1281 3584 2069 3584 
Q 2775 3584 3186 3129 
Q 3597 2675 3597 1894 
z
M 3022 2063 
Q 3016 2534 2758 2815 
Q 2500 3097 2075 3097 
Q 1594 3097 1305 2825 
Q 1016 2553 972 2059 
L 3022 2063 
z
" transform="scale(0.015625)"/>
       <path id="DejaVuSans-5f" d="M 3263 -1063 
L 3263 -1509 
L -63 -1509 
L -63 -1063 
L 3263 -1063 
z
" transform="scale(0.015625)"/>
       <path id="DejaVuSans-73" d="M 2834 3397 
L 2834 2853 
Q 2591 2978 2328 3040 
Q 2066 3103 1784 3103 
Q 1356 3103 1142 2972 
Q 928 2841 928 2578 
Q 928 2378 1081 2264 
Q 1234 2150 1697 2047 
L 1894 2003 
Q 2506 1872 2764 1633 
Q 3022 1394 3022 966 
Q 3022 478 2636 193 
Q 2250 -91 1575 -91 
Q 1294 -91 989 -36 
Q 684 19 347 128 
L 347 722 
Q 666 556 975 473 
Q 1284 391 1588 391 
Q 1994 391 2212 530 
Q 2431 669 2431 922 
Q 2431 1156 2273 1281 
Q 2116 1406 1581 1522 
L 1381 1569 
Q 847 1681 609 1914 
Q 372 2147 372 2553 
Q 372 3047 722 3315 
Q 1072 3584 1716 3584 
Q 2034 3584 2315 3537 
Q 2597 3491 2834 3397 
z
" transform="scale(0.015625)"/>
      </defs>
      <use xlink:href="#DejaVuSans-74"/>
      <use xlink:href="#DejaVuSans-69" transform="translate(39.208984 0)"/>
      <use xlink:href="#DejaVuSans-6d" transform="translate(66.992188 0)"/>
      <use xlink:href="#DejaVuSans-65" transform="translate(164.404297 0)"/>
      <use xlink:href="#DejaVuSans-5f" transform="translate(225.927734 0)"/>
      <use xlink:href="#DejaVuSans-73" transform="translate(275.927734 0)"/>
     </g>
    </g>
   </g>
   <g id="matplotlib.axis_2">
    <g id="ytick_1">
     <g id="line2d_7">
      <defs>
       <path id="me1632812c5" d="M 0 0 
L -3.5 0 
" style="stroke: #000000; stroke-width: 0.8"/>
      </defs>
      <g>
       <use xlink:href="#me1632812c5" x="57.6" y="287.97129" style="stroke: #000000; stroke-width: 0.8"/>
      </g>
     </g>
     <g id="text_8">
      <!-- 19 -->
      <g transform="translate(37.875 291.770508) scale(0.1 -0.1)">
       <defs>
        <path id="DejaVuSans-39" d="M 703 97 
L 703 672 
Q 941 559 1184 500 
Q 1428 441 1663 441 
Q 2288 441 2617 861 
Q 2947 1281 2994 2138 
Q 2813 1869 2534 1725 
Q 2256 1581 1919 1581 
Q 1219 1581 811 2004 
Q 403 2428 403 3163 
Q 403 3881 828 4315 
Q 1253 4750 1959 4750 
Q 2769 4750 3195 4129 
Q 3622 3509 3622 2328 
Q 3622 1225 3098 567 
Q 2575 -91 1691 -91 
Q 1453 -91 1209 -44 
Q 966 3 703 97 
z
M 1959 2075 
Q 2384 2075 2632 2365 
Q 2881 2656 2881 3163 
Q 2881 3666 2632 3958 
Q 2384 4250 1959 4250 
Q 1534 4250 1286 3958 
Q 1038 3666 1038 3163 
Q 1038 2656 1286 2365 
Q 1534 2075 1959 2075 
z
" transform="scale(0.015625)"/>
       </defs>
       <use xlink:href="#DejaVuSans-31"/>
       <use xlink:href="#DejaVuSans-39" transform="translate(63.623047 0)"/>
      </g>
     </g>
    </g>
    <g id="ytick_2">
     <g id="line2d_8">
      <g>
       <use xlink:href="#me1632812c5" x="57.6" y="250.289605" style="stroke: #000000; stroke-width: 0.8"/>
      </g>
     </g>
     <g id="text_9">
      <!-- 20 -->
      <g transform="translate(37.875 254.088824) scale(0.1 -0.1)">
       <use xlink:href="#DejaVuSans-32"/>
       <use xlink:href="#DejaVuSans-30" transform="translate(63.623047 0)"/>
      </g>
     </g>
    </g>
    <g id="ytick_3">
     <g id="line2d_9">
      <g>
       <use xlink:href="#me1632812c5" x="57.6" y="212.60792" style="stroke: #000000; stroke-width: 0.8"/>
      </g>
     </g>
     <g id="text_10">
      <!-- 21 -->
      <g transform="translate(37.875 216.407139) scale(0.1 -0.1)">
       <use xlink:href="#DejaVuSans-32"/>
       <use xlink:href="#DejaVuSans-31" transform="translate(63.623047 0)"/>
      </g>
     </g>
    </g>
    <g id="ytick_4">
     <g id="line2d_10">
      <g>
       <use xlink:href="#me1632812c5" x="57.6" y="174.926236" style="stroke: #000000; stroke-width: 0.8"/>
      </g>
     </g>
     <g id="text_11">
      <!-- 22 -->
      <g transform="translate(37.875 178.725455) scale(0.1 -0.1)">
       <use xlink:href="#DejaVuSans-32"/>
       <use xlink:href="#DejaVuSans-32" transform="translate(63.623047 0)"/>
      </g>
     </g>
    </g>
    <g id="ytick_5">
     <g id="line2d_11">
      <g>
       <use xlink:href="#me1632812c5" x="57.6" y="137.244551" style="stroke: #000000; stroke-width: 0.8"/>
      </g>
     </g>
     <g id="text_12">
      <!-- 23 -->
      <g transform="translate(37.875 141.04377) scale(0.1 -0.1)">
       <defs>
        <path id="DejaVuSans-33" d="M 2597 2516 
Q 3050 2419 3304 2112 
Q 3559 1806 3559 1356 
Q 3559 666 3084 287 
Q 2609 -91 1734 -91 
Q 1441 -91 1130 -33 
Q 819 25 488 141 
L 488 750 
Q 750 597 1062 519 
Q 1375 441 1716 441 
Q 2309 441 2620 675 
Q 2931 909 2931 1356 
Q 2931 1769 2642 2001 
Q 2353 2234 1838 2234 
L 1294 2234 
L 1294 2753 
L 1863 2753 
Q 2328 2753 2575 2939 
Q 2822 3125 2822 3475 
Q 2822 3834 2567 4026 
Q 2313 4219 1838 4219 
Q 1578 4219 1281 4162 
Q 984 4106 628 3988 
L 628 4550 
Q 988 4650 1302 4700 
Q 1616 4750 1894 4750 
Q 2613 4750 3031 4423 
Q 3450 4097 3450 3541 
Q 3450 3153 3228 2886 
Q 3006 2619 2597 2516 
z
" transform="scale(0.015625)"/>
       </defs>
       <use xlink:href="#DejaVuSans-32"/>
       <use xlink:href="#DejaVuSans-33" transform="translate(63.623047 0)"/>
      </g>
     </g>
    </g>
    <g id="ytick_6">
     <g id="line2d_12">
      <g>
       <use xlink:href="#me1632812c5" x="57.6" y="99.562867" style="stroke: #000000; stroke-width: 0.8"/>
      </g>
     </g>
     <g id="text_13">
      <!-- 24 -->
      <g transform="translate(37.875 103.362085) scale(0.1 -0.1)">
       <use xlink:href="#DejaVuSans-32"/>
       <use xlink:href="#DejaVuSans-34" transform="translate(63.623047 0)"/>
      </g>
     </g>
    </g>
    <g id="ytick_7">
     <g id="line2d_13">
      <g>
       <use xlink:href="#me1632812c5" x="57.6" y="61.881182" style="stroke: #000000; stroke-width: 0.8"/>
      </g>
     </g>
     <g id="text_14">
      <!-- 25 -->
      <g transform="translate(37.875 65.680401) scale(0.1 -0.1)">
       <defs>
        <path id="DejaVuSans-35" d="M 691 4666 
L 3169 4666 
L 3169 4134 
L 1269 4134 
L 1269 2991 
Q 1406 3038 1543 3061 
Q 1681 3084 1819 3084 
Q 2600 3084 3056 2656 
Q 3513 2228 3513 1497 
Q 3513 744 3044 326 
Q 2575 -91 1722 -91 
Q 1428 -91 1123 -41 
Q 819 9 494 109 
L 494 744 
Q 775 591 1075 516 
Q 1375 441 1709 441 
Q 2250 441 2565 725 
Q 2881 1009 2881 1497 
Q 2881 1984 2565 2268 
Q 2250 2553 1709 2553 
Q 1456 2553 1204 2497 
Q 953 2441 691 2322 
L 691 4666 
z
" transform="scale(0.015625)"/>
       </defs>
       <use xlink:href="#DejaVuSans-32"/>
       <use xlink:href="#DejaVuSans-35" transform="translate(63.623047 0)"/>
      </g>
     </g>
    </g>
    <g id="text_15">
     <!-- temperature_c -->
     <g transform="translate(31.517187 211.203) rotate(-90) scale(0.1 -0.1)">
      <defs>
       <path id="DejaVuSans-70" d="M 1159 525 
L 1159 -1331 
L 581 -1331 
L 581 3500 
L 1159 3500 
L 1159 2969 
Q 1341 3281 1617 3432 
Q 1894 3584 2278 3584 
Q 2916 3584 3314 3078 
Q 3713 2572 3713 1747 
Q 3713 922 3314 415 
Q 2916 -91 2278 -91 
Q 1894 -91 1617 61 
Q 1341 213 1159 525 
z
M 3116 1747 
Q 3116 2381 2855 2742 
Q 2594 3103 2138 3103 
Q 1681 3103 1420 2742 
Q 1159 2381 1159 1747 
Q 1159 1113 1420 752 
Q 1681 391 2138 391 
Q 2594 391 2855 752 
Q 3116 1113 3116 1747 
z
" transform="scale(0.015625)"/>
       <path id="DejaVuSans-72" d="M 2631 2963 
Q 2534 3019 2420 3045 
Q 2306 3072 2169 3072 
Q 1681 3072 1420 2755 
Q 1159 2438 1159 1844 
L 1159 0 
L 581 0 
L 581 3500 
L 1159 3500 
L 1159 2956 
Q 1341 3275 1631 3429 
Q 1922 3584 2338 3584 
Q 2397 3584 2469 3576 
Q 2541 3569 2628 3553 
L 2631 2963 
z
" transform="scale(0.015625)"/>
       <path id="DejaVuSans-61" d="M 2194 1759 
Q 1497 1759 1228 1600 
Q 959 1441 959 1056 
Q 959 750 1161 570 
Q 1363 391 1709 391 
Q 2188 391 2477 730 
Q 2766 1069 2766 1631 
L 2766 1759 
L 2194 1759 
z
M 3341 1997 
L 3341 0 
L 2766 0 
L 2766 531 
Q 2569 213 2275 61 
Q 1981 -91 1556 -91 
Q 1019 -91 701 211 
Q 384 513 384 1019 
Q 384 1609 779 1909 
Q 1175 2209 1959 2209 
L 2766 2209 
L 2766 2266 
Q 2766 2663 2505 2880 
Q 2244 3097 1772 3097 
Q 1472 3097 1187 3025 
Q 903 2953 641 2809 
L 641 3341 
Q 956 3463 1253 3523 
Q 1550 3584 1831 3584 
Q 2591 3584 2966 3190 
Q 3341 2797 3341 1997 
z
" transform="scale(0.015625)"/>
       <path id="DejaVuSans-75" d="M 544 1381 
L 544 3500 
L 1119 3500 
L 1119 1403 
Q 1119 906 1312 657 
Q 1506 409 1894 409 
Q 2359 409 2629 706 
Q 2900 1003 2900 1516 
L 2900 3500 
L 3475 3500 
L 3475 0 
L 2900 0 
L 2900 538 
Q 2691 219 2414 64 
Q 2138 -91 1772 -91 
Q 1169 -91 856 284 
Q 544 659 544 1381 
z
M 1991 3584 
L 1991 3584 
z
" transform="scale(0.015625)"/>
       <path id="DejaVuSans-63" d="M 3122 3366 
L 3122 2828 
Q 2878 2963 2633 3030 
Q 2388 3097 2138 3097 
Q 1578 3097 1268 2742 
Q 959 2388 959 1747 
Q 959 1106 1268 751 
Q 1578 397 2138 397 
Q 2388 397 2633 464 
Q 2878 531 3122 666 
L 3122 134 
Q 2881 22 2623 -34 
Q 2366 -91 2075 -91 
Q 1284 -91 818 406 
Q 353 903 353 1747 
Q 353 2603 823 3093 
Q 1294 3584 2113 3584 
Q 2378 3584 2631 3529 
Q 2884 3475 3122 3366 
z
" transform="scale(0.015625)"/>
      </defs>
      <use xlink:href="#DejaVuSans-74"/>
      <use xlink:href="#DejaVuSans-65" transform="translate(39.208984 0)"/>
      <use xlink:href="#DejaVuSans-6d" transform="translate(100.732422 0)"/>
      <use xlink:href="#DejaVuSans-70" transform="translate(198.144531 0)"/>
      <use xlink:href="#DejaVuSans-65" transform="translate(261.621094 0)"/>
      <use xlink:href="#DejaVuSans-72" transform="translate(323.144531 0)"/>
      <use xlink:href="#DejaVuSans-61" transform="translate(364.257812 0)"/>
      <use xlink:href="#DejaVuSans-74" transform="translate(425.537109 0)"/>
      <use xlink:href="#DejaVuSans-75" transform="translate(464.746094 0)"/>
      <use xlink:href="#DejaVuSans-72" transform="translate(528.125 0)"/>
      <use xlink:href="#DejaVuSans-65" transform="translate(566.988281 0)"/>
      <use xlink:href="#DejaVuSans-5f" transform="translate(628.511719 0)"/>
      <use xlink:href="#DejaVuSans-63" transform="translate(678.511719 0)"/>
     </g>
    </g>
   </g>
   <g id="line2d_14">
    <path d="M 73.832727 171.828065 
L 77.942278 171.472711 
L 82.05183 161.541645 
L 86.161381 153.842805 
L 90.270932 151.65607 
L 94.380483 132.688637 
L 98.490035 131.814494 
L 102.599586 121.413839 
L 106.709137 111.369839 
L 110.818688 105.031992 
L 114.928239 97.308191 
L 119.037791 96.611303 
L 123.147342 93.326857 
L 127.256893 85.926467 
L 131.366444 92.203094 
L 135.475995 86.411887 
L 139.585547 81.892258 
L 143.695098 76.513284 
L 147.804649 64.386108 
L 151.9142 71.120691 
L 156.023751 65.969005 
L 160.133303 53.568 
L 164.242854 64.329307 
L 168.352405 57.001784 
L 172.461956 68.986058 
L 176.571507 65.251505 
L 180.681059 72.055327 
L 184.79061 70.205077 
L 188.900161 65.028904 
L 193.009712 85.782401 
L 197.119264 74.956553 
L 201.228815 80.60687 
L 205.338366 91.023827 
L 209.447917 102.011269 
L 213.557468 97.331989 
L 217.66702 107.411906 
L 221.776571 108.593132 
L 225.886122 116.693988 
L 229.995673 112.935843 
L 234.105224 132.634475 
L 238.214776 145.380928 
L 242.324327 144.831097 
L 246.433878 152.30588 
L 250.543429 152.434512 
L 254.65298 163.910204 
L 258.762532 175.101459 
L 262.872083 175.531521 
L 266.981634 201.402303 
L 271.091185 205.470105 
L 275.200736 215.077594 
L 279.310288 218.931499 
L 283.419839 232.915354 
L 287.52939 226.319325 
L 291.638941 238.90895 
L 295.748493 253.843198 
L 299.858044 256.880204 
L 303.967595 253.618961 
L 308.077146 255.414751 
L 312.186697 252.48438 
L 316.296249 250.741499 
L 320.4058 271.699817 
L 324.515351 284.735365 
L 328.624902 295.488 
L 332.734453 281.690003 
L 336.844005 290.961849 
L 340.953556 289.660908 
L 345.063107 291.837839 
L 349.172658 288.926204 
L 353.282209 280.467304 
L 357.391761 285.80112 
L 361.501312 286.557749 
L 365.610863 290.575235 
L 369.720414 292.441539 
L 373.829965 281.388332 
L 377.939517 274.951856 
L 382.049068 258.600276 
L 386.158619 265.239655 
L 390.26817 254.538466 
L 394.377722 259.244997 
L 398.487273 258.149794 
" clip-path="url(#p8370e50998)" style="fill: none; stroke: #1f77b4; stroke-width: 1.5; stroke-linecap: square"/>
    <defs>
     <path id="m17b53cbca8" d="M 0 3 
C 0.795609 3 1.55874 2.683901 2.12132 2.12132 
C 2.683901 1.55874 3 0.795609 3 0 
C 3 -0.795609 2.683901 -1.55874 2.12132 -2.12132 
C 1.55874 -2.683901 0.795609 -3 0 -3 
C -0.795609 -3 -1.55874 -2.683901 -2.12132 -2.12132 
C -2.683901 -1.55874 -3 -0.795609 -3 0 
C -3 0.795609 -2.683901 1.55874 -2.12132 2.12132 
C -1.55874 2.683901 -0.795609 3 0 3 
z
" style="stroke: #1f77b4"/>
    </defs>
    <g clip-path="url(#p8370e50998)">
     <use xlink:href="#m17b53cbca8" x="73.832727" y="171.828065" style="fill: #1f77b4; stroke: #1f77b4"/>
     <use xlink:href="#m17b53cbca8" x="77.942278" y="171.472711" style="fill: #1f77b4; stroke: #1f77b4"/>
     <use xlink:href="#m17b53cbca8" x="82.05183" y="161.541645" style="fill: #1f77b4; stroke: #1f77b4"/>
     <use xlink:href="#m17b53cbca8" x="86.161381" y="153.842805" style="fill: #1f77b4; stroke: #1f77b4"/>
     <use xlink:href="#m17b53cbca8" x="90.270932" y="151.65607" style="fill: #1f77b4; stroke: #1f77b4"/>
     <use xlink:href="#m17b53cbca8" x="94.380483" y="132.688637" style="fill: #1f77b4; stroke: #1f77b4"/>
     <use xlink:href="#m17b53cbca8" x="98.490035" y="131.814494" style="fill: #1f77b4; stroke: #1f77b4"/>
     <use xlink:href="#m17b53cbca8" x="102.599586" y="121.413839" style="fill: #1f77b4; stroke: #1f77b4"/>
     <use xlink:href="#m17b53cbca8" x="106.709137" y="111.369839" style="fill: #1f77b4; stroke: #1f77b4"/>
     <use xlink:href="#m17b53cbca8" x="110.818688" y="105.031992" style="fill: #1f77b4; stroke: #1f77b4"/>
     <use xlink:href="#m17b53cbca8" x="114.928239" y="97.308191" style="fill: #1f77b4; stroke: #1f77b4"/>
     <use xlink:href="#m17b53cbca8" x="119.037791" y="96.611303" style="fill: #1f77b4; stroke: #1f77b4"/>
     <use xlink:href="#m17b53cbca8" x="123.147342" y="93.326857" style="fill: #1f77b4; stroke: #1f77b4"/>
     <use xlink:href="#m17b53cbca8" x="127.256893" y="85.926467" style="fill: #1f77b4; stroke: #1f77b4"/>
     <use xlink:href="#m17b53cbca8" x="131.366444" y="92.203094" style="fill: #1f77b4; stroke: #1f77b4"/>
     <use xlink:href="#m17b53cbca8" x="135.475995" y="86.411887" style="fill: #1f77b4; stroke: #1f77b4"/>
     <use xlink:href="#m17b53cbca8" x="139.585547" y="81.892258" style="fill: #1f77b4; stroke: #1f77b4"/>
     <use xlink:href="#m17b53cbca8" x="143.695098" y="76.513284" style="fill: #1f77b4; stroke: #1f77b4"/>
     <use xlink:href="#m17b53cbca8" x="147.804649" y="64.386108" style="fill: #1f77b4; stroke: #1f77b4"/>
     <use xlink:href="#m17b53cbca8" x="151.9142" y="71.120691" style="fill: #1f77b4; stroke: #1f77b4"/>
     <use xlink:href="#m17b53cbca8" x="156.023751" y="65.969005" style="fill: #1f77b4; stroke: #1f77b4"/>
     <use xlink:href="#m17b53cbca8" x="160.133303" y="53.568" style="fill: #1f77b4; stroke: #1f77b4"/>
     <use xlink:href="#m17b53cbca8" x="164.242854" y="64.329307" style="fill: #1f77b4; stroke: #1f77b4"/>
     <use xlink:href="#m17b53cbca8" x="168.352405" y="57.001784" style="fill: #1f77b4; stroke: #1f77b4"/>
     <use xlink:href="#m17b53cbca8" x="172.461956" y="68.986058" style="fill: #1f77b4; stroke: #1f77b4"/>
     <use xlink:href="#m17b53cbca8" x="176.571507" y="65.251505" style="fill: #1f77b4; stroke: #1f77b4"/>
     <use xlink:href="#m17b53cbca8" x="180.681059" y="72.055327" style="fill: #1f77b4; stroke: #1f77b4"/>
     <use xlink:href="#m17b53cbca8" x="184.79061" y="70.205077" style="fill: #1f77b4; stroke: #1f77b4"/>
     <use xlink:href="#m17b53cbca8" x="188.900161" y="65.028904" style="fill: #1f77b4; stroke: #1f77b4"/>
     <use xlink:href="#m17b53cbca8" x="193.009712" y="85.782401" style="fill: #1f77b4; stroke: #1f77b4"/>
     <use xlink:href="#m17b53cbca8" x="197.119264" y="74.956553" style="fill: #1f77b4; stroke: #1f77b4"/>
     <use xlink:href="#m17b53cbca8" x="201.228815" y="80.60687" style="fill: #1f77b4; stroke: #1f77b4"/>
     <use xlink:href="#m17b53cbca8" x="205.338366" y="91.023827" style="fill: #1f77b4; stroke: #1f77b4"/>
     <use xlink:href="#m17b53cbca8" x="209.447917" y="102.011269" style="fill: #1f77b4; stroke: #1f77b4"/>
     <use xlink:href="#m17b53cbca8" x="213.557468" y="97.331989" style="fill: #1f77b4; stroke: #1f77b4"/>
     <use xlink:href="#m17b53cbca8" x="217.66702" y="107.411906" style="fill: #1f77b4; stroke: #1f77b4"/>
     <use xlink:href="#m17b53cbca8" x="221.776571" y="108.593132" style="fill: #1f77b4; stroke: #1f77b4"/>
     <use xlink:href="#m17b53cbca8" x="225.886122" y="116.693988" style="fill: #1f77b4; stroke: #1f77b4"/>
     <use xlink:href="#m17b53cbca8" x="229.995673" y="112.935843" style="fill: #1f77b4; stroke: #1f77b4"/>
     <use xlink:href="#m17b53cbca8" x="234.105224" y="132.634475" style="fill: #1f77b4; stroke: #1f77b4"/>
     <use xlink:href="#m17b53cbca8" x="238.214776" y="145.380928" style="fill: #1f77b4; stroke: #1f77b4"/>
     <use xlink:href="#m17b53cbca8" x="242.324327" y="144.831097" style="fill: #1f77b4; stroke: #1f77b4"/>
     <use xlink:href="#m17b53cbca8" x="246.433878" y="152.30588" style="fill: #1f77b4; stroke: #1f77b4"/>
     <use xlink:href="#m17b53cbca8" x="250.543429" y="152.434512" style="fill: #1f77b4; stroke: #1f77b4"/>
     <use xlink:href="#m17b53cbca8" x="254.65298" y="163.910204" style="fill: #1f77b4; stroke: #1f77b4"/>
     <use xlink:href="#m17b53cbca8" x="258.762532" y="175.101459" style="fill: #1f77b4; stroke: #1f77b4"/>
     <use xlink:href="#m17b53cbca8" x="262.872083" y="175.531521" style="fill: #1f77b4; stroke: #1f77b4"/>
     <use xlink:href="#m17b53cbca8" x="266.981634" y="201.402303" style="fill: #1f77b4; stroke: #1f77b4"/>
     <use xlink:href="#m17b53cbca8" x="271.091185" y="205.470105" style="fill: #1f77b4; stroke: #1f77b4"/>
     <use xlink:href="#m17b53cbca8" x="275.200736" y="215.077594" style="fill: #1f77b4; stroke: #1f77b4"/>
     <use xlink:href="#m17b53cbca8" x="279.310288" y="218.931499" style="fill: #1f77b4; stroke: #1f77b4"/>
     <use xlink:href="#m17b53cbca8" x="283.419839" y="232.915354" style="fill: #1f77b4; stroke: #1f77b4"/>
     <use xlink:href="#m17b53cbca8" x="287.52939" y="226.319325" style="fill: #1f77b4; stroke: #1f77b4"/>
     <use xlink:href="#m17b53cbca8" x="291.638941" y="238.90895" style="fill: #1f77b4; stroke: #1f77b4"/>
     <use xlink:href="#m17b53cbca8" x="295.748493" y="253.843198" style="fill: #1f77b4; stroke: #1f77b4"/>
     <use xlink:href="#m17b53cbca8" x="299.858044" y="256.880204" style="fill: #1f77b4; stroke: #1f77b4"/>
     <use xlink:href="#m17b53cbca8" x="303.967595" y="253.618961" style="fill: #1f77b4; stroke: #1f77b4"/>
     <use xlink:href="#m17b53cbca8" x="308.077146" y="255.414751" style="fill: #1f77b4; stroke: #1f77b4"/>
     <use xlink:href="#m17b53cbca8" x="312.186697" y="252.48438" style="fill: #1f77b4; stroke: #1f77b4"/>
     <use xlink:href="#m17b53cbca8" x="316.296249" y="250.741499" style="fill: #1f77b4; stroke: #1f77b4"/>
     <use xlink:href="#m17b53cbca8" x="320.4058" y="271.699817" style="fill: #1f77b4; stroke: #1f77b4"/>
     <use xlink:href="#m17b53cbca8" x="324.515351" y="284.735365" style="fill: #1f77b4; stroke: #1f77b4"/>
     <use xlink:href="#m17b53cbca8" x="328.624902" y="295.488" style="fill: #1f77b4; stroke: #1f77b4"/>
     <use xlink:href="#m17b53cbca8" x="332.734453" y="281.690003" style="fill: #1f77b4; stroke: #1f77b4"/>
     <use xlink:href="#m17b53cbca8" x="336.844005" y="290.961849" style="fill: #1f77b4; stroke: #1f77b4"/>
     <use xlink:href="#m17b53cbca8" x="340.953556" y="289.660908" style="fill: #1f77b4; stroke: #1f77b4"/>
     <use xlink:href="#m17b53cbca8" x="345.063107" y="291.837839" style="fill: #1f77b4; stroke: #1f77b4"/>
     <use xlink:href="#m17b53cbca8" x="349.172658" y="288.926204" style="fill: #1f77b4; stroke: #1f77b4"/>
     <use xlink:href="#m17b53cbca8" x="353.282209" y="280.467304" style="fill: #1f77b4; stroke: #1f77b4"/>
     <use xlink:href="#m17b53cbca8" x="357.391761" y="285.80112" style="fill: #1f77b4; stroke: #1f77b4"/>
     <use xlink:href="#m17b53cbca8" x="361.501312" y="286.557749" style="fill: #1f77b4; stroke: #1f77b4"/>
     <use xlink:href="#m17b53cbca8" x="365.610863" y="290.575235" style="fill: #1f77b4; stroke: #1f77b4"/>
     <use xlink:href="#m17b53cbca8" x="369.720414" y="292.441539" style="fill: #1f77b4; stroke: #1f77b4"/>
     <use xlink:href="#m17b53cbca8" x="373.829965" y="281.388332" style="fill: #1f77b4; stroke: #1f77b4"/>
     <use xlink:href="#m17b53cbca8" x="377.939517" y="274.951856" style="fill: #1f77b4; stroke: #1f77b4"/>
     <use xlink:href="#m17b53cbca8" x="382.049068" y="258.600276" style="fill: #1f77b4; stroke: #1f77b4"/>
     <use xlink:href="#m17b53cbca8" x="386.158619" y="265.239655" style="fill: #1f77b4; stroke: #1f77b4"/>
     <use xlink:href="#m17b53cbca8" x="390.26817" y="254.538466" style="fill: #1f77b4; stroke: #1f77b4"/>
     <use xlink:href="#m17b53cbca8" x="394.377722" y="259.244997" style="fill: #1f77b4; stroke: #1f77b4"/>
     <use xlink:href="#m17b53cbca8" x="398.487273" y="258.149794" style="fill: #1f77b4; stroke: #1f77b4"/>
    </g>
   </g>
   <g id="line2d_15">
    <path d="M 73.832727 174.926236 
L 77.942278 166.983064 
L 82.05183 159.079158 
L 86.161381 151.25359 
L 90.270932 143.545045 
L 94.380483 135.991627 
L 98.490035 128.630677 
L 102.599586 121.498583 
L 106.709137 114.6306 
L 110.818688 108.060681 
L 114.928239 101.821301 
L 119.037791 95.943305 
L 123.147342 90.45575 
L 127.256893 85.385762 
L 131.366444 80.758405 
L 135.475995 76.596553 
L 139.585547 72.920779 
L 143.695098 69.749255 
L 147.804649 67.097658 
L 151.9142 64.979095 
L 156.023751 63.404041 
L 160.133303 62.38028 
L 164.242854 61.912874 
L 168.352405 62.004133 
L 172.461956 62.653606 
L 176.571507 63.858083 
L 180.681059 65.611609 
L 184.79061 67.905516 
L 188.900161 70.728464 
L 193.009712 74.0665 
L 197.119264 77.90312 
L 201.228815 82.21936 
L 205.338366 86.993884 
L 209.447917 92.203088 
L 213.557468 97.821222 
L 217.66702 103.820514 
L 221.776571 110.171306 
L 225.886122 116.842205 
L 229.995673 123.800234 
L 234.105224 131.010997 
L 238.214776 138.438849 
L 242.324327 146.04707 
L 246.433878 153.798052 
L 250.543429 161.653478 
L 254.65298 169.574516 
L 258.762532 177.522009 
L 262.872083 185.456671 
L 266.981634 193.339276 
L 271.091185 201.13086 
L 275.200736 208.792905 
L 279.310288 216.287534 
L 283.419839 223.577701 
L 287.52939 230.627365 
L 291.638941 237.40168 
L 295.748493 243.867156 
L 299.858044 249.991832 
L 303.967595 255.745433 
L 308.077146 261.099515 
L 312.186697 266.027613 
L 316.296249 270.505364 
L 320.4058 274.510633 
L 324.515351 278.023621 
L 328.624902 281.026963 
L 332.734453 283.505811 
L 336.844005 285.447911 
L 340.953556 286.843663 
L 345.063107 287.686168 
L 349.172658 287.971261 
L 353.282209 287.697531 
L 357.391761 286.866334 
L 361.501312 285.481776 
L 365.610863 283.550703 
L 369.720414 281.082661 
L 373.829965 278.08985 
L 377.939517 274.587065 
L 382.049068 270.59162 
L 386.158619 266.123268 
L 390.26817 261.204096 
L 394.377722 255.858423 
L 398.487273 250.112672 
" clip-path="url(#p8370e50998)" style="fill: none; stroke-dasharray: 5.55,2.4; stroke-dashoffset: 0; stroke: #ff7f0e; stroke-width: 1.5"/>
   </g>
   <g id="patch_3">
    <path d="M 57.6 307.584 
L 57.6 41.472 
" style="fill: none; stroke: #000000; stroke-width: 0.8; stroke-linejoin: miter; stroke-linecap: square"/>
   </g>
   <g id="patch_4">
    <path d="M 414.72 307.584 
L 414.72 41.472 
" style="fill: none; stroke: #000000; stroke-width: 0.8; stroke-linejoin: miter; stroke-linecap: square"/>
   </g>
   <g id="patch_5">
    <path d="M 57.6 307.584 
L 414.72 307.584 
" style="fill: none; stroke: #000000; stroke-width: 0.8; stroke-linejoin: miter; stroke-linecap: square"/>
   </g>
   <g id="patch_6">
    <path d="M 57.6 41.472 
L 414.72 41.472 
" style="fill: none; stroke: #000000; stroke-width: 0.8; stroke-linejoin: miter; stroke-linecap: square"/>
   </g>
   <g id="legend_1">
    <g id="patch_7">
     <path d="M 302.37 79.106375 
L 407.72 79.106375 
Q 409.72 79.106375 409.72 77.106375 
L 409.72 48.472 
Q 409.72 46.472 407.72 46.472 
L 302.37 46.472 
Q 300.37 46.472 300.37 48.472 
L 300.37 77.106375 
Q 300.37 79.106375 302.37 79.106375 
z
" style="fill: #ffffff; opacity: 0.8; stroke: #cccccc; stroke-linejoin: miter"/>
    </g>
    <g id="line2d_16">
     <path d="M 304.37 54.570438 
L 314.37 54.570438 
L 324.37 54.570438 
" style="fill: none; stroke: #1f77b4; stroke-width: 1.5; stroke-linecap: square"/>
     <g>
      <use xlink:href="#m17b53cbca8" x="314.37" y="54.570438" style="fill: #1f77b4; stroke: #1f77b4"/>
     </g>
    </g>
    <g id="text_16">
     <!-- temperature_c -->
     <g transform="translate(332.37 58.070438) scale(0.1 -0.1)">
      <use xlink:href="#DejaVuSans-74"/>
      <use xlink:href="#DejaVuSans-65" transform="translate(39.208984 0)"/>
      <use xlink:href="#DejaVuSans-6d" transform="translate(100.732422 0)"/>
      <use xlink:href="#DejaVuSans-70" transform="translate(198.144531 0)"/>
      <use xlink:href="#DejaVuSans-65" transform="translate(261.621094 0)"/>
      <use xlink:href="#DejaVuSans-72" transform="translate(323.144531 0)"/>
      <use xlink:href="#DejaVuSans-61" transform="translate(364.257812 0)"/>
      <use xlink:href="#DejaVuSans-74" transform="translate(425.537109 0)"/>
      <use xlink:href="#DejaVuSans-75" transform="translate(464.746094 0)"/>
      <use xlink:href="#DejaVuSans-72" transform="translate(528.125 0)"/>
      <use xlink:href="#DejaVuSans-65" transform="translate(566.988281 0)"/>
      <use xlink:href="#DejaVuSans-5f" transform="translate(628.511719 0)"/>
      <use xlink:href="#DejaVuSans-63" transform="translate(678.511719 0)"/>
     </g>
    </g>
    <g id="line2d_17">
     <path d="M 304.37 69.526688 
L 314.37 69.526688 
L 324.37 69.526688 
" style="fill: none; stroke-dasharray: 5.55,2.4; stroke-dashoffset: 0; stroke: #ff7f0e; stroke-width: 1.5"/>
    </g>
    <g id="text_17">
     <!-- fit -->
     <g transform="translate(332.37 73.026688) scale(0.1 -0.1)">
      <defs>
       <path id="DejaVuSans-66" d="M 2375 4863 
L 2375 4384 
L 1825 4384 
Q 1516 4384 1395 4259 
Q 1275 4134 1275 3809 
L 1275 3500 
L 2222 3500 
L 2222 3053 
L 1275 3053 
L 1275 0 
L 697 0 
L 697 3053 
L 147 3053 
L 147 3500 
L 697 3500 
L 697 3744 
Q 697 4328 969 4595 
Q 1241 4863 1831 4863 
L 2375 4863 
z
" transform="scale(0.015625)"/>
      </defs>
      <use xlink:href="#DejaVuSans-66"/>
      <use xlink:href="#DejaVuSans-69" transform="translate(35.205078 0)"/>
      <use xlink:href="#DejaVuSans-74" transform="translate(62.988281 0)"/>
     </g>
    </g>
   </g>
  </g>
 </g>
 <defs>
  <clipPath id="p8370e50998">
   <rect x="57.6" y="41.472" width="357.12" height="266.112"/>
  </clipPath>
 </defs>
</svg>
